/* XPM */
static char *dummy[]={
"64 64 652 2",
"b. c #4d6b83",
"a5 c #4e607d",
"a2 c #4f6d87",
"bh c #52708c",
"aU c #53728e",
"a8 c #54698b",
".Q c #556b8d",
"aJ c #567491",
"#E c #567695",
"b1 c #576c8f",
"aj c #577796",
"aB c #587795",
"aL c #587898",
"#n c #587899",
"as c #59799a",
"bD c #5a7096",
"aT c #5a7a9b",
"aD c #5b7c9e",
"al c #5c7c9e",
"#Q c #5c7da0",
"b7 c #5d749a",
".9 c #5d759c",
"bc c #5d769c",
"be c #5e769c",
"bB c #5e769d",
"ar c #5e769e",
"bV c #5e779e",
"a1 c #5e779f",
".W c #5e78a0",
"#C c #5f779f",
"#b c #5f78a0",
"#o c #5f80a5",
"#u c #5f81a6",
"aQ c #6078a0",
".5 c #6079a2",
"ah c #6079a3",
"#5 c #6080a5",
"b3 c #617ca6",
"ab c #6182a9",
"#T c #627ba5",
"#d c #627ba6",
"bq c #627da7",
"bs c #627da8",
"aA c #627da9",
"bm c #6284ab",
"af c #637ca6",
"aS c #637da9",
"#l c #637ea9",
"ax c #647ea9",
"by c #647eaa",
"bd c #647fa9",
".Y c #6480ac",
"#f c #6486af",
"bv c #6580ab",
"#2 c #6581ac",
"#s c #6581ad",
"bX c #6681ac",
"bN c #6682ae",
"bk c #6682af",
"#w c #6689b2",
"b4 c #677c9c",
"#O c #6782af",
"bo c #6783b0",
"bw c #6789b3",
"bt c #6789b5",
"#7 c #678ab4",
"#R c #678ab5",
"aH c #6884b1",
"#3 c #6885b2",
"#I c #688ab5",
"bS c #688bb6",
"#j c #6981a8",
"ap c #6984b2",
"#Y c #6989b1",
"#8 c #698bb6",
"#1 c #698bb7",
"aW c #698cb8",
"#q c #6a81a6",
"bZ c #6a86b5",
"bg c #6a87b6",
"bK c #6b87b6",
"#K c #6b89b8",
"bI c #6b8ab9",
"bC c #6b8ebb",
"bz c #6b8fbc",
"a. c #6c89b9",
".3 c #6c8abc",
"#Z c #6c8fbb",
"#F c #6c90be",
"a7 c #6d8cbe",
"aM c #6d90be",
"#0 c #6d91c0",
"ad c #6e92c1",
"#x c #6e92c2",
"an c #6f93c2",
"aV c #6f93c3",
"bG c #708fc2",
"#m c #7095c6",
"bF c #7191c5",
".X c #7193c6",
"bP c #7292c7",
"#V c #7293c7",
"bQ c #7293c8",
"bE c #7393c8",
"bR c #7394c9",
".4 c #7395ca",
"ac c #7398cb",
"b5 c #7495c9",
"#6 c #7498c9",
"aG c #7498cb",
"aN c #7499cc",
"bb c #7499cd",
"#g c #749ace",
"#X c #7599c8",
"aw c #769ace",
"a9 c #779ad1",
"bH c #779ad2",
"#h c #779ed4",
"#y c #7896c8",
"bl c #789bd4",
"#H c #789ed4",
"#z c #7997c6",
"#a c #799ed6",
"av c #7a9fd6",
"bO c #7aa1d8",
"#W c #7b9dd1",
"aP c #7ba0d7",
"#P c #7ba1d8",
"#G c #7ba3db",
"#4 c #7c9fd8",
"#t c #7ca1db",
"aF c #7ca2db",
"#e c #7ca2dc",
"aa c #7ca3dc",
"bT c #7da0da",
"#i c #7da1db",
"bj c #7da1dd",
"aO c #7da3dc",
"#N c #7da3de",
"br c #7da5e0",
"#J c #7ea3de",
"bf c #7ea3df",
"ao c #7ea4dd",
"bp c #7ea4e1",
"am c #7ea5df",
"b# c #7ea5e1",
"ak c #7ea6e0",
"a4 c #7fa3de",
"aX c #7fa6e1",
"a# c #80a6e3",
"#p c #80a7e0",
"a3 c #80a7e4",
"## c #80a9e5",
"a6 c #81a6e2",
"bY c #81a7e5",
"b2 c #81a8e5",
"ba c #81a9e7",
"#v c #81aae7",
"#k c #82a7e5",
"bL c #82a8e4",
"#S c #82abe8",
".8 c #83a9e8",
"bJ c #83ace9",
"aC c #83aceb",
"at c #83adeb",
"b6 c #84aae7",
"#c c #84aae8",
".6 c #84acea",
"ai c #84aced",
"#. c #84adec",
"bi c #84aded",
"bA c #85abea",
"bx c #85aded",
"au c #85aeed",
"bn c #85aeef",
"bW c #86adec",
"aE c #86aeed",
".R c #86aeee",
"bu c #86aeef",
"b0 c #86aff0",
"aK c #86b0f0",
"bU c #87b0f1",
".E c #87b0f2",
".C c #87b1f2",
"ae c #88b0f0",
".2 c #88b0f2",
"#D c #88b1f1",
"Qt c #88b1f2",
".D c #88b2f2",
"#9 c #89b1f1",
".# c #89b1f2",
".i c #89b2f2",
"az c #89b2f3",
".h c #8ab1f2",
".g c #8ab2f2",
"#B c #8ab2f3",
".l c #8ab3f2",
".K c #8ab3f3",
"cP c #8badea",
"dn c #8bb0ef",
"cb c #8bb2f0",
".k c #8bb2f2",
"#A c #8bb2f3",
".a c #8bb3f2",
".j c #8bb3f3",
".S c #8bb4f3",
".d c #8cb3f2",
".T c #8cb3f3",
".m c #8cb4f2",
".z c #8cb4f3",
"d2 c #8db0e7",
"eg c #8db1ec",
"f0 c #8db2ee",
".0 c #8db3f2",
".I c #8db4f2",
".n c #8db4f3",
"ia c #8db5f2",
".J c #8db5f3",
"dt c #8eaae4",
"#r c #8eb0e6",
"eo c #8eb3eb",
"c6 c #8eb4e8",
"#M c #8eb4f2",
".o c #8eb4f3",
".c c #8eb5f2",
".t c #8eb5f3",
"bM c #8eb6f3",
"b8 c #8fa8e2",
"ee c #8fabe7",
"cl c #8fb0e4",
"dg c #8fb0e5",
"gy c #8fb4ed",
"fu c #8fb4f3",
".7 c #8fb5f2",
".u c #8fb5f3",
".1 c #8fb6f2",
".Z c #8fb6f3",
"c. c #90b0df",
"cT c #90b0e1",
"hK c #90b5ec",
".N c #90b5f2",
".B c #90b5f3",
"fR c #90b6f2",
".b c #90b6f3",
".v c #90b7f3",
"fy c #91a9e2",
"hv c #91aee6",
"dv c #91b0df",
"gi c #91b5e9",
"eq c #91b6e4",
"ag c #91b6f2",
".r c #91b6f3",
"g6 c #91b7ea",
".q c #91b7f3",
"h6 c #91b8f3",
"e3 c #92b1e0",
"hG c #92b7ea",
".p c #92b7f3",
".w c #92b8f3",
"cr c #93a5dc",
"fl c #93aae1",
"cG c #93afdb",
"c5 c #93b6de",
".H c #93b7f3",
".e c #93b8f3",
"id c #93b9f3",
"eT c #94a8df",
"dA c #94b7dc",
"e1 c #94b7dd",
"eV c #94b7e0",
"hS c #94b8e7",
".x c #94b8f3",
".A c #94b9f3",
"d0 c #95a3d9",
"fY c #95a8df",
"eh c #95b7da",
"cB c #95b8d6",
"ht c #95b8e1",
"dY c #95b9d4",
".y c #95b9f3",
".s c #95baf3",
"gW c #96a8dc",
"dc c #96b9d4",
".F c #96b9f3",
"h0 c #96badf",
".f c #96baf3",
"gs c #96baf4",
".V c #96bbf3",
"hd c #97a8db",
"eb c #97b9d2",
"gr c #97b9dd",
".G c #97baf3",
"gO c #97baf4",
".P c #97bbf3",
"cE c #989fd0",
"eL c #98a3d5",
"d# c #98b0d4",
"fA c #98b0d5",
".M c #98baf3",
".U c #98bbf3",
"a0 c #98bbf4",
"eH c #98bcf3",
"aY c #98bcf4",
"dE c #99a1d3",
"fE c #99a3d4",
"gU c #99a4d7",
"ew c #99afd2",
"dj c #99b9d1",
"eJ c #99bad0",
"gB c #99bad9",
"aq c #99bbf3",
"ay c #99bcf3",
"aZ c #99bcf4",
"ey c #9a9fcf",
"ig c #9aa9dc",
"cf c #9ab4db",
"ds c #9abaca",
"cq c #9abace",
"fv c #9abad1",
"gT c #9abad5",
"dI c #9abbcc",
"gZ c #9abbd2",
"ij c #9abbdf",
"aI c #9abcf3",
"aR c #9abcf4",
"gI c #9abdf3",
"fP c #9abdf4",
"fJ c #9ba0cf",
"fH c #9ba5d7",
"dM c #9bafc9",
"gG c #9bbbd2",
"hI c #9bbbd4",
"fQ c #9bbcf3",
"g# c #9bbcf4",
"#U c #9bbdf3",
"ga c #9bbdf4",
"fO c #9bbef3",
"cw c #9c9bc9",
"eP c #9c9ecc",
"c3 c #9cafcb",
"g4 c #9cb5e9",
"hh c #9cbbf0",
"g. c #9cbef3",
"f. c #9d9ecb",
"ho c #9da1d0",
"eY c #9db5c8",
"c# c #9db5d8",
"cZ c #9dbcc5",
"gP c #9dbcca",
"hY c #9dbdce",
"gM c #9dbee2",
"#L c #9dbef3",
"gb c #9dbff4",
"eu c #9e9bc8",
"d6 c #9e9cc8",
"dL c #9eafc6",
"dQ c #9ebcc6",
"ff c #9ebcc8",
"cM c #9ebdc2",
"ha c #9ebdcd",
"h9 c #9ebdd4",
"hq c #9ebece",
".O c #9ebff3",
"c2 c #9f98c2",
"ej c #9f9ac6",
"h2 c #9fb3d1",
"d4 c #9fbcc6",
"fS c #9fbdc4",
"cN c #9fbec1",
"hV c #9fbed2",
".L c #9fc0f3",
"fo c #a09bc5",
"gz c #a09cc8",
"cR c #a0a2c3",
"gh c #a0a6c8",
"gD c #a0adc4",
"c4 c #a0aec2",
"do c #a0aec4",
"eE c #a0b0c7",
"g1 c #a0b5e5",
"hB c #a0b7e7",
"cz c #a0b9dc",
"gY c #a0bdc4",
"db c #a0bebe",
"dJ c #a195bd",
"dK c #a196c0",
"fp c #a19ac3",
"hT c #a19cc7",
"d5 c #a1bebf",
"eG c #a1bec4",
"cY c #a1bfbd",
"h4 c #a1bfca",
"fe c #a295bd",
"dU c #a296be",
"gg c #a298c1",
"hU c #a29bc4",
"h8 c #a2a3c6",
"eN c #a2afc0",
"fN c #a2bfc4",
"dB c #a394bb",
"ez c #a395bd",
"dR c #a396bd",
"hE c #a39ac3",
"fZ c #a3b0be",
"dz c #a3bfbd",
"dX c #a3c0b8",
"h# c #a3c0c2",
"cI c #a492b8",
"cU c #a493b9",
"dk c #a493ba",
"hN c #a4a6c0",
"f2 c #a4adc2",
"cp c #a4b7d4",
"if c #a4bbc2",
"dH c #a4c0b7",
"eF c #a4c0be",
"i# c #a4c0c6",
"cD c #a591b6",
"hF c #a597bd",
"cu c #a5aeb8",
"g8 c #a5b1bc",
"dr c #a5c0b4",
"cC c #a5c0b6",
"dP c #a5c0b8",
"h5 c #a5c0c2",
"ie c #a5c1c1",
"i. c #a5c1c3",
"eM c #a692b6",
"hp c #a697bd",
"dl c #a6a1b5",
"hk c #a6a9d3",
"dp c #a6aeb8",
"gu c #a6c1b7",
"hm c #a6c2bb",
"ii c #a6c2c2",
"eQ c #a791b5",
"fm c #a793b7",
"hZ c #a795b8",
"hO c #a797bd",
"fd c #a79db2",
"hz c #a7a8d1",
"hl c #a7c2bb",
"ih c #a7c2c1",
"du c #a88daf",
"et c #a88fb2",
"cv c #a8adb0",
"gk c #a8b6b7",
"c7 c #a98dae",
"ek c #a993b1",
"f8 c #a9acb7",
"e6 c #a9adb1",
"d8 c #a9aeb1",
"di c #a9c2ae",
"da c #a9c2b1",
"e7 c #aa8eaf",
"h1 c #aa93b6",
"hC c #aaa1c5",
"hQ c #aaa6cc",
"ea c #aac3ac",
"ei c #aac3ae",
"hr c #aac3b3",
"cs c #ab8baa",
"e9 c #ab8dad",
"hL c #ab90b0",
"d7 c #ab98ad",
"fI c #ac8cab",
"ib c #ac91b1",
"hj c #aca4c7",
"e4 c #acaea9",
"ev c #acaeab",
"gc c #acc4a9",
"gX c #ad8dab",
"hy c #ad8ead",
"eA c #adaea9",
"dZ c #ae88a5",
"eC c #ae8aa7",
"he c #ae8ca8",
"dS c #ae97a6",
"ef c #aeada7",
"fC c #aeaea9",
"dW c #aec5a7",
"eW c #aec5a8",
"h7 c #aec6ac",
"df c #af85a0",
"dx c #af86a1",
"eZ c #af87a2",
"dC c #af98a2",
"c8 c #af9da2",
"ce c #afaca0",
"dF c #afada4",
"fn c #afaea7",
"gS c #afc5a7",
"eI c #afc6a3",
"hW c #afc6ac",
"cc c #b0849e",
"c0 c #b085a0",
"fq c #b088a3",
"hw c #b089a3",
"cV c #b0a0a2",
"dw c #b0aca0",
"en c #b0aea3",
"go c #b0aebd",
"ep c #b0c7a2",
"hX c #b0c7a7",
"eK c #b1849d",
"d9 c #b1859f",
"fX c #b186a1",
"gE c #b189a3",
"fF c #b18da9",
"eD c #b1a0a0",
"dy c #b1ac9c",
"cS c #b1ac9d",
"el c #b1ada2",
"fa c #b1aea0",
"ca c #b1b2b0",
"gx c #b1c7a3",
"hJ c #b1c7a4",
"ec c #b2839c",
"fB c #b2869f",
"gl c #b292ad",
"dh c #b2ac9c",
"e0 c #b2ad9e",
"co c #b2b3af",
"er c #b2c79c",
"eO c #b2c79d",
"gw c #b2c79e",
"hs c #b2c7a0",
"hf c #b2c8a1",
"ci c #b38197",
"eB c #b3849c",
"ck c #b3ac97",
"d1 c #b3ac9b",
"fT c #b3c89a",
"hc c #b3c89d",
"hn c #b3c8a0",
"gN c #b3c99f",
"cO c #b48097",
"eS c #b4839a",
"dT c #b4979a",
"fg c #b4ad9a",
"d. c #b4b1a6",
"ex c #b4c898",
"gt c #b4c899",
"fV c #b4c89a",
"hM c #b4c89d",
"dd c #b57f95",
"f5 c #b58297",
"fL c #b5849a",
"hg c #b5879f",
"f3 c #b58fa7",
"fx c #b59996",
"cH c #b5ac94",
"ed c #b5ac95",
"fz c #b5c997",
"hH c #b5c99c",
"gq c #b5c99f",
"dN c #b67e93",
"e2 c #b68096",
"eU c #b68d97",
"f7 c #b68fa5",
"d3 c #b6ac93",
"eR c #b6ac96",
"cA c #b6b3a6",
"fh c #b6c996",
"fW c #b6ca94",
"dm c #b78891",
"cJ c #b79c9d",
"dO c #b7ac91",
"fj c #b7ac93",
"e8 c #b7ac94",
"gf c #b7c995",
"dG c #b7ca93",
"dq c #b7ca94",
"g7 c #b7ca95",
"gR c #b7ca96",
"es c #b87c8f",
"em c #b87d90",
"fi c #b87e91",
"fs c #b87f92",
"h3 c #b8859a",
"de c #b8a48c",
"e# c #b8ca92",
"hb c #b8ca94",
"h. c #b8ca95",
"ge c #b8cb90",
"hu c #b8cb92",
"hx c #b8cb94",
"g5 c #b8cb95",
"hD c #b8cb96",
"f# c #b97e91",
"gp c #b98da2",
"e. c #b9ad8f",
"dV c #b9ad90",
"gj c #b9cb8f",
"cX c #bab29e",
"hR c #bacb94",
"gC c #bacc8e",
"ic c #bacc93",
"gH c #bb8091",
"dD c #bb8b88",
"gK c #bba3a1",
"g0 c #bc7f8f",
"gm c #bcb29a",
"cm c #bd9193",
"cx c #bd9791",
"gv c #bd9a86",
"fG c #bdaf91",
"gL c #be899a",
"g3 c #be8a9a",
"fr c #bea384",
"f4 c #beb297",
"gF c #beb989",
"fU c #bf8e81",
"c1 c #bf9980",
"ch c #bfb090",
"cL c #bfb191",
"fb c #c0ce82",
"fw c #c0cf7f",
"fc c #c0cf80",
"g9 c #c1a382",
"gA c #c1b57f",
"cK c #c28689",
"cn c #c28b89",
"gd c #c28d7c",
"gQ c #c2967e",
"gJ c #c38f8b",
"gV c #c3b57c",
"cF c #c47f75",
"cQ c #c48775",
"fM c #c4d17a",
"c9 c #c57f7b",
"cW c #c58380",
"f9 c #c6d276",
"ct c #c7826f",
"cy c #c7837e",
"hP c #c79c82",
"g2 c #c88c7e",
"gn c #c9897a",
"fK c #c98b6d",
"eX c #c9d46b",
"e5 c #cad46b",
"f1 c #cad46d",
"f6 c #cc7d6b",
"cj c #cc7e64",
"fD c #ccd568",
"cd c #cd8063",
"cg c #cd836d",
"fk c #cdd665",
"ft c #cfd662",
"b9 c #d1905a",
"hA c #d38365",
"hi c #d48061",
"QtQtQt.#.a.b.c.d.a.e.f.f.f.f.f.f.c.#.g.g.h.#.#QtQtQtQtQtQtQtQt.#.a.a.#.#.#.i.g.g.g.j.j.j.j.g.k.l.l.m.n.n.o.b.b.b.b.p.q.b.p.r.p.e",
"QtQtQt.#.#.#.#.#Qt.g.q.s.f.f.f.f.c.#.#.#.#.#.#QtQtQtQtQtQtQt.#.q.s.f.p.#.#.#.#.#.#.g.j.j.g.j.g.h.l.a.a.a.m.n.t.u.b.b.v.b.q.q.w.x",
"QtQtQtQtQt.#.#.#QtQt.#.g.l.a.q.c.#.#Qt.#.#.#QtQtQtQtQtQtQtQt.r.y.y.f.f.u.#.#.#.#.h.g.g.g.g.g.g.h.g.l.a.g.a.z.o.t.b.b.b.b.q.q.w.A",
"QtQtQtQtQtQtQtQtQt.#.#.#.#.#.#.#.#.#.#.#QtQtQtQtQtQt.#QtQt.#.e.y.y.f.s.x.g.#.#.#.#.g.g.g.g.h.#.h.h.g.a.a.a.m.n.o.o.B.b.b.b.r.w.w",
".CQtQtQtQtQtQt.D.D.i.i.#Qt.#.#.#.#.#.#.#QtQtQtQtQtQtQtQtQt.E.b.y.F.f.f.e.#.#.#.#.i.b.A.x.m.h.h.g.h.h.g.a.k.a.m.n.n.o.u.b.q.p.q.q",
"QtQtQt.CQt.CQtQtQt.i.D.DQtQtQtQtQtQtQtQtQtQt.CQtQt.C.C.C.E.E.g.e.y.y.x.aQt.#.#.#.m.f.f.G.s.m.h.g.h.#.#.g.g.a.d.m.n.n.t.b.b.q.r.q",
"Qt.C.C.C.C.CQtQtQtQtQtQt.C.CQt.#.#QtQtQtQtQtQtQt.b.A.H.d.C.C.C.I.b.I.iQtQtQt.#.#.m.f.f.f.f.y.g.h.#.h.#.g.g.l.m.m.n.n.n.J.t.r.r.s",
".C.C.C.C.C.CQtQtQtQtQtQtQt.CQtQt.#QtQtQtQtQt.g.H.f.y.y.x.I.C.CQtQt.E.EQt.CQtQtQt.i.s.f.f.f.f.H.e.p.K.#.g.g.l.d.m.n.n.n.t.t.u.e.L",
".E.C.C.CQtQtQtQtQtQtQtQtQtQt.EQtQtQtQtQtQtQt.q.G.f.f.f.y.s.g.C.C.C.C.E.EQtQt.#.#.#.v.f.f.f.f.f.f.M.N.#.g.g.g.d.n.n.n.n.t.t.t.e.O",
"QtQt.E.EQtQtQtQtQtQtQtQtQtQtQt.CQtQtQtQtQt.g.A.y.P.P.P.P.G.k.C.C.C.Q.RQtQt.#.#QtQt.g.x.f.f.f.f.M.f.S.g.g.g.g.k.d.T.n.n.n.t.t.u.U",
"QtQtQtQtQtQtQtQtQtQtQtQtQtQtQtQtQtQtQtQtQtQt.e.V.G.P.G.P.f.l.C.C.W.X.YQtQtQtQtQtQt.#.g.q.x.q.H.e.I.i.g.g.g.g.k.k.m.n.n.J.t.t.u.Z",
"QtQtQt.CQtQtQtQtQtQtQtQtQtQtQtQtQtQtQtQtQtQt.0.f.G.P.U.P.1Qt.2.3.4.C.5.6Qt.E.EQt.#.#.#.#.#.#.#.#.g.#.g.g.j.j.g.m.n.n.n.t.t.u.Z.Z",
"Qt.#QtQtQtQtQtQtQt.iQtQtQtQtQtQtQtQtQtQtQt.CQt.d.e.V.f.7QtQt.8.9#.###a#b#c.m.EQt.#.#.#Qt.#.#.#.#.#.i.g.g.j.j.T.m.n.n.n.t.t.t.u.Z",
"QtQtQt.#QtQt.#QtQtQt.#QtQtQtQtQt.#.#.#QtQt.2.2.#.#.m.g.#.#.2#d#e#f#g#h#i#j.s.Z.#.#.#.#.#.#.#.#.#.i.i.i.g.T.j.T.T.n.n.t.t.t.t.Z.Z",
"QtQtQtQtQtQt.#.#QtQt.#QtQtQtQtQtQt.#Qt.#.i.#.#QtQt.#.#.#Qt#k#l#m#n###o#p#q#r.H.#.#.#.#.#.#.h.i.i.g.i.g.g.T.T.T.T.z.n.t.t.t.u.u.u",
"QtQtQtQtQtQtQtQt.iQt.i.#.g.i.#.#QtQt.E.i.#.g.#.#.2.2Qt.#.2#s#t#u#u#v#w#x#y#z.I.i.#.#.#.h.#.#.g.g.g#A.g.g.k.j.T.d.m.n.t.t.u.u.Z.A",
"QtQtQtQtQtQtQtQt.#.g.i.g.g.g.g.i.#.#Qt.#.g#B.g.#.#Qt.CQt.E#C#D#E#F#G#H#I#J#KQt.#.#.#.#.#.#.h.h.g.g#A.j.j.k.g.j.T.m.I.t.t.t.t.x#L",
"#M.#.C.C.CQtQt.i.g.g.g.g.g.i.g.g.g.i.#.g#B#B#B.#Qt.EQt.C#N#O#P#Q#R#F#S#IQt#TQt.#.#.#.#.#.#.#.h.g.j.j.j.a.a.a.T.T.m.I.I.t.o.u.q#U",
".x.I.#.C.CQt.#.g.a.g.g.g.g.g.i.g.g.g.g#B#B#B#B.#Qt.E.E.C#V#W#X#Y#Z#0.##1Qt#2Qt.#.#.#.#.#.#.#.#.h.g.g.g.l.a.a.a.a.n.n.n.n.n.J.u.u",
".I.gQtQtQtQt.i.g.g.g.g.g.g.g.g.g.g.#.k.j.j#B.g.#Qt.2.E.E#3#4#5#6#I#7Qt#8#9#CQt.#.#.#.#.#.#Qt.#.g.n.n.g.a.T.a.l.d.T.n.n.n.n.n.o.t",
"QtQtQtQtQt.#.g.g.g.g.g.g.g.g.g.g.g.g.k.j.j.k#A.g.#.2.E.Ea.a##oaaabacQtadaeaf.#.#.#.#.#.#.#.#.j.H.f.f.p.T.a.d.d.T.n.n.n.n.n.n.o.n",
".E.E.EQtQt.#.g.h.g.g.g.g.g.g.k#A#A.g.g.k.j#Aag.d.2.E.E.EahaiajakalamQtanaoap.#.#Qt.#.#.#.#.g.s.G.M.Uaq.H.T.k.d.T.n.n.n.o.t.o.n.J",
".E.E.2.#.#.g.g.g.#.g.#.#.g.g#A.j#A.g.h.k#A.j.q.a.#.E.E.Car.Easat#Eau.#avawax.#.#.#.#Qt.#.#.n.f.f.Uaqayay.e.n.k.n.n.n.n.o.n.n.o.o",
".E.E.2Qt.#.#.h.h.g.#.#.#.i.iaz#B#B.k.h.h#A#A.a.#.#Qt.C.CaA.#aBaCaDaE.#aFaGaH.#.#.#.#.#.#.#.Z.f.U.U.UaqaIay.G.fay.y.n.n.o.n.o.t.t",
".E.E.2.#.#.h.h.h.#.g.h.h.gazaz#B.j#A.#.g.g.g.g.#QtQt.i.d#C.gaJaKaLaMaNaOaPaQ.#.i.#.#.#.#.#.n.f.U.U.UaRaRaIayayaI#U.p.n.o.n.n.o.t",
"Qt.E.2.g.#.h.h.#.#.#.#.g#B#B#B.j.j#A.g.i.i.iQt.#Qt.2.i.daS.CaT.CaUaVaW#xaXaQ.#.#.#.#.#.#.#.#.b.U.UaYaRaZa0.Uay#U#U.y.n.n.n.n.n.t",
"Qt.C.#.#.#.h.h.h.h.#.i.g#B#B#B.j.j.j.g.i.#.#.2.2Qt.2.2.Ea1.E#g.Ca2a3#0#7a4a5a6.#.#.#.#.#.h.#.g.paZaZaRa0.Z.tay#U#U.q.n.z.n.n.n.o",
"QtQt.#.#.g.g.g.g.h.h.h.g#A#B#B#B#B.j.g.g.#QtQtQt.2.2.2a7a8a9.E.Cb.b#babbbcbdbe.#.#.#.#.h.h.h.g.g.b.A.q.t.a.j.v.f.p.n.n.z.n.n.n.n",
"QtQt.#.i.g#B#B#B#B.g.g#A.j.j#B#B.j#A.k.g.#QtQtQt.2.2#Jbdbfbg.E.Cbhbi.Ebjbk.C#C.#.#.#.#.#.h.h.g.g.k.a.d.d.T.T.T.T.T.n.n.n.n.n.n.n",
"QtQtQt.i.g#B#B.K.K#B.K.K.j.j.K#B#B#B.g.iQtQtQtQtQtQt.3bl.Ca1.C.Cbmbn.Ebobp.EbqQt.#.#.#.#.#.#.g.g.j.g.k.d.T.T.T.T.n.n.n.n.n.n.t.t",
"QtQtQt.#.g#B#B.K.K#B#B#B.K.K#Baz#B#B.#.#QtQtQtQt.2.2a1br.Cbs.EQtaE.E.Ea1btbu.5ae.#.#.#.#.#.h.g.g.j.g.k.T.k.T.z.z.n.n.n.n.t.t.t.t",
"QtQtQt.#.g#B#B.K.K#B#B#B#B#B#Baz#B.g.#.#QtQtQtQt.2.2bvbw.C#C.E.E.E.Ebxbybz#v#TbA.#.#.#.#.g.g.i.g.g.g.k.T.d.T.T.n.n.n.n.n.J.t.Z.b",
"QtQtQt.#.i.h#B.K.K#B#B#B#B#B#B#B.i.g.gQt.2.E.EQt.E.EbBbCQtbDbEbFbGbHbEbI#FbJbKbL.#.#.#.#.g.g.i.g.g.g.d.T.n.n.n.n.n.n.n.tbM.Z.Z.b",
"QtQtQtQt.#.g.h#B#B#B#B#B#B.g.h.#.#.7.x.bQt.E.E.E.EQtbN#mbObBbPbQbQbQbRbdbSae#ObT.#.#.#.#.g.g.g.g.g.a.d.n.n.n.n.n.n.t.u.1.7.b.b.v",
"QtQt.i.iQt.#.i.g.g.g#B.g.#.#.#Qt.2.q.f.x.g.E.E.EQtQt#bQtbUbVQt.E.E.E.E#CbW.#bXaE.#.g.g.h.g.g.g.g.g.T.n.n.n.n.n.t.t.t.b.Z.b.b.v.q",
".i.i.iQtQtQt.#Qt.i.i.i.#Qt.2.2.2Qt.I.q#M.#.E.E.E.EbYbZQtQt#lb0.E.E.EQtb1ap#Tbe.#.#.#.g.g.g.g.g.a.a.T.n.n.n.n.n.J.t.u.b.b.b.q.q.q",
".i.i.iQtQt.#QtQt.#QtQtQt.2.EQt.E.u.e.gQtQtQt.E.E.Cb2b3b4.W.W.C.E.E.E.EaHb5b6b7.#.h.#.g.g.j.j.a.d.T.z.n.n.n.n.n.o.J.Z.b.b.q.v.q.w",
".i.iQtQtQtQt.#QtQtQtQt.CQt.b.b.d.x.f.qQt.CQtQtQtQt.Cb8b9c..C.C.EQtQtQt.#c#cacb.#.h.#.h.g.j.g.a.d.T.n.n.n.n.o.o.o.t.u.b.v.q.q.q.w",
"QtQtQtQtQtQtQt.CQtQtQt.#.q.s.s.H.x.f.HQtQtQtQtQtQtQtcccdce.C.C.CQtQtQtcfcgch.f.n.#.h.i.g.g.g.d.k.n.n.n.n.n.o.t.t.t.Z.r.v.q.q.p.w",
"QtQtQtQtQtQtQtQt.C.C.C#M.f.f.f.f.p.s.HQtQtQtQtQtQt.Ccicjckcl.C.C.C.C.icmcncocp.y#B.g.g.g.g.a.a.T.n.n.n.n.n.o.o.t.u.Z.b.q.q.p.e.e",
"QtQtQtQtQtQtQtQtQt.CQt.A.f.f.f.f.y.b#MQtQtQtQtcqQtcrcsctcucvQt.C.C.CcwcxcyczcA.f.z.#.g.n.j.a.a.T.n.n.n.J.o.o.t.u.u.u.Z.q.q.p.w.w",
".CQtQtQtQtQtQtQt.#Qt.m.f.f.f.f.f.f.b.C.C.C.CcBcCQtcDcEcFcGcHQtQtQtQtcIcJcK.fcL.f.j.h.b.U.f.T.a.a.T.T.n.t.t.t.t.u.u.u.Z.r.q.e.w.w",
"Qt.CQtQtQtQtQtQtQtQt.c.f.f.f.f.f.f.y.#.C.CQtcMcNQtcOcPcQcRcScTQt.#.#cUcVcW.fcX.p.g.g.b.P.U.t.T.T.n.n.t.t.u.Z.u.u.u.u.Z.q.w.e.w.w",
"QtQtQtQtQtQtQtQtQt.#.a.f.f.f.f.f.f.A.#.C.C.CcYcZQtc0.Cc1c2c3c4.#c5c6c7c8c9.Ad.d#.hda.g.b.q.d.T.n.n.n.t.t.t.t.u.Z.u.u.Z.v.p.p.w.w",
".i.DQtQt.DQtQtQtQtQt.i.q.f.f.f.f.f.b.C.C.CQtdbdcQtdd.Cdedfdgdh.#didjdkdldmdndodp.gdq.g.k.a.d.T.n.n.t.t.t.n.t.Z.Z.u.u.Z.q.q.q.p.q",
".D.D.DQtQt.DQtQt.i.C.C.i.e.f.V.f.7.i.C.CQtQtdrdsdtdudvdwdxQtdy.#dzdAdBdCdDdEcbdF.gdG.k.k.a.a.T.n.n.t.t.n.n.Z.u.u.t.u.Z.b.v.q.v.b",
".i.i.D.D.D.D.D.D.i.i.C.C.i.I.c.m.i.D.D.C.C.CdHdIdJdKdLdMdNQtdO.#dPdQdRdSdTdU.kdV.adW.k.a.a.m.n.n.t.t.t.u.t.u.t.t.u.Z.b.b.b.b.b.Z",
".i.i.i.D.i.I.c.i.i.iQtQtQt.i.D.D.i.D.DQtQtQtdXdYdZd0d1d2dd.#d3.hd4d5d6d7d8d9.ae..le#.a.a.m.n.n.n.t.t.n.u.Z.u.t.t.u.Z.b.b.b.b.Z.b",
".i.i.i.d.e.x.A.cQtQtQtQt.i.i.D.D.D.D.DQtQtQteaebec.#ed.#dZeeefegeheiejekelem.aeneoepeq.a.n.n.n.n.n.t.t.t.t.t.t.t.u.u.b.b.b.b.Z.b",
".g.g#M.y.f.f.s.e.kQt.i.i.i.i.i.D.D.D.DQtQt.#erdcesQtcS.#eteuevew.gexeyezeAeBeCeDeEeFeG.d.n.n.n.n.n.t.t.t.t.t.J.t.t.u.Z.b.b.b.b.b",
".i.I.UeH.G.P.P.s.d.i.i.i.i.i.i.i.i.i.i.#QtQteIeJeK.#d3.geLeMeNeN.geOePeQeReSeTeUeAeVeW.T.n.n.n.n.n.b.A.b.t.t.t.t.u.u.u.b.Z.Z.b.b",
".d.UaIayaq.P.P.P.I.i.i.i.g.i.D.D.i.i.#.#.#.DeXeYeZ.#e0e1.he2e3e4.ge5e6e7e8e9f.f#fa.afb.T.n.n.n.n.t.U#U.P.o.o.o.t.t.Z.u.Z.Z.Z.Z.Z",
".A.Uayaqaq.UeH.y.l.l.g.g.g.i.i.i.i.i.#.#.i.ifcfdfefffgfh.gfi.gfj.afkflfmfnfofpfqfrfsft.n.n.n.n.n.n.f#U#U.q.t.ofu.u.Z.Z.Z.Z.Z.Z.Z",
"a0aY.UayeHayaI.p.e.P.p.l.g.b.t.g.i.i.i.i.ifvfwfxfyfzfAdW.kfB.kfC.afDfEfFfGfHfIfJfKfLfMfN.n.n.n.I.n.tayfOay.Z.u.u.u.Z.Z.Z.Z.Z.t.t",
"fPaZfPaIaIfQ.ffR.UaYaY.b.k.n.k.g.g.g.g.i.ifSfTfU.gfV.gfW.gfXfYfZf0f1f2f3f4.pf5.af6f7f8f9.n.n.n.n.n.t.Pg.ay.u.t.u.u.Z.Z.Z.Z.t.t.b",
"g#gagbgaaIaY.c.m.f.UaY.r.a.a.k.k.k.g.g.g.igcdWgd.gge.ggf.Tggghgi.Tgjgkglgm.rfL.xgngogpgqgr.n.n.n.t.u.B.e.b.t.t.u.u.Z.Z.t.Z.t.t.t",
".yaRgaa0gs.o.T.T.t.y.w.T.d.d.k.k.k.g.g.g.ggtgugv.jgw.kgxgygzgAgB.TgCgDgEgFgGgHgIgJgKgLgMgN.J.n.t.u.u.u.u.u.u.u.u.u.Z.Z.b.Z.t.c.u",
".ZgOgO.x.t.n.z.T.T.T.a.a.d.a.k.k.k.l.g.g.ggwgPgQ.TgR.TgSgTgUgV.T.dgRgWgXgYgZg0gIg1g2g3g4g5g6.J.t.t.t.u.u.u.u.Z.Z.Z.t.Z.b.b.Z.u.u",
".b.b.Z.n.t.o.n.n.T.T.d.d.a.a.a.a.a.a.a.q.ag7g8g9.Th..nh#ha.nhb.m.mhchdhegrhfhghhfOhihjhkhlhm.u.t.t.u.Z.Z.Z.Z.Z.Z.t.Z.t.b.b.b.b.b",
".A.r.b.Z.t.Z.t.t.t.T.T.T.T.d.d.a.a.a.T.e.nhnhohp.nhn.Jhqhr.nhsht.nhuhvhw.Ihxhyhzg.hAhBhC.chD.u.u.u.u.Z.Z.Z.Z.Z.Z.Z.t.Z.b.q.e.q.b",
".s.e.r.Z.u.b.b.b.Z.n.T.T.n.d.d.d.a.a.d.d.ag5hEhFhGhH.ug6hH.JhIhq.IhJhKhL.IhMhNhO.PhPhQ.x.uhRhS.u.u.Z.Z.Z.Z.Z.b.Z.Z.Z.b.b.eg.aq.p",
".f.s.e.p.b.p.b.b.b.t.t.I.m.d.d.m.m.m.m.m.nh.hThUhVhW.b.uhX.t.t.J.IhYhIhZ.Ih0hXh1.Jh2h3.u.uh4h5.u.Z.Z.Z.Z.Z.Z.b.b.b.b.b.b.w.P.A.r",
".P.s.e.qh6.e.b.Z.Z.u.u.t.t.I.m.m.m.m.m.n.th7h8hOh9i..b.bi#.u.t.t.t.I.t.tia.c.t.t.u.uib.B.b.bic.b.q.r.b.b.Z.b.b.b.b.b.b.q.q.q.r.r",
"aIeH.fid.Aid.w.b.b.r.b.b.Z.u.t.u.n.J.n.t.tieifigihii.q.r.q.r.u.t.tia.t.c.c.t.t.u.b.B.B.r.q.rij.q.q.q.p.q.b.r.r.r.b.b.b.b.b.r.r.r"};
