/* XPM */
static char *dummy[]={
"64 64 482 2",
".E c #87b0f2",
".C c #87b1f2",
".X c #88b0f2",
"Qt c #88b1f2",
".D c #88b2f2",
"dW c #89b1f1",
".# c #89b1f2",
".i c #89b2f2",
"bl c #89b2f3",
".h c #8ab1f2",
".g c #8ab2f2",
"## c #8ab2f3",
".l c #8ab3f2",
".K c #8ab3f3",
".k c #8bb2f2",
"aI c #8bb2f3",
".a c #8bb3f2",
".j c #8bb3f3",
".Q c #8bb4f3",
"#. c #8cb3ee",
".d c #8cb3f2",
".R c #8cb3f3",
"en c #8cb4ea",
".m c #8cb4f2",
".z c #8cb4f3",
".V c #8db3f2",
".I c #8db4f2",
".n c #8db4f3",
"fD c #8db5f2",
".J c #8db5f3",
"fj c #8eb4e8",
"#p c #8eb4f2",
".o c #8eb4f3",
".c c #8eb5f2",
".t c #8eb5f3",
"dO c #8eb6f3",
"fq c #8fb4f3",
"ak c #8fb5eb",
".Y c #8fb5f2",
".u c #8fb5f3",
"aJ c #8fb6e7",
"#3 c #8fb6e8",
"fa c #8fb6f0",
".W c #8fb6f2",
".U c #8fb6f3",
"bq c #909459",
"bH c #90945a",
".N c #90b5f2",
".B c #90b5f3",
".7 c #90b6e5",
"fv c #90b6f2",
".b c #90b6f3",
"dJ c #90b7e1",
"#n c #90b7e8",
".v c #90b7f3",
".r c #91b6f3",
".Z c #91b7e2",
"ds c #91b7e3",
".q c #91b7f3",
"fE c #91b8f3",
"br c #92995e",
"aH c #92b7e7",
".p c #92b7f3",
"e6 c #92b8de",
"#H c #92b8e4",
"e2 c #92b8e8",
".w c #92b8f3",
".H c #93b7f3",
".e c #93b8f3",
"fF c #93b9f3",
"#X c #94b8dd",
".x c #94b8f3",
"#j c #94b9db",
".A c #94b9f3",
"dA c #95b9da",
".y c #95b9f3",
"eU c #95bad7",
"eV c #95bad9",
"d0 c #95baea",
".s c #95baf3",
".1 c #95bbd6",
".F c #96b9f3",
"fd c #96bad8",
"dV c #96bad9",
".f c #96baf3",
"fA c #96baf4",
".T c #96bbf3",
"a1 c #97baeb",
".G c #97baf3",
"fC c #97baf4",
"#q c #97bbd3",
"a2 c #97bbd7",
".P c #97bbf3",
".M c #98baf3",
"ej c #98bbd4",
"ff c #98bbd6",
".S c #98bbf3",
"ch c #98bbf4",
"d7 c #98bcd5",
"fo c #98bcf3",
"fr c #98bcf4",
"fp c #99bbf3",
"af c #99bcd2",
"bk c #99bcf3",
"cg c #99bcf4",
"bD c #9abcf3",
"bW c #9abcf4",
"do c #9abdcf",
"al c #9abdd5",
"eI c #9abdd8",
"fB c #9abdf3",
"ft c #9abdf4",
"fu c #9bbcf3",
"fx c #9bbcf4",
"fb c #9bbdcf",
"#I c #9bbdf3",
"fy c #9bbdf4",
"e7 c #9bbecd",
"fs c #9bbef3",
"eb c #9cbecf",
"fw c #9cbef3",
"cO c #9dbece",
"#o c #9dbef3",
"fg c #9dbfe0",
"fz c #9dbff4",
"fk c #9ebfc9",
"e9 c #9ebfd9",
".O c #9ebff3",
".L c #9fc0f3",
"fc c #a0c1c4",
".6 c #a0c1cb",
"cl c #a1c1c2",
"bw c #a1c2c0",
"eT c #a1c2c8",
"fn c #a1c2d5",
"fe c #a2c2c0",
"bI c #a3a856",
"e. c #a4c3c3",
"#C c #a4c4bb",
"c9 c #a5c4b7",
"cC c #a5c4b8",
"dK c #a5c4ba",
"fi c #a5c4d1",
"#g c #a5c5b8",
"dF c #a5c5bb",
"dT c #a6c5b6",
"cZ c #a6c5bb",
"#c c #a6c6b6",
"b3 c #a6c6b7",
"bz c #a7c5b6",
"c5 c #a7c6b5",
"f. c #a8c6c9",
"e8 c #a8c7b2",
"eJ c #a8c7b3",
".2 c #a9c7b0",
"ev c #a9c7b8",
"dy c #a9c8b0",
"dE c #a9c8b1",
"e4 c #a9c8b8",
"df c #aac7b3",
"cL c #aac7bb",
"cS c #aac8ad",
"d6 c #aac8ae",
"#A c #aac8af",
"bK c #aac8b0",
"#4 c #aac8b1",
"dg c #aac8b2",
"#a c #abc8ad",
"eG c #abc8b4",
"#W c #abc9ac",
".4 c #abc9ad",
"fm c #abc9b7",
".3 c #acc9aa",
"eW c #acc9ab",
"fl c #acc9ac",
"de c #acc9ad",
"da c #adc9aa",
"eX c #adcaa8",
"aj c #adcaaa",
"dL c #adcaab",
"eH c #adcab0",
"d9 c #adcab5",
"dj c #adcba7",
"cF c #aecaa6",
"#r c #aecaa8",
"eq c #aecba5",
"ee c #aecba6",
"c0 c #aecbaa",
"dH c #afcba5",
"cy c #afcba7",
"eY c #afcbb6",
"be c #afcca4",
"c2 c #b0cba7",
"bN c #b0cca3",
"eS c #b0cca9",
"bG c #b1c998",
"b7 c #b1cca0",
"b# c #b1cca2",
"#2 c #b1cca3",
"c3 c #b1cca4",
"aK c #b1cca5",
"dc c #b1cda4",
"e0 c #b1cdb5",
"dw c #b2cd9f",
"c# c #b2cda1",
"du c #b2cda2",
"#G c #b2cda3",
"dU c #b3ce9c",
"#B c #b3ce9d",
"aB c #b3ce9e",
"aL c #b3cea0",
"#m c #b3cea1",
"ey c #b3cea2",
"el c #b3cea3",
"eo c #b3cf9b",
"eh c #b4ce9a",
"bP c #b4ce9c",
"cr c #b4cf9b",
"#K c #b5cf97",
"aP c #b5cf98",
"e5 c #b5cf99",
".0 c #b5cf9a",
"dt c #b5cf9b",
"dr c #b5cf9c",
"cN c #b5cfa4",
"ez c #b6d096",
"#b c #b6d097",
"ea c #b6d098",
".9 c #b6d09a",
"d8 c #b6d09d",
"am c #b7d099",
"aG c #b7d0a1",
"cE c #b7d194",
"#J c #b7d195",
"dd c #b8d195",
".8 c #b8d196",
"em c #b8d199",
"cQ c #b9d191",
"az c #b9d193",
"c1 c #b9d196",
"eE c #b9d1a3",
"bC c #b9d1a5",
"co c #b9d28f",
"#u c #b9d291",
"aU c #b9d292",
"cA c #b9d293",
"ed c #b9d297",
"cU c #bad290",
"dP c #bad297",
"fh c #bad29f",
"eP c #bad2a0",
"eQ c #bad2a1",
"#s c #bad38e",
"bQ c #bad38f",
"eD c #bad396",
"dk c #bbd38d",
"eK c #bbd38e",
"cj c #bbd38f",
"bZ c #bbd390",
"bS c #bbd39c",
"d1 c #bbd39e",
"a0 c #bbd3a0",
"bj c #bbd3a1",
"c8 c #bbd48c",
"a6 c #bbd48f",
"bX c #bbd490",
"cX c #bcd38d",
".5 c #bcd48b",
"cV c #bcd48c",
"dN c #bcd48e",
"ek c #bcd48f",
"ae c #bdd48a",
"ac c #bdd48b",
"dp c #bdd48c",
"d2 c #bdd496",
"e1 c #bdd499",
"cx c #bdd49e",
"dG c #bdd589",
"aq c #bed586",
"eC c #bed587",
"#i c #bed588",
"aT c #bed589",
"ex c #bed58d",
"eF c #bed596",
"f# c #bed598",
"eB c #bed686",
"#N c #bfd685",
"dq c #bfd688",
"dR c #bfd68d",
"cM c #bfd692",
"bA c #bfd693",
"dv c #c0d683",
"dz c #c0d684",
"bV c #c0d697",
"#d c #c0d782",
"cG c #c0d783",
"ci c #c0d786",
"a8 c #c1d780",
"d. c #c1d781",
"es c #c1d782",
"a3 c #c1d783",
"dZ c #c1d784",
"#e c #c1d880",
"b2 c #c1d882",
"aO c #c2d87e",
"cH c #c2d880",
"bF c #c2d882",
"db c #c3d87e",
"e3 c #c3d882",
"#f c #c3d97c",
"#L c #c3d97d",
"ck c #c3d97e",
"ao c #c3d97f",
"ab c #c4d97b",
"dn c #c4d97c",
"cI c #c4d97d",
"#l c #c4d97f",
"#t c #c4da7b",
"#7 c #c5da78",
"by c #c5da79",
"#k c #c5da7b",
"eg c #c5db78",
"cb c #c6da78",
"au c #c6db77",
"cP c #c6db78",
"dC c #c6db79",
"bv c #c6db7b",
"d5 c #c7db75",
"bd c #c7db76",
"#v c #c7db77",
"#F c #c7db79",
"eL c #c7dc74",
"dm c #c7dc75",
"d# c #c8dc72",
"ei c #c8dc74",
"bn c #c8dc75",
"an c #c8dc76",
"cu c #c9dc72",
"cY c #c9dc73",
"bm c #c9dc74",
"aD c #c9dc7a",
"ep c #c9dd70",
"b9 c #c9dd71",
"bM c #c9dd72",
"eR c #c9dd74",
"cc c #c9dd76",
"dI c #cadd6f",
"#h c #cadd70",
"ca c #cadd71",
"cf c #cadd7d",
"#8 c #cade6e",
"#5 c #cade6f",
"#S c #cbde6d",
"cK c #cbde6e",
"dD c #cbde70",
"bB c #cbde79",
"dh c #ccde6c",
"ec c #ccde6f",
"eu c #ccde74",
"e# c #ccdf6a",
"cW c #ccdf6b",
"aQ c #ccdf6c",
"aM c #ccdf6d",
"eO c #ccdf74",
"bU c #ccdf76",
"dx c #cddf69",
"#R c #cddf6a",
"#y c #cde068",
"eA c #cde069",
"dY c #cde06a",
"b. c #cee067",
"bY c #cee068",
"dM c #cee069",
"b6 c #cee06a",
"di c #cfe066",
"aV c #cfe067",
"ew c #cfe068",
"aX c #cfe070",
"cn c #cfe165",
"bO c #cfe166",
"d3 c #cfe167",
"aw c #d0e164",
"dX c #d0e165",
"ef c #d0e262",
"er c #d0e263",
"b1 c #d0e264",
"aa c #d1e261",
"bb c #d1e262",
"cs c #d1e263",
"bE c #d1e264",
"a5 c #d2dd45",
"b4 c #d2df54",
"dl c #d2e260",
"#Y c #d2e261",
"dQ c #d2e267",
"cw c #d2e26a",
"av c #d2e35f",
"ag c #d2e360",
"bJ c #d2e361",
"bg c #d2e367",
"d4 c #d3e35d",
"cT c #d3e35e",
"a. c #d3e35f",
"#Q c #d3e360",
"bi c #d3e367",
"dS c #d3e45c",
"bs c #d3e45d",
"dB c #d3e45e",
"#V c #d4e45b",
"#T c #d4e45c",
"cJ c #d4e45d",
"bp c #d4e45e",
"et c #d4e460",
"aZ c #d4e463",
"ad c #d5e45b",
"cv c #d5e45f",
"#6 c #d5e559",
"cz c #d5e55a",
"bf c #d5e55d",
"aN c #d5e55e",
"aW c #d5e55f",
"bx c #d6e558",
"eN c #d6e55d",
"a9 c #d6e656",
"ar c #d6e657",
"#D c #d6e658",
"bR c #d6e659",
"cd c #d6e65e",
"aR c #d7e655",
"ax c #d7e656",
"#O c #d7e658",
"cm c #d8e655",
"eZ c #d8e65a",
"b8 c #d8e753",
"#P c #d8e754",
"bL c #d8e756",
"a# c #d9e752",
"#1 c #d9e753",
"cp c #d9e851",
"eM c #d9e852",
"aC c #d9e853",
"c. c #dae84f",
"bt c #dae850",
"ct c #dae851",
"a7 c #dbe94d",
"ap c #dbe94e",
"#0 c #dbe94f",
"#9 c #dce94c",
"#E c #dce94d",
"aF c #dce951",
"b5 c #dcea4b",
"#z c #ddea49",
"#M c #ddea4a",
"bu c #ddea4b",
"c6 c #deeb47",
"#w c #deeb48",
"ai c #deeb49",
"aA c #dfeb47",
"bT c #dfeb4a",
"#x c #dfec45",
"aY c #dfec49",
"ah c #e0ec43",
"#Z c #e0ec44",
"a4 c #e0ec45",
"aE c #e0ec46",
"ce c #e0ec47",
"bc c #e1ed41",
"cD c #e1ed42",
"ay c #e1ed43",
"#U c #e2ed40",
"at c #e2ee40",
"cR c #e3ee3d",
"b0 c #e3ee3e",
"ba c #e3ee3f",
"bh c #e3ee40",
"as c #e4ef3b",
"c4 c #e4ef3c",
"bo c #e4ef3d",
"c7 c #e5ef3a",
"cB c #e5f03a",
"cq c #e6f038",
"aS c #e6f039",
"QtQtQt.#.a.b.c.d.a.e.f.f.f.f.f.f.c.#.g.g.h.#.#QtQtQtQtQtQtQtQt.#.a.a.#.#.#.i.g.g.g.j.j.j.j.g.k.l.l.m.n.n.o.b.b.b.b.p.q.b.p.r.p.e",
"QtQtQt.#.#.#.#.#Qt.g.q.s.f.f.f.f.c.#.#.#.#.#.#QtQtQtQtQtQtQt.#.q.s.f.p.#.#.#.#.#.#.g.j.j.g.j.g.h.l.a.a.a.m.n.t.u.b.b.v.b.q.q.w.x",
"QtQtQtQtQt.#.#.#QtQt.#.g.l.a.q.c.#.#Qt.#.#.#QtQtQtQtQtQtQtQt.r.y.y.f.f.u.#.#.#.#.h.g.g.g.g.g.g.h.g.l.a.g.a.z.o.t.b.b.b.b.q.q.w.A",
"QtQtQtQtQtQtQtQtQt.#.#.#.#.#.#.#.#.#.#.#QtQtQtQtQtQt.#QtQt.#.e.y.y.f.s.x.g.#.#.#.#.g.g.g.g.h.#.h.h.g.a.a.a.m.n.o.o.B.b.b.b.r.w.w",
".CQtQtQtQtQtQt.D.D.i.i.#Qt.#.#.#.#.#.#.#QtQtQtQtQtQtQtQtQt.E.b.y.F.f.f.e.#.#.#.#.i.b.A.x.m.h.h.g.h.h.g.a.k.a.m.n.n.o.u.b.q.p.q.q",
"QtQtQt.CQt.CQtQtQt.i.D.DQtQtQtQtQtQtQtQtQtQt.CQtQt.C.C.C.E.E.g.e.y.y.x.aQt.#.#.#.m.f.f.G.s.m.h.g.h.#.#.g.g.a.d.m.n.n.t.b.b.q.r.q",
"Qt.C.C.C.C.CQtQtQtQtQtQt.C.CQt.#.#QtQtQtQtQtQtQt.b.A.H.d.C.C.C.I.b.I.iQtQtQt.#.#.m.f.f.f.f.y.g.h.#.h.#.g.g.l.m.m.n.n.n.J.t.r.r.s",
".C.C.C.C.C.CQtQtQtQtQtQtQt.CQtQt.#QtQtQtQtQt.g.H.f.y.y.x.I.C.CQtQt.E.EQt.CQtQtQt.i.s.f.f.f.f.H.e.p.K.#.g.g.l.d.m.n.n.n.t.t.u.e.L",
".E.C.C.CQtQtQtQtQtQtQtQtQtQt.EQtQtQtQtQtQtQt.q.G.f.f.f.y.s.g.C.C.C.C.E.EQtQt.#.#.#.v.f.f.f.f.f.f.M.N.#.g.g.g.d.n.n.n.n.t.t.t.e.O",
"QtQt.E.EQtQtQtQtQtQtQtQtQtQtQt.CQtQtQtQtQt.g.A.y.P.P.P.P.G.k.C.C.C.CQtQtQt.#.#QtQt.g.x.f.f.f.f.M.f.Q.g.g.g.g.k.d.R.n.n.n.t.t.u.S",
"QtQtQtQtQtQtQtQtQtQtQtQtQtQtQtQtQtQtQtQtQtQt.e.T.G.P.G.P.f.l.C.C.C.C.CQtQtQtQtQtQt.#.g.q.x.q.H.e.I.i.g.g.g.g.k.k.m.n.n.J.t.t.u.U",
"QtQtQt.CQtQtQtQtQtQtQtQtQtQtQtQtQtQtQtQtQtQt.V.f.G.P.S.P.WQt.X.E.C.CQtQtQt.E.EQt.#.#.#.#.#.#.#.#.g.#.g.g.j.j.g.m.n.n.n.t.t.u.U.U",
"Qt.#QtQtQtQtQtQtQt.iQtQtQtQtQtQtQtQtQtQtQt.CQt.d.e.T.f.YQtQt.X.E.C.C.CQt.#.m.EQt.#.#.#Qt.#.#.#.#.#.i.g.g.j.j.R.m.n.n.n.t.t.t.u.U",
"QtQtQt.#QtQt.#QtQtQt.#QtQtQtQtQt.#.#.#QtQt.X.X.#.#.m.g.#.#.X.X.C.C.C.C.#.p.s.U.#.#.#.#.#.#.#.#.#.i.i.i.g.R.j.R.R.n.n.t.t.t.t.U.U",
"QtQtQtQtQtQt.#.#QtQt.#QtQtQtQtQtQt.#Qt.#.i.#.#QtQt.#.#.#Qt.X.C.C.C.C.C.g.y.s.H.#.#.#.#.#.#.h.i.i.g.Z.0.g.R.R.R.R.z.n.t.t.t.u.u.u",
"QtQtQtQtQtQtQtQt.iQt.i.#.g.i.#.#QtQt.E.i.#.g.#.#.X.XQt.#.X.C.C.1.2.3.4.5.6.p.I.i.#.#.#.h.#.#.g.g.7.8.9#..k.j.R.d.m.n.t.t.u.u.U.A",
"QtQtQtQtQtQtQtQt.#.g.i.g.g.g.g.i.#.#Qt.#.g##.g.#.#Qt.CQt.E#a#b#c#d#e#f#g#h#i#j.#.#.#.#.#.#.h.h.g#k#l#m#n.k.g.j.R.m.I.t.t.t.t.x#o",
"#p.#.C.C.CQtQt.i.g.g.g.g.g.i.g.g.g.i.#.g######.#Qt#q#r#s#t#u#v#w#x#y#z#i#A#B#C.#.#.#.#.#.#.#.h#D#E#F#G#H.a.a.R.R.m.I.I.t.o.u.q#I",
".x.I.#.C.CQt.#.g.a.g.g.g.g.g.i.g.g.g.g########.##J#K#L#M#N#O#P#Q#R#S#T#U#z#V#W.#.#.#.#.#.##X#Y#Z#0#1#2#3.a.a.a.a.n.n.n.n.n.J.u.u",
".I.gQtQtQtQt.i.g.g.g.g.g.g.g.g.g.g.#.k.j.j###4#v#5#6#x#7#8#9#9a.a#aaab#9acadae#r.#.#.#.#afagaha.#0aiajak.R.a.l.d.R.n.n.n.n.n.o.t",
"QtQtQtQtQt.#.g.g.g.g.g.g.g.g.g.g.g.g.k.jalamanaoapapaqarasatauavaw#6axayazaAaB#r.#.#.#.ZawaraCaDaEaFaGaH.a.d.d.R.n.n.n.n.n.n.o.n",
".E.E.EQtQt.#.g.h.g.g.g.g.g.g.kaIaI.gaJaKaLaMaNataaaOaw#xahaPapaQaRax#9aSaTaSaUacQt.#.#aV#haxaWaXaYaZa0a1.R.k.d.R.n.n.n.o.t.o.n.J",
".E.E.X.#.#.g.g.g.#.g.#.#.g.gaI.jaIa2a3ana4#0a5a6#raa#9a7a8#Ma9a9b.b##wbabbbcb#bd.#.#beawbbbfbgaEbhbibjbk.e.n.k.n.n.n.n.o.n.n.o.o",
".E.E.XQt.#.#.h.h.g.#.#.#.i.ibl####bmbnbobpaibqbrbs#Pa7#8btbubv#8bwbba#bxbtaAb#by.#bzbsbubobfbAaybhbBbCbDbk.G.fbk.y.n.n.o.n.o.t.t",
".E.E.X.#.#.h.h.h.#.g.h.h.gblbl##bEbF#9ax#wbGbHbIap#wbJ#EbubKbL.5ar#9apbMapaxbNbObPbQ#1bc#xbRbSbTbabUbVbWbDbkbkbD#I.p.n.o.n.n.o.t",
"Qt.E.X.g.#.h.h.#.#.#.#.g######bXbYbZb0b1b2b3b4#6b5ar#xb6b7b8bsa#bobsaxb9bxc.c#caab#wbccbcabxcccdcecfbVcgch.Sbk#I#I.y.n.n.n.n.n.t",
"Qt.C.#.#.#.h.h.h.h.#.i.g######cibn.9cjckclcmcnaxa4cn#Nco#wcp#hcq#sb5a7cr#kap#6csc.#Uctcubnb.agcvcwbicxch.U.tbk#I#I.q.n.z.n.n.n.o",
"QtQt.#.#.g.g.g.g.h.h.h.gaI####.8cycz#2cA#w#hbxcB#w.3cCas#McpcDc.cE#9#ZcFcGb5aV#1bxcHcbapcIcJb1cKcLcMcN.t.a.j.v.f.p.n.n.z.n.n.n.n",
"QtQt.#.i.g########.g.gaI.j.j##bZancO.8btaVa.c.cPcQ#7avaScRbt#V#9aaap#xcSawcTcU#RcVcWcXaVaTagcYcscZc0c1.d.R.R.R.R.R.n.n.n.n.n.n.n",
"QtQtQt.i.g####.K.K##.K.K.j.j.Kc2cAc3c3c4c.bsa7ckc5axc6c7avb9aQ#Zc8cp#wc9#Rcud.d#.#dadbawdbbMbb#0dcc3dd.d.R.R.R.R.n.n.n.n.n.n.t.t",
"QtQtQt.#.g####.K.K######.K.K##dedfdgbY#U#zbo#6#udh#Zaydidj#6diaydk#P#6.3dl#7dmdn.#.#dobnaddpbu#Pcidqdr.R.k.R.z.z.n.n.n.n.t.t.t.t",
"QtQtQt.#.g####.K.K############dsdtduaxapaycR#Ub8dv#wcndwb8.0ar#6dxb.b8#s#ydydzcV.#.#.#dAdB#6#SdCdDbncj.R.d.R.R.n.n.n.n.n.J.t.U.b",
"QtQtQt.#.i.h##.K.K##############dEdFbJdGctc6bcbdb0#hdHb8#L#Sbxb8dIb9cn#N#7dJcHdK.#.#.#.#dLdM#P#EbO.8dN.R.n.n.n.n.n.n.n.tdO.U.U.b",
"QtQtQtQt.#.g.h############.g.h.#.#dPdQdRbab0dIahdSdTag#wdUbMb8b9d#aab5a.bydVcadW.#.#.#.#.g#vdXb8btdYdZ.n.n.n.n.n.n.t.u.W.Y.b.b.v",
"QtQt.i.iQt.#.i.g.g.g##.g.#.#.#Qt.Xd0d1d2d3b.b9as#N#jba#Va#apaad4cub5#Rd5axbNckd6.#.g.g.h.gd7aQa3btdXd8.n.n.n.n.t.t.t.b.U.b.b.v.q",
".i.i.iQtQtQt.#Qt.i.i.i.#Qt.X.X.XQt.Id9e.awe#b5cnaw.5dz#wb5aad#c.c.at#9#P#Pcsb.ea.#.#.g.g.g.gebb6dreced.n.n.n.n.J.t.u.b.b.b.q.q.q",
".i.i.iQtQt.#QtQt.#QtQtQt.X.EQt.E.u.e.gee#WbM#L#NefbM#9#Zawegdjehbc#xcpeiawd3ej.#.h.#.g.g.j.j.aek#melem.n.n.n.n.o.J.U.b.b.q.v.q.w",
".i.iQtQtQtQt.#QtQtQtQt.CQt.b.b.d.x.f.qeneodo#i#6#zbtb5#Sepdjeq.2cDarereseteuev.#.h.#.h.g.j.g.a.dewexey.n.n.o.o.o.t.u.b.v.q.q.q.w",
"QtQtQtQtQtQtQt.CQtQtQt.#.q.s.s.H.x.f.HQtQtbe.4aOa#cBb5ezeAegeBeC#6dmapeDaFeEeF.n.#.h.i.g.g.g.d.keGcJeHeI.n.o.t.t.t.U.r.v.q.q.p.w",
"QtQtQtQtQtQtQtQt.C.C.C#p.f.f.f.f.p.s.HQtQtQteJ.0eK#9btata9apaaeLapbyeMeNeOePeQ.y##.g.g.g.g.a.a.R.neReSeT.n.o.o.t.u.U.b.q.q.p.e.e",
"QtQtQtQtQtQtQtQtQt.CQt.A.f.f.f.f.y.b#pQtQtQtQteUbPbeeVeWcWeA#aaaeXdmaweYeZe0e1.f.z.#.g.n.j.a.a.R.ne2e3e4.o.o.t.u.u.u.U.q.q.p.w.w",
".CQtQtQtQtQtQtQt.#Qt.m.f.f.f.f.f.f.b.C.C.C.C.CQtQtdo#Ae5bKe6e7dk.3e8#Te9f..ff#.f.j.h.b.S.f.R.a.a.R.R.nfa.t.t.t.u.u.u.U.r.q.e.w.w",
"Qt.CQtQtQtQtQtQtQtQt.c.f.f.f.f.f.f.y.#.C.CQt.C.CQtQt.C.#fbdH#bb#fcfdfefffgfhfi.p.g.g.b.P.S.t.R.R.n.n.t.t.u.U.u.u.u.u.U.q.w.e.w.w",
"QtQtQtQtQtQtQtQtQt.#.a.f.f.f.f.f.f.A.#.C.C.C.C.CQtQt.CQtQt.#.#fjfk#adaflfmfn.p.g.h.g.g.b.q.d.R.n.n.n.t.t.t.t.u.U.u.u.U.v.p.p.w.w",
".i.DQtQt.DQtQtQtQtQt.i.q.f.f.f.f.f.b.C.C.CQt.C.CQtQt.C.C.E.#.#.#.#.#.#.#.#.h.h.g.g.k.g.k.a.d.R.n.n.t.t.t.n.t.U.U.u.u.U.q.q.q.p.q",
".D.D.DQtQt.DQtQt.i.C.C.i.e.f.T.f.Y.i.C.CQtQt.E.E.CQtQtQt.CQtQt.#.h.#.#.#.i.g.g.k.g.g.k.k.a.a.R.n.n.t.t.n.n.U.u.u.t.u.U.b.v.q.v.b",
".i.i.D.D.D.D.D.D.i.i.C.C.i.I.c.m.i.D.D.C.C.C.CQt.C.#.#.CQtQtQt.#.h.#.g.g.g.g.k.a.a.k.k.a.a.m.n.n.t.t.t.u.t.u.t.t.u.U.b.b.b.b.b.U",
".i.i.i.D.i.I.c.i.i.iQtQtQt.i.D.D.i.D.DQtQtQt.C.C.#.#.#Qt.#.#.#.h.h.#.g.g.g.g.a.a.l.a.a.a.m.n.n.n.t.t.n.u.U.u.t.t.u.U.b.b.b.b.U.b",
".i.i.i.d.e.x.A.cQtQtQtQt.i.i.D.D.D.D.DQtQtQtQtQtQt.#.#.#.#.h.g.h.h.g.g.g.k.g.a.a.a.a.a.a.n.n.n.n.n.t.t.t.t.t.t.t.u.u.b.b.b.b.U.b",
".g.g#p.y.f.f.s.e.kQt.i.i.i.i.i.D.D.D.DQtQt.#.#QtQtQt.#.#.h.g.g.h.g.g.g.g.k.k.a.a.d.d.d.d.n.n.n.n.n.t.t.t.t.t.J.t.t.u.U.b.b.b.b.b",
".i.I.Sfo.G.P.P.s.d.i.i.i.i.i.i.i.i.i.i.#QtQt.i.#.#.#.#.g.g.g.g.g.g.g.g.g.k.a.k.a.a.d.d.R.n.n.n.n.n.b.A.b.t.t.t.t.u.u.u.b.U.U.b.b",
".d.SbDbkfp.P.P.P.I.i.i.i.g.i.D.D.i.i.#.#.#.D.i.i.#.#.g.g.h.h.g.g.g.a.a.g.k.a.a.a.a.a.d.R.n.n.n.n.t.S#I.P.o.o.o.t.t.U.u.U.U.U.U.U",
".A.Sbkfpfp.Sfo.y.l.l.g.g.g.i.i.i.i.i.#.#.i.i.i.i.i.g.g.g.g.g.g.k.a.a.a.a.d.a.a.a.a.a.d.n.n.n.n.n.n.f#I#I.q.t.ofq.u.U.U.U.U.U.U.U",
"chfr.SbkfobkbD.p.e.P.p.l.g.b.t.g.i.i.i.i.i.g.i.i.i.g.g.g.k.a.k.R.a.R.a.b.e.o.a.a.a.n.m.I.n.n.n.I.n.tbkfsbk.U.u.u.u.U.U.U.U.U.t.t",
"ftcgftbDbDfu.ffv.Sfrfr.b.k.n.k.g.g.g.g.i.i.i.i.g.g.g.g.g.g.k.R.a.k.R.n.Tfp.p.a.a.u.y.o.I.n.n.n.n.n.t.Pfwbk.u.t.u.u.U.U.U.U.t.t.b",
"fxfyfzfybDfr.c.m.f.Sfr.r.a.a.k.k.k.g.g.g.i.g.g.g.g.g.g.k.R.j.R.R.R.a.R.s.S.r.m.xbk#Ibk.b.I.n.n.n.t.u.B.e.b.t.t.u.u.U.U.t.U.t.t.t",
".ybWfychfA.o.R.R.t.y.w.R.d.d.k.k.k.g.g.g.g.g.g.g.j.k.k.R.R.R.R.n.R.a.a.n.u.m.bfBfB#Ifs.f.J.J.n.t.u.u.u.u.u.u.u.u.u.U.U.b.U.t.c.u",
".UfCfC.x.t.n.z.R.R.R.a.a.d.a.k.k.k.l.g.g.g.g.g.R.R.R.R.R.R.R.n.R.d.d.m.m.a.a.bfB#IfBfs.S.J.J.J.t.t.t.u.u.u.u.U.U.U.t.U.b.b.U.u.u",
".b.b.U.n.t.o.n.n.R.R.d.d.a.a.a.a.a.a.a.q.a.a.R.n.R.R.n.J.z.n.R.m.m.m.m.m.I.m.b#Ifs#Ifsbk.JfD.u.t.t.u.U.U.U.U.U.U.t.U.t.b.b.b.b.b",
".A.r.b.U.t.U.t.t.t.R.R.R.R.d.d.a.a.a.R.e.n.n.n.n.n.n.J.J.n.n.R.n.n.m.m.m.I.I.nbkfwfsfs.P.c.c.u.u.u.u.U.U.U.U.U.U.U.t.U.b.q.e.q.b",
".s.e.r.U.u.b.b.b.U.n.R.R.n.d.d.d.a.a.d.d.a.n.n.n.t.t.u.J.J.J.n.J.I.I.I.I.I.I.J.u.P#IfB.x.u.u.u.u.u.U.U.U.U.U.b.U.U.U.b.b.efwfp.p",
".f.s.e.p.b.p.b.b.b.t.t.I.m.d.d.m.m.m.m.m.n.o.n.J.b.u.b.u.t.t.t.J.I.I.I.I.IfD.J.t.J.b.b.u.u.u.u.u.U.U.U.U.U.U.b.b.b.b.b.b.w.P.A.r",
".P.s.e.qfE.e.b.U.U.u.u.t.t.I.m.m.m.m.m.n.t.t.t.t.b.b.b.b.B.u.t.t.t.I.t.tfD.c.t.t.u.u.u.B.b.b.U.b.q.r.b.b.U.b.b.b.b.b.b.q.q.q.r.r",
"bDfo.ffF.AfF.w.b.b.r.b.b.U.u.t.u.n.J.n.t.t.t.t.b.q.q.q.r.q.r.u.t.tfD.t.c.c.t.t.u.b.B.B.r.q.r.r.q.q.q.p.q.b.r.r.r.b.b.b.b.b.r.r.r"};
