/* XPM */
static char *dummy[]={
"64 64 215 2",
"#R c #597097",
"#n c #5a7098",
"#o c #5a7198",
"#p c #5a7199",
"#E c #5a7299",
"a1 c #5a729a",
"#m c #5b729a",
"aP c #5b739b",
"#l c #5c739c",
"aa c #5c749c",
"#1 c #5c749d",
"#D c #5c759e",
"#q c #5d759e",
"#3 c #5d759f",
"aK c #5d769f",
"#0 c #5d76a0",
"#F c #5e76a0",
"#Q c #5e77a1",
"ah c #5e77a2",
"#. c #5f78a2",
".9 c #5f78a3",
"#k c #6079a4",
"aj c #6179a5",
"#j c #617aa5",
"a7 c #617aa6",
"#i c #617ba7",
"a# c #617ca7",
"aM c #627ba7",
"## c #627ca8",
"#B c #627ca9",
"aq c #627da9",
".8 c #637da9",
"#C c #637daa",
"#s c #637eaa",
"ag c #637eab",
"#V c #637eac",
"#4 c #647eab",
"as c #647eac",
"#G c #647fac",
"#b c #647fad",
"au c #657fad",
"aW c #6580ae",
"#P c #6581af",
"ar c #6582b0",
"#A c #6681af",
"az c #6682af",
"aB c #6682b0",
"a4 c #6683b1",
"aL c #6783b2",
"#r c #6784b3",
"#O c #6884b4",
"ai c #6885b4",
"#S c #6985b3",
"#5 c #6985b4",
"a5 c #6986b6",
"aV c #6986b7",
"#c c #6987b7",
"aX c #6a87b8",
".7 c #6b89ba",
"af c #6b89bb",
"#T c #6c89b9",
"#U c #6c89ba",
"at c #6c8abb",
"aU c #6c8abc",
"a0 c #6c8bbd",
"#a c #6d8abd",
"aA c #6d8bbd",
"ak c #6d8cbe",
"#t c #6d8cbf",
"a2 c #6e8cbf",
".6 c #6e8dbf",
"ab c #6e8dc0",
"#I c #6e8ec1",
"aY c #6f8ec1",
"#N c #6f8ec2",
"#H c #6f90c3",
"aJ c #708ec0",
"aC c #708ec2",
".2 c #708fc2",
"aD c #708fc3",
"aG c #7090c3",
"#W c #7090c4",
"#u c #7091c5",
"#2 c #7190c3",
"#X c #7190c4",
"#6 c #7190c5",
"aF c #7191c5",
"#9 c #7191c6",
"aZ c #7192c6",
"av c #7292c7",
".0 c #7293c8",
".1 c #7393c8",
"al c #7394c9",
"#Z c #7394ca",
".3 c #7494ca",
"#h c #7496cc",
"#z c #7596cc",
"am c #7596cd",
"#v c #7598cf",
"a3 c #7697cd",
"aH c #7697ce",
"ae c #7698cf",
".5 c #7798cf",
"a. c #7799d2",
"a6 c #779ad3",
"aN c #789ad2",
"#y c #799bd3",
"ap c #799cd5",
"aE c #7a9cd5",
"#x c #7a9dd6",
"#Y c #7b9ed9",
"an c #7ca0da",
"a9 c #7ca2dc",
".4 c #7ea3de",
"b. c #7ea4e0",
"#M c #7fa3df",
".Z c #7fa4e0",
"#g c #80a4e0",
"a8 c #80a5e1",
"#8 c #80a6e3",
"#J c #81a7e5",
"#d c #81a9e7",
"bb c #82a9e7",
"b# c #82a9e8",
"bc c #84abe9",
"#7 c #85aceb",
"ad c #85adee",
"aQ c #86adec",
"bd c #86aded",
"ba c #86aff0",
"ay c #86b0f2",
".E c #87b0f2",
".C c #87b1f2",
".X c #88b0f2",
"Qt c #88b1f2",
".D c #88b2f2",
".# c #89b1f2",
".i c #89b2f2",
"ax c #89b2f3",
".h c #8ab1f2",
".g c #8ab2f2",
"#L c #8ab2f3",
".l c #8ab3f2",
".K c #8ab3f3",
".k c #8bb2f2",
"#f c #8bb2f3",
".a c #8bb3f2",
".j c #8bb3f3",
".Q c #8bb4f3",
".d c #8cb3f2",
".R c #8cb3f3",
".m c #8cb4f2",
".z c #8cb4f3",
".V c #8db3f2",
".I c #8db4f2",
".n c #8db4f3",
"bs c #8db5f2",
".J c #8db5f3",
"#e c #8eb4f2",
".o c #8eb4f3",
".c c #8eb5f2",
".t c #8eb5f3",
"be c #8eb6f3",
"bg c #8fb4f3",
".Y c #8fb5f2",
".u c #8fb5f3",
".W c #8fb6f2",
".U c #8fb6f3",
".N c #90b5f2",
".B c #90b5f3",
"bk c #90b6f2",
".b c #90b6f3",
".v c #90b7f3",
"ac c #91b6f2",
".r c #91b6f3",
".q c #91b7f3",
"bt c #91b8f3",
".p c #92b7f3",
".w c #92b8f3",
".H c #93b7f3",
".e c #93b8f3",
"bu c #93b9f3",
".x c #94b8f3",
".A c #94b9f3",
".y c #95b9f3",
".s c #95baf3",
".F c #96b9f3",
".f c #96baf3",
"bp c #96baf4",
".T c #96bbf3",
".G c #97baf3",
"br c #97baf4",
".P c #97bbf3",
".M c #98baf3",
".S c #98bbf3",
"aT c #98bbf4",
"bf c #98bcf3",
"aR c #98bcf4",
"ao c #99bbf3",
"aw c #99bcf3",
"aS c #99bcf4",
"aI c #9abcf3",
"aO c #9abcf4",
"bq c #9abdf3",
"bi c #9abdf4",
"bj c #9bbcf3",
"bm c #9bbcf4",
"#K c #9bbdf3",
"bn c #9bbdf4",
"bh c #9bbef3",
"bl c #9cbef3",
"#w c #9dbef3",
"bo c #9dbff4",
".O c #9ebff3",
".L c #9fc0f3",
"QtQtQt.#.a.b.c.d.a.e.f.f.f.f.f.f.c.#.g.g.h.#.#QtQtQtQtQtQtQtQt.#.a.a.#.#.#.i.g.g.g.j.j.j.j.g.k.l.l.m.n.n.o.b.b.b.b.p.q.b.p.r.p.e",
"QtQtQt.#.#.#.#.#Qt.g.q.s.f.f.f.f.c.#.#.#.#.#.#QtQtQtQtQtQtQt.#.q.s.f.p.#.#.#.#.#.#.g.j.j.g.j.g.h.l.a.a.a.m.n.t.u.b.b.v.b.q.q.w.x",
"QtQtQtQtQt.#.#.#QtQt.#.g.l.a.q.c.#.#Qt.#.#.#QtQtQtQtQtQtQtQt.r.y.y.f.f.u.#.#.#.#.h.g.g.g.g.g.g.h.g.l.a.g.a.z.o.t.b.b.b.b.q.q.w.A",
"QtQtQtQtQtQtQtQtQt.#.#.#.#.#.#.#.#.#.#.#QtQtQtQtQtQt.#QtQt.#.e.y.y.f.s.x.g.#.#.#.#.g.g.g.g.h.#.h.h.g.a.a.a.m.n.o.o.B.b.b.b.r.w.w",
".CQtQtQtQtQtQt.D.D.i.i.#Qt.#.#.#.#.#.#.#QtQtQtQtQtQtQtQtQt.E.b.y.F.f.f.e.#.#.#.#.i.b.A.x.m.h.h.g.h.h.g.a.k.a.m.n.n.o.u.b.q.p.q.q",
"QtQtQt.CQt.CQtQtQt.i.D.DQtQtQtQtQtQtQtQtQtQt.CQtQt.C.C.C.E.E.g.e.y.y.x.aQt.#.#.#.m.f.f.G.s.m.h.g.h.#.#.g.g.a.d.m.n.n.t.b.b.q.r.q",
"Qt.C.C.C.C.CQtQtQtQtQtQt.C.CQt.#.#QtQtQtQtQtQtQt.b.A.H.d.C.C.C.I.b.I.iQtQtQt.#.#.m.f.f.f.f.y.g.h.#.h.#.g.g.l.m.m.n.n.n.J.t.r.r.s",
".C.C.C.C.C.CQtQtQtQtQtQtQt.CQtQt.#QtQtQtQtQt.g.H.f.y.y.x.I.C.CQtQt.E.EQt.CQtQtQt.i.s.f.f.f.f.H.e.p.K.#.g.g.l.d.m.n.n.n.t.t.u.e.L",
".E.C.C.CQtQtQtQtQtQtQtQtQtQt.EQtQtQtQtQtQtQt.q.G.f.f.f.y.s.g.C.C.C.C.E.EQtQt.#.#.#.v.f.f.f.f.f.f.M.N.#.g.g.g.d.n.n.n.n.t.t.t.e.O",
"QtQt.E.EQtQtQtQtQtQtQtQtQtQtQt.CQtQtQtQtQt.g.A.y.P.P.P.P.G.k.C.C.C.CQtQtQt.#.#QtQt.g.x.f.f.f.f.M.f.Q.g.g.g.g.k.d.R.n.n.n.t.t.u.S",
"QtQtQtQtQtQtQtQtQtQtQtQtQtQtQtQtQtQtQtQtQtQt.e.T.G.P.G.P.f.l.C.C.C.C.CQtQtQtQtQtQt.#.g.q.x.q.H.e.I.i.g.g.g.g.k.k.m.n.n.J.t.t.u.U",
"QtQtQt.CQtQtQtQtQtQtQtQtQtQtQtQtQtQtQtQtQtQt.V.f.G.P.S.P.WQt.X.E.C.CQtQtQt.E.EQt.#.#.#.#.#.#.#.#.g.#.g.g.j.j.g.m.n.n.n.t.t.u.U.U",
"Qt.#QtQtQtQtQtQtQt.iQtQtQtQtQtQtQtQtQtQtQt.CQt.d.e.T.f.YQtQt.X.E.C.C.CQt.#.m.EQt.#.#.#Qt.#.#.#.#.#.i.g.g.j.j.R.m.n.n.n.t.t.t.u.U",
"QtQtQt.#QtQt.#QtQtQt.#QtQtQtQtQt.#.#.#QtQt.X.X.#.#.m.g.#.#.X.X.C.C.C.C.#.p.s.U.#.#.#.#.#.#.#.#.#.i.i.i.g.R.j.R.R.n.n.t.t.t.t.U.U",
"QtQtQtQtQtQt.#.#QtQt.#QtQtQtQtQtQt.#Qt.#.i.#.#.Z.0.1.2.3.4.X.C.C.C.C.C.g.y.s.H.#.#.#.#.#.#.h.i.i.g.i.g.g.R.R.R.R.z.n.t.t.t.u.u.u",
"QtQtQtQtQtQtQtQt.iQt.i.#.g.i.#.#QtQt.E.i.5.1.6.7.8.9#.###a#b#c#d.C.CQtQt#e.p.I.i.#.#.#.h.#.#.g.g.g#f.g.g.k.j.R.d.m.n.t.t.u.u.U.A",
"QtQtQtQtQtQtQtQt.#.g.i.g.g.g.g.i.##g#h#i#j#k#l#m#n#o#p#q#b#r#s#t#u#v.CQtQtQtQt.#.#.#.#.#.#.h.h.g.g#f.j.j.k.g.j.R.m.I.t.t.t.t.x#w",
"#e.#.C.C.CQtQt.i.g.g.g.g.g.i.g.g.g.i#x.5#y#z.1#A#B#k#C#D#E#F#G.8#H.0#I#JQtQtQt.#.#.#.#.#.#.#.h.g.j.j.j.a.a.a.R.R.m.I.I.t.o.u.q#K",
".x.I.#.C.CQt.#.g.a.g.g.g.g.g.i.g.g.g.g#L#L#L#L#M#N#O#P#Q#R#S#T#q#U#V#W#X.#QtQt.#.#.#.#.#.#.#.#.h.g.g.g.l.a.a.a.a.n.n.n.n.n.J.u.u",
".I.gQtQtQtQt.i.g.g.g.g.g.g.g.g.g.g.#.k.j.j#L.g.#Qt#Y#I#Z#0#1.9#2#3#4#5#6#7.#Qt.#.#.#.#.#.#Qt.#.g.n.n.g.a.R.a.l.d.R.n.n.n.n.n.o.t",
"QtQtQtQtQt.#.g.g.g.g.g.g.g.g.g.g.g.g.k.j.j.k#f.g.#.X#8#9a.#.#i#Ga##laaab#M.#.#.#.#.#.#.#.#.#.j.H.f.f.p.R.a.d.d.R.n.n.n.n.n.n.o.n",
".E.E.EQtQt.#.g.h.g.g.g.g.g.g.k#f#f.g.g.k.j#fac.d.X.E.Eadaeaf.9agahai#1#Fajakal.1aman.#.#.#.g.s.G.M.Sao.H.R.k.d.R.n.n.n.o.t.o.n.J",
".E.E.X.#.#.g.g.g.#.g.#.#.g.g#f.j#f.g.h.k#f.j.q.a.#.E.E.C.Eapaqar#lagas#Eat###iau.2.4#Z#Xav.n.f.f.Saoawaw.e.n.k.n.n.n.n.o.n.n.o.o",
".E.E.XQt.#.#.h.h.g.#.#.#.i.iax#L#L.k.h.h#f#f.a.#.#Qt.C.Cay.#az#raA#RaB#F#paC#i#.aDaEaFaGaH.U.f.S.S.SaoaIaw.G.faw.y.n.n.o.n.o.t.t",
".E.E.X.#.#.h.h.h.#.g.h.h.gaxax#L.j#f.#.g.g.g.g.#QtQt.i.dQt.gaJ#paA#paK#.#RaLaMaiaN#g.#.#.#.n.f.S.S.SaOaOaIawawaI#K.p.n.o.n.n.o.t",
"Qt.E.X.g.#.h.h.#.#.#.#.g#L#L#L.j.j#f.g.i.i.iQt.#Qt.X.i.d.E.CQtahaqaL#R#.aP#mauaDaQ.#.#.#.#.#.b.S.SaRaOaSaT.Saw#K#K.y.n.n.n.n.n.t",
"Qt.C.#.#.#.h.h.h.h.#.i.g#L#L#L.j.j.j.g.i.#.#.X.XQt.X.X.E.E.E.CaU#.aV#p#QaW#n#saXaY.#.#.#.h.#.g.paSaSaOaT.U.taw#K#K.q.n.z.n.n.n.o",
"QtQt.#.#.g.g.g.g.h.h.h.g#f#L#L#L#L.j.g.g.#QtQtQt.X.X.X.E.EQt.EaZa0#0a1#R#F#..8#Ga2a3.#.h.h.h.g.g.b.A.q.t.a.j.v.f.p.n.n.z.n.n.n.n",
"QtQt.#.i.g#L#L#L#L.g.g#f.j.j#L#L.j#f.k.g.#QtQtQt.X.XQtQt.EQt.E#Wa4a5a6.7aa#Da7.9aM#Aa8.#.h.h.g.g.k.a.d.d.R.R.R.R.R.n.n.n.n.n.n.n",
"QtQtQt.i.g#L#L.K.K#L.K.K.j.j.K#L#L#L.g.iQtQtQtQtQtQt.E.E.C.C.Ca9b..E.E.Eb#bababbbcbd.#.#.#.#.g.g.j.g.k.d.R.R.R.R.n.n.n.n.n.n.t.t",
"QtQtQt.#.g#L#L.K.K#L#L#L.K.K#Lax#L#L.#.#QtQtQtQt.X.X.E.E.C.E.EQtQt.E.E.E.E.E.C.#.#.#.#.#.#.h.g.g.j.g.k.R.k.R.z.z.n.n.n.n.t.t.t.t",
"QtQtQt.#.g#L#L.K.K#L#L#L#L#L#Lax#L.g.#.#QtQtQtQt.X.XQtQt.CQt.E.E.E.E.E.E.C.CQt.#.#.#.#.#.g.g.i.g.g.g.k.R.d.R.R.n.n.n.n.n.J.t.U.b",
"QtQtQt.#.i.h#L.K.K#L#L#L#L#L#L#L.i.g.gQt.X.E.EQt.E.EQtQtQt.E.E.E.E.E.E.C.C.C.#.#.#.#.#.#.g.g.i.g.g.g.d.R.n.n.n.n.n.n.n.tbe.U.U.b",
"QtQtQtQt.#.g.h#L#L#L#L#L#L.g.h.#.#.Y.x.bQt.E.E.E.EQtQtQtQtQt.E.E.E.E.EQtQt.#.#.#.#.#.#.#.g.g.g.g.g.a.d.n.n.n.n.n.n.t.u.W.Y.b.b.v",
"QtQt.i.iQt.#.i.g.g.g#L.g.#.#.#Qt.X.q.f.x.g.E.E.EQtQtQtQtQtQtQt.E.E.E.EQt.#.#.#Qt.#.g.g.h.g.g.g.g.g.R.n.n.n.n.n.t.t.t.b.U.b.b.v.q",
".i.i.iQtQtQt.#Qt.i.i.i.#Qt.X.X.XQt.I.q#e.#.E.E.E.E.EQtQtQtQt.E.E.E.EQt.#.#.#.#.#.#.#.g.g.g.g.g.a.a.R.n.n.n.n.n.J.t.u.b.b.b.q.q.q",
".i.i.iQtQt.#QtQt.#QtQtQt.X.EQt.E.u.e.gQtQtQt.E.E.C.C.C.C.C.C.C.E.E.E.E.#.#.g.#.#.h.#.g.g.j.j.a.d.R.z.n.n.n.n.n.o.J.U.b.b.q.v.q.w",
".i.iQtQtQtQt.#QtQtQtQt.CQt.b.b.d.x.f.qQt.CQtQtQtQt.C.C.C.C.C.C.EQtQtQt.#.q.x.n.#.h.#.h.g.j.g.a.d.R.n.n.n.n.o.o.o.t.u.b.v.q.q.q.w",
"QtQtQtQtQtQtQt.CQtQtQt.#.q.s.s.H.x.f.HQtQtQtQtQtQtQt.C.C.C.C.C.CQtQtQt.U.f.G.f.n.#.h.i.g.g.g.d.k.n.n.n.n.n.o.t.t.t.U.r.v.q.q.p.w",
"QtQtQtQtQtQtQtQt.C.C.C#e.f.f.f.f.p.s.HQtQtQtQtQtQt.C.C.C.CQt.C.C.C.C.i.A.f.f.G.y#L.g.g.g.g.a.a.R.n.n.n.n.n.o.o.t.u.U.b.q.q.p.e.e",
"QtQtQtQtQtQtQtQtQt.CQt.A.f.f.f.f.y.b#eQtQtQtQtQtQtQtQtQt.#QtQt.C.C.C.#.A.G.P.G.f.z.#.g.n.j.a.a.R.n.n.n.J.o.o.t.u.u.u.U.q.q.p.w.w",
".CQtQtQtQtQtQtQt.#Qt.m.f.f.f.f.f.f.b.C.C.C.C.CQtQtQtQtQtQtQtQtQtQtQtQt.p.f.f.G.f.j.h.b.S.f.R.a.a.R.R.n.t.t.t.t.u.u.u.U.r.q.e.w.w",
"Qt.CQtQtQtQtQtQtQtQt.c.f.f.f.f.f.f.y.#.C.CQt.C.CQtQt.C.#.#QtQtQt.#.#.#.g.s.f.G.p.g.g.b.P.S.t.R.R.n.n.t.t.u.U.u.u.u.u.U.q.w.e.w.w",
"QtQtQtQtQtQtQtQtQt.#.a.f.f.f.f.f.f.A.#.C.C.C.C.CQtQt.CQtQt.#.#.#.#.#.#.#.U.A.p.g.h.g.g.b.q.d.R.n.n.n.t.t.t.t.u.U.u.u.U.v.p.p.w.w",
".i.DQtQt.DQtQtQtQtQt.i.q.f.f.f.f.f.b.C.C.CQt.C.CQtQt.C.C.E.#.#.#.#.#.#.#.#.h.h.g.g.k.g.k.a.d.R.n.n.t.t.t.n.t.U.U.u.u.U.q.q.q.p.q",
".D.D.DQtQt.DQtQt.i.C.C.i.e.f.T.f.Y.i.C.CQtQt.E.E.CQtQtQt.CQtQt.#.h.#.#.#.i.g.g.k.g.g.k.k.a.a.R.n.n.t.t.n.n.U.u.u.t.u.U.b.v.q.v.b",
".i.i.D.D.D.D.D.D.i.i.C.C.i.I.c.m.i.D.D.C.C.C.CQt.C.#.#.CQtQtQt.#.h.#.g.g.g.g.k.a.a.k.k.a.a.m.n.n.t.t.t.u.t.u.t.t.u.U.b.b.b.b.b.U",
".i.i.i.D.i.I.c.i.i.iQtQtQt.i.D.D.i.D.DQtQtQt.C.C.#.#.#Qt.#.#.#.h.h.#.g.g.g.g.a.a.l.a.a.a.m.n.n.n.t.t.n.u.U.u.t.t.u.U.b.b.b.b.U.b",
".i.i.i.d.e.x.A.cQtQtQtQt.i.i.D.D.D.D.DQtQtQtQtQtQt.#.#.#.#.h.g.h.h.g.g.g.k.g.a.a.a.a.a.a.n.n.n.n.n.t.t.t.t.t.t.t.u.u.b.b.b.b.U.b",
".g.g#e.y.f.f.s.e.kQt.i.i.i.i.i.D.D.D.DQtQt.#.#QtQtQt.#.#.h.g.g.h.g.g.g.g.k.k.a.a.d.d.d.d.n.n.n.n.n.t.t.t.t.t.J.t.t.u.U.b.b.b.b.b",
".i.I.Sbf.G.P.P.s.d.i.i.i.i.i.i.i.i.i.i.#QtQt.i.#.#.#.#.g.g.g.g.g.g.g.g.g.k.a.k.a.a.d.d.R.n.n.n.n.n.b.A.b.t.t.t.t.u.u.u.b.U.U.b.b",
".d.SaIawao.P.P.P.I.i.i.i.g.i.D.D.i.i.#.#.#.D.i.i.#.#.g.g.h.h.g.g.g.a.a.g.k.a.a.a.a.a.d.R.n.n.n.n.t.S#K.P.o.o.o.t.t.U.u.U.U.U.U.U",
".A.Sawaoao.Sbf.y.l.l.g.g.g.i.i.i.i.i.#.#.i.i.i.i.i.g.g.g.g.g.g.k.a.a.a.a.d.a.a.a.a.a.d.n.n.n.n.n.n.f#K#K.q.t.obg.u.U.U.U.U.U.U.U",
"aTaR.SawbfawaI.p.e.P.p.l.g.b.t.g.i.i.i.i.i.g.i.i.i.g.g.g.k.a.k.R.a.R.a.b.e.o.a.a.a.n.m.I.n.n.n.I.n.tawbhaw.U.u.u.u.U.U.U.U.U.t.t",
"biaSbiaIaIbj.fbk.SaRaR.b.k.n.k.g.g.g.g.i.i.i.i.g.g.g.g.g.g.k.R.a.k.R.n.Tao.p.a.a.u.y.o.I.n.n.n.n.n.t.Pblaw.u.t.u.u.U.U.U.U.t.t.b",
"bmbnbobnaIaR.c.m.f.SaR.r.a.a.k.k.k.g.g.g.i.g.g.g.g.g.g.k.R.j.R.R.R.a.R.s.S.r.m.xaw#Kaw.b.I.n.n.n.t.u.B.e.b.t.t.u.u.U.U.t.U.t.t.t",
".yaObnaTbp.o.R.R.t.y.w.R.d.d.k.k.k.g.g.g.g.g.g.g.j.k.k.R.R.R.R.n.R.a.a.n.u.m.bbqbq#Kbh.f.J.J.n.t.u.u.u.u.u.u.u.u.u.U.U.b.U.t.c.u",
".Ubrbr.x.t.n.z.R.R.R.a.a.d.a.k.k.k.l.g.g.g.g.g.R.R.R.R.R.R.R.n.R.d.d.m.m.a.a.bbq#Kbqbh.S.J.J.J.t.t.t.u.u.u.u.U.U.U.t.U.b.b.U.u.u",
".b.b.U.n.t.o.n.n.R.R.d.d.a.a.a.a.a.a.a.q.a.a.R.n.R.R.n.J.z.n.R.m.m.m.m.m.I.m.b#Kbh#Kbhaw.Jbs.u.t.t.u.U.U.U.U.U.U.t.U.t.b.b.b.b.b",
".A.r.b.U.t.U.t.t.t.R.R.R.R.d.d.a.a.a.R.e.n.n.n.n.n.n.J.J.n.n.R.n.n.m.m.m.I.I.nawblbhbh.P.c.c.u.u.u.u.U.U.U.U.U.U.U.t.U.b.q.e.q.b",
".s.e.r.U.u.b.b.b.U.n.R.R.n.d.d.d.a.a.d.d.a.n.n.n.t.t.u.J.J.J.n.J.I.I.I.I.I.I.J.u.P#Kbq.x.u.u.u.u.u.U.U.U.U.U.b.U.U.U.b.b.eblao.p",
".f.s.e.p.b.p.b.b.b.t.t.I.m.d.d.m.m.m.m.m.n.o.n.J.b.u.b.u.t.t.t.J.I.I.I.I.Ibs.J.t.J.b.b.u.u.u.u.u.U.U.U.U.U.U.b.b.b.b.b.b.w.P.A.r",
".P.s.e.qbt.e.b.U.U.u.u.t.t.I.m.m.m.m.m.n.t.t.t.t.b.b.b.b.B.u.t.t.t.I.t.tbs.c.t.t.u.u.u.B.b.b.U.b.q.r.b.b.U.b.b.b.b.b.b.q.q.q.r.r",
"aIbf.fbu.Abu.w.b.b.r.b.b.U.u.t.u.n.J.n.t.t.t.t.b.q.q.q.r.q.r.u.t.tbs.t.c.c.t.t.u.b.B.B.r.q.r.r.q.q.q.p.q.b.r.r.r.b.b.b.b.b.r.r.r"};
