/* XPM */
static char *dummy[]={
"64 64 665 2",
"Qt c None",
".q c #8fb6f3",
"hC c #88b1f2",
"iq c #89b1f2",
".Z c #89b2f2",
"an c #90b6f3",
"id c #91b7f3",
"d0 c #94baf3",
"be c #88b1f2",
"#W c #8bb2f3",
"hl c #90b5f3",
"hS c #88b1f2",
"#x c #8eb8f3",
"d. c #92b8f3",
"#f c #8eb5f3",
"gX c #85aef2",
"i. c #89b1f1",
"h4 c #89b2f2",
"cd c #92b8f3",
".Y c #8eb2f3",
"bM c #92b8f3",
"hb c #87b0f2",
"hg c #88b1f1",
"ie c #88b1f2",
"bd c #91b7f3",
"hm c #88b1f2",
"#g c #89b1f2",
"h9 c #8fb5f3",
".C c #8fb6f3",
"bN c #89b1f2",
"hf c #91b6f3",
".N c #8db5f3",
"ih c #87b0f1",
"az c #90b6f3",
"hx c #88b1f2",
"aS c #90b7f3",
"hr c #87b0f1",
"eh c #92b8f3",
"#y c #88b0f2",
"h3 c #8eb5f3",
"ce c #89b1f2",
"ha c #91b6f3",
".p c #8fb5f3",
"aa c #8db4f3",
"ir c #88b0f1",
"hK c #88b1f2",
"am c #8db5f3",
"dB c #92b8f3",
"hD c #87b0f1",
"#M c #8ab2f2",
"hX c #8db5f2",
"cI c #8ab2f2",
"g5 c #91b6f3",
"gT c #87b0f2",
"dZ c #92b8f3",
"#L c #8db3f2",
"#V c #8db4f3",
"hY c #88b1f1",
"#X c #8ab2f2",
"hR c #8eb5f3",
"hT c #87b0f1",
"d# c #8ab2f2",
"cH c #91b7f2",
"c9 c #93b8f3",
"g6 c #86aff1",
"gY c #86aff1",
"#w c #8eb5f3",
".# c #8bb3f3",
"iw c #8eb5f3",
"ab c #88b1f2",
"h5 c #89b2f1",
"hJ c #8eb5f2",
"#e c #8db4f1",
"i# c #87b0f0",
"cc c #92b8f3",
"hc c #88b1f1",
".X c #8db5f3",
"bL c #90b6f1",
"hh c #87b0f0",
".r c #8bb3f3",
"ip c #90b6f3",
"ao c #88b1f2",
"hB c #8eb5f3",
"bc c #90b7f3",
"hn c #88b1f2",
".M c #8cb3f1",
"ii c #86b0f0",
".B c #8fb5f3",
".D c #8bb3f3",
"ik c #91b7f3",
"aA c #88b1f2",
"il c #88b1f3",
"hw c #8eb5f3",
"aR c #8fb5f1",
"ay c #8eb5f3",
"hs c #87b0f0",
"hy c #89b2f3",
"eu c #90b6f2",
"eg c #92b8f3",
".O c #8ab2f2",
"ig c #91b7f3",
"aT c #88b1f2",
".o c #9bbdf2",
"hq c #8fb5f3",
"is c #88b1f1",
"al c #8db4f2",
"a# c #8db4f3",
"hE c #87b0f1",
"hL c #89b2f4",
".0 c #8ab2f2",
"dA c #93b8f3",
"bf c #88b1f2",
"hk c #90b5f3",
"ic c #91b6f3",
"dY c #91b7f2",
"gU c #89b2f5",
"gP c #87b0f1",
"#U c #8eb4f3",
"#K c #8eb5f2",
"hU c #89b2f2",
"#h c #89b2f2",
"hZ c #8ab4f5",
"bO c #88b1f2",
"h8 c #91b7f3",
"he c #90b5f3",
"cG c #92b8f3",
"gZ c #87b0f2",
"g7 c #89b2f6",
"#v c #8fb6f5",
"h6 c #89b3f4",
"#z c #89b1f2",
"cb c #93b9f5",
"h2 c #8fb5f3",
"cf c #89b1f2",
"#d c #8eb4f2",
"hd c #89b3f5",
"h# c #91b6f3",
".W c #90b8f7",
"ia c #8ab4f5",
"if c #8ab5f7",
"bK c #91b7f2",
"bb c #93baf8",
"hi c #8bb4f6",
"ho c #8bb5f8",
".A c #99bffa",
"im c #8db8fa",
"#N c #88b1f2",
"cJ c #89b1f2",
"hW c #8eb5f3",
"eI c #94bcf9",
"g4 c #91b6f3",
"ax c #93bcfb",
"hz c #8db8fb",
"ef c #98bffb",
".L c #8eb5f3",
"gM c #8fb9fb",
"hM c #8ebafd",
"a. c #94bdfd",
"ij c #89b3f5",
"gV c #8db9fe",
"dz c #9ac1fe",
"#Y c #8bb3f2",
"aQ c #90b6f3",
"#J c #96beff",
"da c #8ab2f2",
"ht c #8ab4f6",
"hQ c #8db5f2",
"h0 c #90bcff",
"cF c #99c1ff",
"g8 c #8fbaff",
"gW c #91b6f3",
"#R c #000000",
"eA c #000001",
"dJ c #000101",
"ah c #000102",
"dI c #010000",
"fV c #010001",
"cX c #010100",
"#6 c #010101",
"cT c #010102",
"ff c #010103",
"eN c #010203",
"cy c #020203",
"fj c #020303",
"fi c #020305",
"ey c #020404",
"ez c #020405",
"eZ c #030304",
"dk c #030404",
"by c #030405",
"cu c #040406",
"fH c #040506",
"cr c #040507",
"bZ c #040606",
"d4 c #040607",
"eM c #040608",
"dl c #050507",
"gd c #050607",
"e2 c #050608",
"eO c #050709",
"dj c #060607",
"cs c #060709",
"cU c #06070a",
"fn c #06080a",
"eY c #06080b",
"b5 c #07080a",
"c4 c #07080b",
"dm c #07090b",
"f3 c #07090c",
"dK c #07090d",
"b4 c #08090b",
"f9 c #080a0d",
"f2 c #080a0e",
"gi c #080b0e",
"fX c #090b0e",
"el c #090b0f",
"cq c #090c10",
"cz c #0a0c0f",
"fU c #0a0c11",
"dM c #0a0d11",
"#E c #0a0d12",
"b3 c #0b0d12",
"eR c #0b0e13",
"bx c #0b0e14",
"cx c #0c0f13",
"fo c #0c0f15",
"ai c #0c1015",
"b2 c #0c1017",
"dv c #0d1014",
"eB c #0d1116",
"dn c #0d1219",
"d5 c #0e1117",
"fW c #0e1216",
"em c #0e1219",
"fg c #0e131a",
"ex c #0e141b",
"en c #0f1218",
"eL c #0f131a",
"eD c #0f141b",
"dL c #101319",
"cY c #10131b",
"gc c #10141a",
"fh c #10141b",
"fP c #10141d",
"cW c #11151d",
"d6 c #11161e",
"dG c #11161f",
"fs c #11171f",
"b0 c #12171f",
"e9 c #121720",
"ci c #121721",
"eC c #131a22",
"cV c #141821",
"b1 c #141923",
"gj c #151b23",
"b6 c #161921",
"gz c #161c28",
"eP c #171e29",
"#5 c #171e2a",
"gk c #181f2a",
"e0 c #1a212d",
"ek c #1b232e",
"eE c #1b2330",
"a2 c #1c2330",
"e8 c #1c2331",
"f# c #1c2432",
"fr c #1c2433",
"dg c #1c2532",
"e3 c #1c2533",
"cR c #1d242d",
"cv c #1d242f",
"bX c #1f2938",
"f8 c #202836",
"c3 c #212935",
"fO c #212938",
"cS c #212a36",
"fm c #212c3a",
"eQ c #212c3b",
"cN c #212c3c",
"aG c #232b3b",
"cp c #232d3e",
"ft c #232f40",
"f4 c #263040",
"cw c #27313f",
"f. c #283446",
"gq c #293447",
"gr c #2b364a",
"ct c #2e3a50",
"e1 c #2f3c53",
"fq c #303e55",
"ej c #304058",
"bY c #313f56",
"at c #323f56",
"eS c #334259",
"fp c #33425a",
"dF c #33425b",
"dH c #33435c",
"b7 c #343f52",
"d3 c #364560",
"bz c #374356",
"df c #374964",
"#S c #38475f",
"fI c #384a65",
"#F c #3b4b67",
"gb c #3b4c67",
"dT c #3b4d68",
"a3 c #3c4d65",
"du c #3d4c65",
"cZ c #3d4d6a",
"co c #3d4f6b",
"c2 c #3f4f67",
"cj c #3f516f",
"gy c #425472",
"c5 c #43526c",
"as c #435675",
"gw c #445776",
"bu c #465b7d",
"fC c #475d7f",
"fG c #485d7e",
"cA c #495974",
"#Q c #495e7e",
"f7 c #4a5e81",
"do c #4a5f82",
"gh c #4c6285",
"ew c #4e658a",
"cM c #4e658b",
"aH c #4f6486",
"dN c #4f668c",
"di c #50698e",
"dw c #51678a",
"dS c #526a90",
"bt c #526b92",
"d7 c #546d94",
"dU c #556d95",
"fx c #566f98",
"bs c #567098",
"bw c #59729b",
"fe c #59749f",
"fY c #5b76a1",
"fB c #5c769e",
"eo c #5c77a3",
"bv c #5c78a4",
"gF c #5d77a3",
"gp c #5e78a3",
"gE c #617da9",
"bA c #627799",
"f1 c #627eac",
"g. c #637eab",
"#q c #637fac",
"bV c #6380af",
"gl c #6480af",
"#7 c #657fac",
"eK c #6582b1",
"cn c #6882ac",
"eF c #6886b7",
"bR c #6887b9",
"gx c #6a88ba",
"bW c #6b8bbe",
"cQ c #6c88b6",
"br c #6c8bbe",
"fy c #6c8dc1",
"dh c #6c8ec2",
"ag c #6d8ec1",
"c6 c #6e8bb6",
"fD c #6e91c6",
"dt c #6f8ab6",
"gA c #6f8fc3",
"fa c #7090c5",
"fw c #7091c5",
"fQ c #7295cd",
"c1 c #7492be",
"eT c #7496cc",
"b8 c #7790bb",
"eX c #7798ce",
"ch c #789dd6",
"bQ c #799dd7",
"#p c #7a9ad3",
"#D c #7a9dd6",
"go c #7a9ed6",
"fT c #7a9ed7",
"fA c #7b9fd7",
"a1 c #7da0da",
"gG c #7ea2dc",
"aZ c #7ea2de",
"ea c #7ea3dd",
"ei c #7ea3e0",
"gs c #7ea4de",
"ck c #7fa6e3",
"cO c #7fa7e4",
"e4 c #80a5e2",
"fJ c #80a6e4",
"fz c #80a7e7",
"cm c #81a1d2",
"e7 c #81a8e6",
"gH c #82a8e4",
"dR c #83a4dd",
"aj c #83a7e3",
"fu c #83abea",
"gC c #85abea",
"bq c #85aceb",
"fl c #85aded",
"c0 c #86aae3",
"ec c #86adeb",
"f5 c #86aeec",
"fE c #86aff0",
"cg c #86b0f2",
"ev c #87ace8",
"eb c #87afed",
"bl c #87aff0",
"cP c #87b0f1",
"bi c #87b0f2",
"in c #87b1f1",
"aD c #87b1f2",
"aV c #87b1f3",
"bp c #88b0f1",
"#3 c #88b0f2",
"fd c #88b0f3",
"fN c #88b1f1",
"ae c #88b1f2",
"bj c #88b1f3",
"dd c #88b2f2",
"bn c #88b2f3",
"cL c #88b3f4",
"bB c #89a8d8",
"bU c #89aeec",
"dx c #89afed",
"#G c #89afee",
"eG c #89b0f1",
"fk c #89b0f2",
".e c #89b1f2",
".9 c #89b2f2",
".G c #89b2f3",
"aC c #89b2f4",
"aW c #89b3f4",
"bS c #89b3f5",
"fR c #89b4f6",
".c c #8ab1f2",
"gg c #8ab1f3",
"## c #8ab2f0",
".d c #8ab2f2",
"d9 c #8ab2f3",
"aE c #8ab2f4",
"af c #8ab3f2",
"dP c #8ab3f3",
"aX c #8ab3f4",
"fc c #8ab3f5",
"g9 c #8ab5f7",
"de c #8ab5f8",
"a4 c #8ba9dd",
"dV c #8bb1f1",
".g c #8bb2f2",
"#4 c #8bb2f3",
".f c #8bb3f2",
".u c #8bb3f3",
"gm c #8bb3f4",
"e. c #8bb3f5",
"iv c #8bb4f2",
"gv c #8bb4f3",
"g# c #8bb4f5",
"cl c #8bb4f6",
"g1 c #8bb4f7",
"dE c #8bb4f8",
"bo c #8bb5f6",
"fF c #8bb5f7",
"h1 c #8bb5f8",
"bk c #8bb5f9",
"fS c #8bb6f8",
"ds c #8caee4",
"#C c #8cb2f2",
"fv c #8cb2f3",
".Q c #8cb3f2",
".h c #8cb3f3",
".i c #8cb4f2",
".H c #8cb4f3",
"#o c #8cb4f4",
".F c #8cb4f5",
"gJ c #8cb5f3",
".t c #8cb5f6",
"f0 c #8cb5f7",
"fb c #8cb6f9",
"gN c #8cb6fa",
"gR c #8cb7fb",
"#H c #8db3f2",
"gn c #8db3f3",
".v c #8db4f2",
".j c #8db4f3",
".T c #8db4f4",
"b# c #8db5f2",
"#s c #8db5f3",
"c7 c #8db5f4",
"ar c #8db5f6",
"ep c #8db5f7",
"gL c #8db6f3",
"#8 c #8db6f5",
"gI c #8db6f6",
"eq c #8db6f7",
".a c #8db6f8",
"dC c #8db6f9",
"hN c #8db7f9",
"bm c #8db7fa",
"d2 c #8db7fc",
"dO c #8db8fb",
"fK c #8db8fd",
"dQ c #8eb4f1",
".5 c #8eb4f2",
".I c #8eb4f3",
".x c #8eb5f2",
".k c #8eb5f3",
"ak c #8eb5f4",
"#r c #8eb5f5",
"bH c #8eb6f3",
"hu c #8eb6f4",
"dq c #8eb6f5",
".U c #8eb6f6",
"ge c #8eb6f7",
"aF c #8eb6f9",
"dp c #8eb6fa",
"ac c #8eb7f9",
"aY c #8eb7fa",
"f6 c #8eb8fa",
"db c #8eb8fb",
"fZ c #8eb8fc",
"it c #8eb9fb",
"hp c #8eb9fc",
"hG c #8eb9fd",
"hF c #8ebafe",
"ga c #8fb4f3",
".y c #8fb5f2",
".w c #8fb5f3",
"aL c #8fb5f4",
"hH c #8fb6f2",
"bg c #8fb6f3",
"#t c #8fb6f5",
"aq c #8fb6f6",
"cC c #8fb7f7",
"e# c #8fb7f9",
".b c #8fb8f9",
"au c #8fb8fa",
"gD c #8fb8fb",
"ap c #8fbafe",
"gQ c #8fbaff",
"cD c #90b5f2",
"#0 c #90b5f3",
"bh c #90b6f2",
"#j c #90b6f3",
".l c #90b6f5",
"hO c #90b7f2",
"c# c #90b7f3",
"c. c #90b7f4",
"aP c #90b7f6",
".J c #90b8f6",
"hA c #90b8f7",
"#. c #90b8fa",
"gB c #90bafd",
"cK c #90bafe",
"d8 c #90baff",
"iu c #90bbfe",
"g0 c #90bbff",
"hj c #90bcff",
"ed c #91b6f2",
".S c #91b6f3",
".3 c #91b7f2",
".2 c #91b7f3",
"e6 c #91b7f4",
"ca c #91b7f5",
"aJ c #91b7f6",
"eU c #91b8f3",
"#b c #91b8f9",
"#I c #91b9f9",
"#9 c #91b9fa",
"#a c #91bafb",
"fL c #91bbfe",
"#A c #91bcff",
"aB c #91bdff",
"dc c #92b7f2",
".R c #92b7f3",
".4 c #92b8f3",
"aK c #92b8f6",
"bI c #92b9f7",
"aI c #92b9f9",
"eW c #92baf8",
"hI c #92bafa",
"aw c #92bafb",
".s c #92bbfe",
"#O c #92bbff",
"fM c #92bcfd",
"a0 c #92bcff",
"bP c #92bdff",
"aU c #92beff",
"dD c #93b7f2",
".6 c #93b7f3",
"#P c #93b8f3",
"dW c #93b8f4",
"bG c #93b9f3",
"et c #93b9f4",
"#i c #93beff",
"#2 c #94b8f3",
"#B c #94b9f3",
"er c #94baf5",
"eJ c #94baf6",
"eV c #94baf7",
"gS c #94baf9",
"c8 c #94bbf8",
"cE c #94bbf9",
"hP c #94bcfd",
".V c #94bdfe",
"#T c #94bdff",
".E c #94beff",
".1 c #94bfff",
"e5 c #94c0ff",
"gf c #95b8f3",
"#1 c #95b9f3",
"#m c #95baf3",
"ba c #95bdfd",
"#u c #95bdfe",
"bT c #95befe",
"io c #95beff",
".P c #95c0ff",
"a5 c #96b9f2",
".7 c #96b9f3",
"#k c #96baf3",
"g2 c #96bbf3",
"dy c #96bcfa",
"ee c #96bdfa",
"hV c #96beff",
"#c c #96bfff",
".8 c #97b9f3",
"#l c #97baf3",
"av c #97bbf3",
"cB c #97bcf5",
"ad c #97bdf9",
"#Z c #97befc",
".K c #97c0ff",
"hv c #97c1ff",
"#n c #98baf3",
"d1 c #98bbf3",
"bF c #98bcf3",
"bE c #98bcf4",
"eH c #98befc",
".z c #98bffd",
"g3 c #98bfff",
".m c #98c0ff",
"a8 c #99bbf2",
"gK c #99bbf3",
"aM c #99bcf3",
"a6 c #99bdf7",
"dX c #99bffc",
"h. c #99c0ff",
"bJ c #99c1ff",
"dr c #99c2ff",
"gt c #9abcf3",
"a9 c #9abdf3",
"a7 c #9abdf6",
"es c #9ac2ff",
"aO c #9bbdf3",
"gO c #9bbef3",
"h7 c #9bc2ff",
"gu c #9cbdf3",
"aN c #9cbef3",
"bD c #9cbff7",
"ib c #9cc4ff",
"b. c #9dbef3",
"b9 c #9dc1fb",
".n c #9fc2fc",
"bC c #a1c5ff",
"QtQtQtQtQtQtQtQtQtQtQtQtQtQtQtQtQtQtQt.#.a.b.c.c.c.d.c.e.d.d.d.f.f.g.h.i.j.j.j.k.k.k.l.m.n.o.p.qQtQtQtQtQtQtQtQtQtQtQtQtQtQtQtQt",
"QtQtQtQtQtQtQtQtQtQtQtQtQtQtQtQtQtQt.r.s.t.u.d.e.c.c.c.e.e.d.d.d.d.d.g.i.v.j.j.k.k.w.x.y.z.A.B.CQtQtQtQtQtQtQtQtQtQtQtQtQtQtQtQt",
"QtQtQtQtQtQtQtQtQtQtQtQtQtQtQtQtQt.D.E.F.d.d.c.e.d.d.e.g.G.d.d.d.d.d.d.h.v.j.H.k.k.w.k.I.J.K.L.M.NQtQtQtQtQtQtQtQtQtQtQtQtQtQtQt",
"QtQtQtQtQtQtQtQtQtQtQtQtQtQtQtQt.O.P.d.d.d.d.f.Q.d.d.g.R.S.Q.d.d.d.u.u.h.h.T.U.j.v.k.k.j.i.j.V.W.X.YQtQtQtQtQtQtQtQtQtQtQtQtQtQt",
"QtQtQtQtQtQtQtQtQtQtQtQtQtQt.Z.0.1.e.c.d.d.2.3.4.R.5.6.7.8.k.9.d.d.u.h.u.T#.###a.v.v.j.j.j.j#b#c#d#e#fQtQtQtQtQtQtQtQtQtQtQtQtQt",
"QtQtQtQtQtQtQtQtQtQtQtQtQt#g#h#i.e.e.c.d#j#k#l#m#k.7#k#n#n.x.9.d.d.u.h.h#o#p#q#r#s.j.j.j.j#s.I#t#u#v#w#xQtQtQtQtQtQtQtQtQtQtQtQt",
"QtQtQtQtQtQtQtQtQtQtQtQt#y#z#A.e.e.e.e.9.2#k#k#k#k#k#k#k#B.f.d.9.9.d.d#C#D#E#F#G.H.h.j.j.j.k.j#H#I#J#K#LQtQtQtQtQtQtQtQtQtQtQtQt",
"QtQtQtQtQtQtQtQtQtQtQt#M#N#O.d.e.e.e.e.e.y#P#k#k#k#l#k.R.i.e.e.9.9.d.d#o#Q#R#S.U.f.h.j.j.j.I.I.j.j#I#T#U#V#WQtQtQtQtQtQtQtQtQtQt",
"QtQtQtQtQtQtQtQtQtQt#X#Y#Z#j#0.j.d.e.e.e.d.i.4#B#1#B#2.f#3.e.e.9.d#4.d.d#5#6#7#8.f.h.j.j.j.j.j.j.j.Q#9a.a#aaQtQtQtQtQtQtQtQtQtQt",
"QtQtQtQtQtQtQtQtQtabacad#l#k#1.R.fae.e.eaeaeaf.f.w#s.gae.e.e.e.9.d#4#4agahaiaj.H.Q.Q.h.k.S#0.j.j.H.jak.V#9alamanQtQtQtQtQtQtQtQt",
"QtQtQtQtQtQtQtQtaoapaq#k#1#k#k#1.iaeaeaeae.eaeaeae.caeae.e.e.9.d.d.daras#Ratau.T.g.g.jav#l#1.2.k.H.H.j.QawaxayazQtQtQtQtQtQtQtQt",
"QtQtQtQtQtQtQtaAaBaC.j#1#1#k#k#1.faeaDae.e.eaeae.e.e.e.e.eaE.eaF.t.u.haG#RaHaIaJaKaL#maMaNaO#k.k.j.j.j.jaP.KaQaRaSQtQtQtQtQtQtQt",
"QtQtQtQtQtQtaTaUaeae.h.R#1#1#1.3ae#3aVaW.eaeaeaeae.e.eaXaY.c.1aZaEa0a1a2#Ra3a4a5a6a7a8aMa9b.av.k.j.j.j.kb#.kbabbbcbdQtQtQtQtQtQt",
"QtQtQtQtbebfaUaeaeae.e.fbg.2bh.fbibjbkblbmbnbibibo.eapbpbqbrbsbtbubvbwbx#RbybzbAbBbCbDbEavbFbG.h.j.j.j.k#sbHbIbJbKbLbMQtQtQtQtQt",
"QtQtQtbNbObPaeaeaeaeaebiaD.9afaeaDaDbQbRbpbSafbTbU.sbVbWbXbYbZb0b1b2b3#Rb4#Rb5b6b7b8b9c.bgc#.j.h.j.j.j.j.k.y#jca.mcbcccdQtQtQtQt",
"QtQtcecf#Aaeaeae.eaeaDbiaDcgaDaDaDchcicjckcl#ccmcncocpcqcrcsct#R#R#Rcucvcwcxcy#6czcAcBcC.u.h.h.h.H.j.j.j.w.y#jcDcEcFcGcHQtQtQtQt",
"QtcIcJcK.eaeaeaeaeaD.d.d.f.9aeaDcLcM#RcNcOcPcQcRcS#RcT#RcUcVcW#6cXcYcZc0c1c2c3c4#Rc5c6c7.T.h.h.H.j.j.j.k.wbg#j#jc#c8bJcGc9d.QtQt",
"d#dadb.e.eaeaeaeaeaf.6.Rdc.4#Hdddedf#Rdgdhdi#Rdj#R#R#Rdkcydlcydmdndodpdqdrdsdtducrdvdwdx.Q.h.h.h.j.j.j.k.w#j#j.2.2bhdydzdAdBQtQt",
"acdC.e.eaeaeaeae.e#2#1#k#kavdDafdEdF#RdGdH#R#RdI#RdJ#RcTcrdKdLdMdNdOcldParc7dQdRdSdTdUdV#C.h.Q.h.j.j.k.k.kbg#jc#.2.2dWdX.zdYdZd0",
"clae.e.eaeaeaDae.d.7#k#kavd1#kb#d2d3#Rc4#R#R#R#R#R#Rd4d5cqd6dMd7d8d9.e.e.ee.aXe#eaebec.g.g.h.h.j.j.j.k#s.jbH.w#jc#.2.2edeeefegeh",
".eae.e.eaeaeaeae.v#k#kavav#lav.JeiejdJ#6cX#RdJ#R#RcUekelemeneoa0.e.e.e.e.e.c.cepeq.deq.d.d.f.h.j.j.j.j.j.j.k.k#j#jc#.2.Rereseteu",
".e.e.e.eaeaeaeae.v#m#kavavd1bEevewexeyezeAcyez#ReBeCeleDeEeF#A.e.9.e.e.e.e.c.ceG.ddP.d.d.d.f.Q.j.j.j.j.j.I.k.kbg.wc#.S.4.R.ReHeI",
".e.e.eaeaeaeaeae.f.4#m#k#laveJeKeL#ReMdJeNeO#RePeQd4eReSeT#A.e.e.9.e.e.e.e.e.c.e.c.d.9.d.d.f.h.j.j.j.j.I.k.k.k.w.wbgbgeU.R.2eVdr",
".e.eaeaeaeaeaeae.eafbg.6cDeWeXeLeYeO#6#ReZ#Re0e1e2#Re3e4e5.e.e.e.e.e.e.e.e.e.e.e.d.d.9.d.d.d.u.j.j.j.j.j.I.I.w.w.w.w.wc#.2#j#je6",
".eae.e.eaeaeaeaeaeae.e.9.de7e8eYe9dJ#R#6#ReLf.by#R#Rf#fafbfcae.e.e.e.e.e.e.e.e.e.d.d.d.d.d.f.f.H.j.j.j.j.I.I.k.w.w.w.wbg#j#j#j#j",
"aeaeae.eaeaeaeaeaeaeaDbifdfefffgeA#RdJ#RfheD#R#Rfifjcrcoe7.Gae.eaeae.eae.e.e.e.e.e.e.d.d.d.f.Q.h.j.j.j.j.I.k.k.wbg.w.w.wbg#j#j#j",
"aDaDaeaeaDaeaeaeaeaeaefkflfmcT#6#R#R#Rfnfobyfpfqfra2fsftfubiaebiaeaDaDae.e.e.e.e.e.e.d.d.d.f.Qfv.j.j.j#s.k.kbg.kbgbg.k.wbg#j#j#j",
"aeaDaeaeaDaeaeaeae.e.ed9fwd4cs#R#R#R#ReOcrfxfyfzfAfBfCfDfEbibibibibibiaDae.e.e.e.d.c.d.d.u.d.f.g.h.j.j.j.k.k.k.jbg.w.k.w.w#0#j#j",
"aeaeaeaeaeaeaeae.e.e.efFfG#R#6#R#R#RcqfHfIfJfKbifLfMfubnaDbibibibibibiaDae.e.e.e.d.d.d.d.u.d.f.f.f.j.h.j.k.k.k.j.k.w.k.k.k.w.w.w",
"aeaeaeaeaeaeae.eae.eaDfNfO#R#Rby#Re2eRfPfQfRaDd9.eaDfSbnaDaDbibibibiaDaDae.e.e.e.e.e.d.c.d.d.faf.f.f.h.j.j.k.k.j.k.w.k.k.k.k.w.w",
"aeaeaeaeaeaeaeaeaeaeaCfTfU#RfVfW#RfXdJfYfZaDdd.f.ebiaDbibiaDaDbibibiaDaD.e.e.e.e.e.e.e.9.d.d#4.x.f.h.h.j.j.k.k.w.kbg.k.k#s.k.wbg",
"aeaeaeaeaeaeaeae.e.ef0f1cT#Rb4fhf2f3f4f5.eae.eafbibiaeaebiaDaebibibiaDae.e.e.eae.9.cae.9.d.Q.R#B.S.h.h.j.j.k.k.I.w.k.k.k.k.I.k.w",
"aeaeae.eaeae.e.e.d.cf6f7#R#Rf8f9fP#Rg.g#.eae#3#3bibibiaeaDbi#3bibibibibi.e.e.d.k.j.I.jaf.e.javd1.4.Q.h.h.j.k.k.j.k.k.k.k.I.Iga.w",
"ae.9ae.eae.e.d.d.9.d.agb#R#Rgcfngdctge.daeaeae#3#3aebiaDbiaebibibibibiaDae.e.j#1#lgf.6bggg.H#j.3bg.f.f.h.j.j.k.k.kbg.2.2.w.k.w.w",
"aeaeaeae.9.e.d.d.9dPaughgigj#Rgk#6glgm.9ae#3ae#3#3aebibiaDaebibibibibiaDbiae.w#k#ld1#l#Bgn.d.f.f.g.g.f.i.j.j.j.j.k#PaM#l#2#B#j.k",
".eaeae.9.9.9.d.d.d.dacgogpgqf2greNgsg#.9.eaeae#3aeaebiaeaDaeaebiaebibibiaeae.k#k#lav#l#l.w.c.d.d.g.g.f.i.j.j.j.j.I#1gtgua9a9.R.k",
".e.eae.9.d.d.d.d.d.dgv.u#4gwgxgygzgAaX.eaeaeaeaeae#3#3biaeaeaeaeaeaDbiaeaeae.gdc.7#l#l#l.k.c.d.d.g.g.f.Q.j.j.j.j.j.S#1#1a9aO.2.w",
"aeaeae.e.d.f.d.d.d.d.depgBgCgDgEgFgG.9.d.eaeaeaeae#3bibiaeaeaeaeaDaDaDaDaeaDae.Q#j.3#B#B.g.d.g.f.g.f.f.Q.j.j.j.j.j.H.jbg#1.R#j.w",
"aeaeae.9.d.f.d.d.d.d.d.9.9bmgB.fgHeq.d.g.eaeaeaeaeaebiaeaeaeaeaDaDaDaDaDaDaDaDae.g.Q.j.Q.c.d.g.faf.f.f.Q.h.j.j.j.j.v.j#s.w#0.w.w",
"aeaeae.e.d.d.d.d.d.e.d.9.d.Gd9gI.a.u#4.g.9.eaeaebiaebiaeaebiaDaDaDaDaDaDaeaDae.e.e.e.c#3.d.d.g.f.f.f.Q.Q.h.h.j.j.j.j.j.k.w.k.wbg",
"aDaDaD.e.9.d.d.d.d.e.e.c.dd9d9d9d9.u#4d9.e.eae#3bibibiaebiaDaDaDaDaDaeaeaeaeae.e.e.e.e.e.d.d.f.f.f.Q.f.f.Q.Q.v.j.j.j.j.k.k.k.wbg",
"aDaDaDae.e.d.c.e.d.e.c.cd9d9#4d9d9d9d9d9.c.eae#4aebibibibiaeaDaeaDaD.eaeaeae.e.e.e.e.e.d.d.d.d.g.f.f.f.f.f.h.v.v.Q.j.j#s.k.k.wbg",
".daDaeaeae.d.d.c.d.e.e.e.d.d#4.u.ud9.Gd9.d.d#j.2.5aebibiaeaeaeaDaDaeaeaeae.e.e.e.e.e.e.e.d.d.g.g.f.f.f.f.Q.w.w.Rbh#sgJ#s.w.w.wbg",
"a0aWaeaeae.d.e.c.c.e.e.e.c.d.u.u.ud9d9d9.9.Q#P#k.y.eaeaeaeaeaeaDaeaeae.eaeae.eae.e.c.c.e.d.d.g.g.f.f.f.f.Q#2gKd1d1.4gLb#.w.w.wbg",
"gMgNcP#3.e.e.e.c.c.e.c.c.c.ddP.udPd9d9d9.e.dbgbh.vaeaDaeaeaeaeaeaeaeaDaDaDbiaeaeae.c.c.d.d.d.d.d.f.Q.f.f.QavaNgOgOd1eU.x.w.w.wbg",
"gPgQgRfdae.e.e.c.c.c.d.c.dd9d9d9d9d9d9.c.e#3.dbhb#.j.9aeaeaeaeaeaDaeaeaDaDaeaeae.e.d.c.d.d.d.f.f#H.2.S.v.yaMaOa9aOaNav.S.w.wbggS",
"gTgUgVbkcP.e.d.e.c.dd9d9dPdPd9d9d9d9d9.e.e#3#3.R#k#P.5aeaeaeaDaDaDaeaeaeaeaeae.e.c.d.d.d.d.f.f.f.w#k#l.S.y#ka9aNgugOa9.R.w#jbagW",
"gXgYgZg0g1#3.e.e.dd9d9dPdPdPd9d9d9d9.e.e#3bi.g#j#1#1#P.gaDaDaeaDaDaDaeae.eaeae.e.c.d.d.d.d.f.f.u.I#md1.w.v#j#la9aNaOg2#j#0g3g4g5",
"QtQtg6g7g8g9eG.e.dd9d9d9dPdPdPd9d9d9.eae#3af#0.6#2#P.S.QaDaDaeaDaeaDbiaD.e.e.e.e.c.d.d.d.d.f.ffv.Q.k.w.j.f.i.S#1#P#Bbg.wh.h#haQt",
"QtQthbhchdg0aE.e.d.d.dd9d9dPdPd9.dd9.eaebi#0#B#1#1.7#P#s.gaDaDaDaebiaDaD.e.eae.e.d.d.c.d.f.h.ffv.f.f.i.i.v.i.i.k.kgJ.weshehfQtQt",
"QtQtQthghhhihjcl.9.e.cd9.c.dd9.d.9.9aeaeaDc##k#k#k#k#k#m.2.9aDaDaeaDaeaDaeaeae.e.d.d.d.g.f.h.h.h.h.f.i.i.i.v.vb##s.keshkhlQtQtQt",
"QtQtQtQthmhnhohpaefN.c.9.e.c.9.e.9.eaeae.ebh#k#k#k#k#k#k#m.HaDaDaDaeaeae.eae.e.e.d.d.d.g.g.u.h.j.h.Q.i.i.i.v.vb#.xdrhqQtQtQtQtQt",
"QtQtQtQtQthrhshthjaW.eae.e.eaeaeaeaeaeaeae.5#k#l#k#k#k#k#k.QaDddaeaeae.e.e.e.9.e.d.d.d.d.h.u.h.j.h.i.j.i.v.v.vhuhvhwQtQtQtQtQtQt",
"QtQtQtQtQtQthxhyhzgNbpaeddaeaeae.eaDaeaDaD.fbG#l#k#k#k#k.7.fddddaeaeae.eae.9.9.9.9.d.d.d.h.h.h.j.h.j#s.v.v.vhAbThBQtQtQtQtQtQtQt",
"QtQtQtQtQtQthChDhEhFhGdPaeaeaeae.eaDaeaDaD.9hH#1#k#l#kg2.3af.9dddddd.eaeae.9.9.9.d.d.d.g.h.h.H.j.j.j#s.v.k#IhIhJQtQtQtQtQtQtQtQt",
"QtQtQtQtQtQtQtQthKhLhMhNfNaeaeaeaeaeaeae.eae.f.x.2#P#1hO.idddddddd.9.e.e.9.9.d.9.d.d.u.g.h.j.H.j#s.j.k.khPhQhRQtQtQtQtQtQtQtQtQt",
"QtQtQtQtQtQtQtQthShThUaBhNaeaeaeaeaeaeaeaeaeae.9.uaf.f.d.9dddddd.9.9.e.e.9.9.9.9.d.d.u.h.h.j#s#s#s.k.whVhWhXQtQtQtQtQtQtQtQtQtQt",
"QtQtQtQtQtQtQtQtQtQthYhZh0h1bpaeaeaeaeaeaeaeaeaeaDaDbiae.9dd.9.9.9.9.9.e.9.9.9.d.d.d.h.h.h.j.wbH.k#0bJh2h3QtQtQtQtQtQtQtQtQtQtQt",
"QtQtQtQtQtQtQtQtQtQth4h5h6hjaWaeaeaeaeaeaeaeaedd.9aeaeae.9.9.9dddd.9.9.9.d.d.9.d.d.d.h.j.j.k.w#j#jh7h8h9QtQtQtQtQtQtQtQtQtQtQtQt",
"QtQtQtQtQtQtQtQtQtQtQti.i#iahjclaeaeaeaeaeaeaedd.9.9ae.9.9.9.ddd.9af.9.d.d.d.d.d.f.f.j.j.jbg.w#jibicidQtQtQtQtQtQtQtQtQtQtQtQtQt",
"QtQtQtQtQtQtQtQtQtQtQtQtieaoifhGaefNaeddaeaedd.9afaeae.9.9.9.d.9.k.Q.d.g.d.d.d.f.x#s.j.j.jbg#jibigQtQtQtQtQtQtQtQtQtQtQtQtQtQtQt",
"QtQtQtQtQtQtQtQtQtQtQtQtQtihiiijhjfcaeaeaedd.Q.y.y.j.d.9.9.9.d.9.w.Q.g.g.g.g.d.v#j.j.Q.I.j#tesikQtQtQtQtQtQtQtQtQtQtQtQtQtQtQtQt",
"QtQtQtQtQtQtQtQtQtQtQtQtQtQtbNilimdOinfNdd.9ed#1#B#P.xafdd.Q.Q.v.Q.f.Q.g.g.f.f.f.I.Q.j.khAioipQtQtQtQtQtQtQtQtQtQtQtQtQtQtQtQtQt",
"QtQtQtQtQtQtQtQtQtQtQtQtQtQtiqirisitiuaWdd.f#1#kg2av#m.kiv#m#B.R.5.Q.Q.g.f.f.f.f.Q.i.jhI#IiwQtQtQtQtQtQtQtQtQtQtQtQtQtQtQtQtQtQt"};
