/* XPM */
static char *dummy[]={
"64 64 267 2",
".4 c #000000",
".X c #000001",
"#Z c #000101",
"#c c #010101",
"#m c #010102",
"#n c #010202",
"bx c #020202",
"#p c #020203",
"#G c #020303",
"#o c #020304",
"bS c #020405",
"#E c #030303",
"bO c #030304",
"bc c #030305",
"ay c #030405",
"#C c #030406",
"#q c #030506",
"#F c #040506",
"bN c #040507",
"aL c #040606",
"#0 c #040607",
"#7 c #040608",
"#l c #050608",
"aS c #050609",
"#D c #050709",
"#x c #06080b",
"a9 c #070809",
"bG c #07080a",
"#P c #07080b",
"aH c #07080c",
"#1 c #07090b",
"#B c #07090d",
"bF c #070a0c",
"#y c #070a0f",
"ba c #080a0d",
"ax c #080a0e",
"bA c #080b10",
"ak c #090a0d",
"aG c #0a0c0f",
"aM c #0a0c11",
"#O c #0b0c11",
"aK c #0b0d11",
"bb c #0b0e13",
"aI c #0b0f14",
"aR c #0b0f15",
"at c #0c1015",
"af c #0d0f16",
"aQ c #0d1015",
"aF c #0d1117",
"aj c #0e1017",
"#U c #0e1118",
"az c #0e121a",
"am c #0f121a",
"#r c #101419",
"aw c #10141b",
"al c #10151a",
"a3 c #10151b",
"aJ c #11151c",
"bu c #11161d",
"a# c #11161e",
"a2 c #12161f",
"bw c #12171d",
"ao c #121720",
"#2 c #131821",
"#d c #131822",
"ac c #141921",
"#A c #141923",
"#k c #151b25",
"a4 c #151c26",
"#H c #171d28",
"a1 c #181e29",
"ag c #181f29",
"av c #181f2a",
"#z c #182029",
"an c #18202b",
"aa c #191f2a",
"a8 c #1a202b",
"aY c #1a2330",
"a5 c #1c2432",
"au c #1e2735",
"aT c #1e2736",
".3 c #1f2939",
"bd c #202835",
"a0 c #212b3b",
"a6 c #222b3b",
"a7 c #242d3f",
"as c #283546",
"ap c #2b394d",
".8 c #2c394f",
"bh c #2d3c54",
"by c #2f3849",
"bV c #2f3c50",
"aE c #2f3c51",
".7 c #303c54",
"aZ c #303e54",
"ar c #303e56",
"#Y c #323e56",
"aq c #324156",
"aX c #32425b",
".Y c #34435c",
"#Q c #35455d",
"ab c #37455f",
"aA c #374862",
".W c #374863",
"#s c #38465b",
"#b c #384b67",
"aP c #3b4c67",
"bY c #3d4d69",
"#3 c #3e516e",
"bD c #3e516f",
"#T c #3f516e",
"bE c #43536c",
"#8 c #455978",
"ad c #45597a",
"aU c #455b7d",
"#a c #475c7d",
".5 c #495f82",
"#j c #4a6184",
"br c #4b6084",
"#w c #4b6283",
"#6 c #4d6488",
"bW c #587093",
"#I c #59739e",
"bq c #5a739c",
"## c #5b76a1",
"be c #5d79a2",
"#e c #5d7aa6",
"aC c #607ba7",
"bI c #607ba8",
"bJ c #617daa",
"aV c #617dad",
"bC c #617fad",
"bk c #657ea4",
"bT c #6980a6",
"#N c #6a8bbb",
"aW c #6c8abe",
"bl c #6f89b0",
"#f c #6f93c8",
"aD c #7090c3",
"#. c #7495cb",
"bM c #7590bc",
"ae c #7696cc",
"aB c #7898cf",
"#t c #7997c8",
"ah c #7999cf",
"bK c #799ed8",
".Q c #7ca3de",
"aN c #7d9ed1",
"#R c #7da1dc",
"bi c #7da2de",
"bp c #7ea1dc",
"bB c #7ea5e0",
"a. c #7fa3de",
"#i c #7fa5e2",
"bZ c #80a3dd",
"#g c #80a6e3",
"bf c #80a7e3",
"#J c #81a7e4",
"bX c #82a8e3",
"#L c #82a8e4",
"#4 c #82a9e7",
"#M c #84a8e5",
".9 c #84a9e3",
".R c #84aceb",
"b# c #85abe9",
"ai c #85ade9",
"bL c #85afef",
"#v c #86adec",
"bg c #86aff0",
"bs c #86b0f2",
".E c #87b0f2",
".C c #87b1f2",
"aO c #88aeed",
"bt c #88afea",
"#5 c #88afed",
"#u c #88b0f0",
"bj c #88b0f1",
".2 c #88b0f2",
"Qt c #88b1f2",
".D c #88b2f2",
"#V c #89afee",
"#S c #89b1ef",
".# c #89b1f2",
".i c #89b2f2",
"bn c #89b2f3",
".h c #8ab1f2",
".g c #8ab2f2",
"bo c #8ab2f3",
".l c #8ab3f2",
".K c #8ab3f3",
".k c #8bb2f2",
"#K c #8bb2f3",
".a c #8bb3f2",
".j c #8bb3f3",
".S c #8bb4f3",
"bP c #8cabde",
"bR c #8cafe9",
".d c #8cb3f2",
".T c #8cb3f3",
".m c #8cb4f2",
".z c #8cb4f3",
".0 c #8db3f2",
".I c #8db4f2",
".n c #8db4f3",
"cg c #8db5f2",
".J c #8db5f3",
"#X c #8eb4f2",
".o c #8eb4f3",
".c c #8eb5f2",
".t c #8eb5f3",
"b0 c #8eb6f3",
"b3 c #8fb4f3",
".6 c #8fb5f2",
".u c #8fb5f3",
".1 c #8fb6f2",
".Z c #8fb6f3",
".N c #90b5f2",
".B c #90b5f3",
"b9 c #90b6f2",
".b c #90b6f3",
".v c #90b7f3",
"#h c #91b6f1",
".r c #91b6f3",
".q c #91b7f3",
"ch c #91b8f3",
"b. c #92b2e7",
".p c #92b7f3",
".w c #92b8f3",
".H c #93b7f3",
".e c #93b8f3",
"ci c #93b9f3",
"bH c #94b5ea",
".x c #94b8f3",
".A c #94b9f3",
"bv c #95b9f1",
".y c #95b9f3",
".s c #95baf3",
".F c #96b9f3",
".f c #96baf3",
"cd c #96baf4",
".V c #96bbf3",
"bU c #97baf2",
".G c #97baf3",
"cf c #97baf4",
".P c #97bbf3",
".M c #98baf3",
".U c #98bbf3",
"bQ c #98bbf4",
"b1 c #98bcf3",
"b4 c #98bcf4",
"b2 c #99bbf3",
"bm c #99bcf3",
"b7 c #99bcf4",
"bz c #9abcf3",
"cc c #9abcf4",
"ce c #9abdf3",
"b6 c #9abdf4",
"b8 c #9bbcf3",
"c# c #9bbcf4",
"#9 c #9bbdf3",
"ca c #9bbdf4",
"b5 c #9bbef3",
"c. c #9cbef3",
"#W c #9dbef3",
"cb c #9dbff4",
".O c #9ebff3",
".L c #9fc0f3",
"QtQtQt.#.a.b.c.d.a.e.f.f.f.f.f.f.c.#.g.g.h.#.#QtQtQtQtQtQtQtQt.#.a.a.#.#.#.i.g.g.g.j.j.j.j.g.k.l.l.m.n.n.o.b.b.b.b.p.q.b.p.r.p.e",
"QtQtQt.#.#.#.#.#Qt.g.q.s.f.f.f.f.c.#.#.#.#.#.#QtQtQtQtQtQtQt.#.q.s.f.p.#.#.#.#.#.#.g.j.j.g.j.g.h.l.a.a.a.m.n.t.u.b.b.v.b.q.q.w.x",
"QtQtQtQtQt.#.#.#QtQt.#.g.l.a.q.c.#.#Qt.#.#.#QtQtQtQtQtQtQtQt.r.y.y.f.f.u.#.#.#.#.h.g.g.g.g.g.g.h.g.l.a.g.a.z.o.t.b.b.b.b.q.q.w.A",
"QtQtQtQtQtQtQtQtQt.#.#.#.#.#.#.#.#.#.#.#QtQtQtQtQtQt.#QtQt.#.e.y.y.f.s.x.g.#.#.#.#.g.g.g.g.h.#.h.h.g.a.a.a.m.n.o.o.B.b.b.b.r.w.w",
".CQtQtQtQtQtQt.D.D.i.i.#Qt.#.#.#.#.#.#.#QtQtQtQtQtQtQtQtQt.E.b.y.F.f.f.e.#.#.#.#.i.b.A.x.m.h.h.g.h.h.g.a.k.a.m.n.n.o.u.b.q.p.q.q",
"QtQtQt.CQt.CQtQtQt.i.D.DQtQtQtQtQtQtQtQtQtQt.CQtQt.C.C.C.E.E.g.e.y.y.x.aQt.#.#.#.m.f.f.G.s.m.h.g.h.#.#.g.g.a.d.m.n.n.t.b.b.q.r.q",
"Qt.C.C.C.C.CQtQtQtQtQtQt.C.CQt.#.#QtQtQtQtQtQtQt.b.A.H.d.C.C.C.I.b.I.iQtQtQt.#.#.m.f.f.f.f.y.g.h.#.h.#.g.g.l.m.m.n.n.n.J.t.r.r.s",
".C.C.C.C.C.CQtQtQtQtQtQtQt.CQtQt.#QtQtQtQtQt.g.H.f.y.y.x.I.C.CQtQt.E.EQt.CQtQtQt.i.s.f.f.f.f.H.e.p.K.#.g.g.l.d.m.n.n.n.t.t.u.e.L",
".E.C.C.CQtQtQtQtQtQtQtQtQtQt.EQtQtQtQtQtQtQt.q.G.f.f.f.y.s.g.C.C.C.C.E.EQtQt.#.#.#.v.f.f.f.f.f.f.M.N.#.g.g.g.d.n.n.n.n.t.t.t.e.O",
"QtQt.E.EQtQtQtQtQtQtQtQtQtQtQt.CQtQtQtQtQt.g.A.y.P.P.P.P.G.k.C.C.C.Q.RQtQt.#.#QtQt.g.x.f.f.f.f.M.f.S.g.g.g.g.k.d.T.n.n.n.t.t.u.U",
"QtQtQtQtQtQtQtQtQtQtQtQtQtQtQtQtQtQtQtQtQtQt.e.V.G.P.G.P.f.l.C.C.W.X.YQtQtQtQtQtQt.#.g.q.x.q.H.e.I.i.g.g.g.g.k.k.m.n.n.J.t.t.u.Z",
"QtQtQt.CQtQtQtQtQtQtQtQtQtQtQtQtQtQtQtQtQtQt.0.f.G.P.U.P.1Qt.2.3.4.4.5QtQt.E.EQt.#.#.#.#.#.#.#.#.g.#.g.g.j.j.g.m.n.n.n.t.t.u.Z.Z",
"Qt.#QtQtQtQtQtQtQt.iQtQtQtQtQtQtQtQtQtQtQt.CQt.d.e.V.f.6QtQt.7.4.4.8.CQt.#.m.EQt.#.#.#Qt.#.#.#.#.#.i.g.g.j.j.T.m.n.n.n.t.t.t.u.Z",
"QtQtQt.#QtQt.#QtQtQt.#QtQtQtQtQt.#.#.#QtQt.2.2.#.#.9#.###a#b#c.4#d#e#f#g#h.s.Z.#.#.#.#.#.#.#.#.#.i.i.i.g.T.j.T.T.n.n.t.t.t.t.Z.Z",
"QtQtQtQtQtQt.#.#QtQt.#QtQtQtQtQtQt.#Qt.#.i.##i#j#k#l#m#c#n#o#c#p#m#c#m#q#r#s#t#u.#.#.#.#.#.h.i.i.g.i.g.g.T.T.T.T.z.n.t.t.t.u.u.u",
"QtQtQtQtQtQtQtQt.iQt.i.#.g.i.#.#QtQt.E.i#v#w#x#c#y#z#A#B#C#D#o#c.4.4#c#E#F#G#m#H#I#J.#.h.#.#.g.g.g#K.g.g.k#L#M.d.m.n.t.t.u.u.Z.A",
"QtQtQtQtQtQtQtQt.#.g.i.g.g.g.g.i.#.#Qt#N#O.4#P#C.4.4.4.4.4.4.X.4.4.4.4.4.4.4.4.4#c#D#Q#R.#.h.h.g.g#K.j#S#T#p#U#V.m.I.t.t.t.t.x#W",
"#X.#.C.C.CQtQt.i.g.g.g.g.g.i.g.g.g.i#Y.4.4.4.4.4.4.4.4#Z#c#p#0#D#q#Z.4.4#Z#c#c#1#m#2#c#D#3#4.h.g.j#5#6#7.4#c#8.T.m.I.I.t.o.u.q#9",
".x.I.#.C.CQt.#.g.a.g.g.g.g.g.i.ga.a#.4.4.4.4.4.4.4.4.4.4.4.4.4.4#Z#m#n#m#c.4.4#m#laaabac#cad.#.haeaf.4.4agah.a.a.n.n.n.n.n.J.u.u",
".I.gQtQtQtQt.i.g.g.g.g.g.g.g.gaiaj.4.4.4akal#c.4.4#Z#Famanaoapaqarasatauavawaxay#c.4.4.4#pazaAaB#m.4#CaC.T.a.l.d.T.n.n.n.n.n.o.t",
"QtQtQtQtQt.#.g.g.g.g.g.g.g.g.gaD.4.4.4aEaF#n#maGa##D#c.4.4.4.4.4.4.4.4#CaHaIawaoaJaKaL#c.4.4.4aM.4.4aN.T.a.d.d.T.n.n.n.n.n.n.o.n",
".E.E.EQtQt.#.g.h.g.g.g.g.g.g.kaOaPaQ#o#caR#A#l#caSaTaUaVaWaX#c.4#m#caYaZa0a1a2a3a#a4a5a6a7a8#ca9#c#0b..H.T.k.d.T.n.n.n.o.t.o.n.J",
".E.E.2.#.#.g.g.g.#.g.#.#.g.g#Kb#ba#xaubb#cbcbdbebf.E.E.C.Ebgbh.4aR#Cbi.#.#.#.#bj.#.#Qt.#.#.nbk#n.X#cblbm.e.n.k.n.n.n.n.o.n.n.o.o",
".E.E.2Qt.#.#.h.h.g.#.#.#.i.ibnbobpbq#cbbbrbp.a.#.#Qt.C.Cbs.#bt#2#cbubj.#.#.#.#.#.#.#.#.#.#.Zbvbw.4bxbybzbm.G.fbm.y.n.n.o.n.o.t.t",
".E.E.2.#.#.h.h.h.#.g.h.h.gbnbnbo.jaubAbB.g.g.g.#QtQt.i.dQt.g.mbC.XbDQt.#.#.#.#.i.#.#.#.#.#.n.fbE.4bFbGbHbzbmbmbz#9.p.n.o.n.n.o.t",
"Qt.E.2.g.#.h.h.#.#.#.#.gbobobo.j.jbIbJ.i.i.iQt.#Qt.2.i.d.E.CQt.CbKbLQtQtQt.#.#.#.#.#.#.#.#.#.bbM.4bNbObPbQ.Ubm#9#9.y.n.n.n.n.n.t",
"Qt.C.#.#.#.h.h.h.h.#.i.gbobobo.j.j.j.g.i.#.#.2.2Qt.2.2.E.E.E.C.C.C.E.EQt.#.#.#.#.#.#.#.#.h.#.gbRbS#ZbTbU.Z.tbm#9#9.q.n.z.n.n.n.o",
"QtQt.#.#.g.g.g.g.h.h.h.g#Kbobobobo.j.g.g.#QtQtQt.2.2.2.E.EQt.E.C.C.E.E.E.C.#.#.#.#.#.#.h.h.h.g.gbV.4bW.t.a.j.v.f.p.n.n.z.n.n.n.n",
"QtQt.#.i.gbobobobo.g.g#K.j.jbobo.j#K.k.g.#QtQtQt.2.2QtQt.EQt.E.C.C.E.E.E.E.CQt.#.#.#.#.#.h.h.g.gbXbYbZ.d.T.T.T.T.T.n.n.n.n.n.n.n",
"QtQtQt.i.gbobo.K.Kbo.K.K.j.j.Kbobobo.g.iQtQtQtQtQtQt.E.E.C.C.C.C.C.E.E.E.E.E.CQt.#.#.#.#.#.#.g.g.j.g.k.d.T.T.T.T.n.n.n.n.n.n.t.t",
"QtQtQt.#.gbobo.K.Kbobobo.K.Kbobnbobo.#.#QtQtQtQt.2.2.E.E.C.E.EQtQt.E.E.E.E.E.C.#.#.#.#.#.#.h.g.g.j.g.k.T.k.T.z.z.n.n.n.n.t.t.t.t",
"QtQtQt.#.gbobo.K.Kbobobobobobobnbo.g.#.#QtQtQtQt.2.2QtQt.CQt.E.E.E.E.E.E.C.CQt.#.#.#.#.#.g.g.i.g.g.g.k.T.d.T.T.n.n.n.n.n.J.t.Z.b",
"QtQtQt.#.i.hbo.K.Kbobobobobobobo.i.g.gQt.2.E.EQt.E.EQtQtQt.E.E.E.E.E.E.C.C.C.#.#.#.#.#.#.g.g.i.g.g.g.d.T.n.n.n.n.n.n.n.tb0.Z.Z.b",
"QtQtQtQt.#.g.hbobobobobobo.g.h.#.#.6.x.bQt.E.E.E.EQtQtQtQtQt.E.E.E.E.EQtQt.#.#.#.#.#.#.#.g.g.g.g.g.a.d.n.n.n.n.n.n.t.u.1.6.b.b.v",
"QtQt.i.iQt.#.i.g.g.gbo.g.#.#.#Qt.2.q.f.x.g.E.E.EQtQtQtQtQtQtQt.E.E.E.EQt.#.#.#Qt.#.g.g.h.g.g.g.g.g.T.n.n.n.n.n.t.t.t.b.Z.b.b.v.q",
".i.i.iQtQtQt.#Qt.i.i.i.#Qt.2.2.2Qt.I.q#X.#.E.E.E.E.EQtQtQtQt.E.E.E.EQt.#.#.#.#.#.#.#.g.g.g.g.g.a.a.T.n.n.n.n.n.J.t.u.b.b.b.q.q.q",
".i.i.iQtQt.#QtQt.#QtQtQt.2.EQt.E.u.e.gQtQtQt.E.E.C.C.C.C.C.C.C.E.E.E.E.#.#.g.#.#.h.#.g.g.j.j.a.d.T.z.n.n.n.n.n.o.J.Z.b.b.q.v.q.w",
".i.iQtQtQtQt.#QtQtQtQt.CQt.b.b.d.x.f.qQt.CQtQtQtQt.C.C.C.C.C.C.EQtQtQt.#.q.x.n.#.h.#.h.g.j.g.a.d.T.n.n.n.n.o.o.o.t.u.b.v.q.q.q.w",
"QtQtQtQtQtQtQt.CQtQtQt.#.q.s.s.H.x.f.HQtQtQtQtQtQtQt.C.C.C.C.C.CQtQtQt.Z.f.G.f.n.#.h.i.g.g.g.d.k.n.n.n.n.n.o.t.t.t.Z.r.v.q.q.p.w",
"QtQtQtQtQtQtQtQt.C.C.C#X.f.f.f.f.p.s.HQtQtQtQtQtQt.C.C.C.CQt.C.C.C.C.i.A.f.f.G.ybo.g.g.g.g.a.a.T.n.n.n.n.n.o.o.t.u.Z.b.q.q.p.e.e",
"QtQtQtQtQtQtQtQtQt.CQt.A.f.f.f.f.y.b#XQtQtQtQtQtQtQtQtQt.#QtQt.C.C.C.#.A.G.P.G.f.z.#.g.n.j.a.a.T.n.n.n.J.o.o.t.u.u.u.Z.q.q.p.w.w",
".CQtQtQtQtQtQtQt.#Qt.m.f.f.f.f.f.f.b.C.C.C.C.CQtQtQtQtQtQtQtQtQtQtQtQt.p.f.f.G.f.j.h.b.U.f.T.a.a.T.T.n.t.t.t.t.u.u.u.Z.r.q.e.w.w",
"Qt.CQtQtQtQtQtQtQtQt.c.f.f.f.f.f.f.y.#.C.CQt.C.CQtQt.C.#.#QtQtQt.#.#.#.g.s.f.G.p.g.g.b.P.U.t.T.T.n.n.t.t.u.Z.u.u.u.u.Z.q.w.e.w.w",
"QtQtQtQtQtQtQtQtQt.#.a.f.f.f.f.f.f.A.#.C.C.C.C.CQtQt.CQtQt.#.#.#.#.#.#.#.Z.A.p.g.h.g.g.b.q.d.T.n.n.n.t.t.t.t.u.Z.u.u.Z.v.p.p.w.w",
".i.DQtQt.DQtQtQtQtQt.i.q.f.f.f.f.f.b.C.C.CQt.C.CQtQt.C.C.E.#.#.#.#.#.#.#.#.h.h.g.g.k.g.k.a.d.T.n.n.t.t.t.n.t.Z.Z.u.u.Z.q.q.q.p.q",
".D.D.DQtQt.DQtQt.i.C.C.i.e.f.V.f.6.i.C.CQtQt.E.E.CQtQtQt.CQtQt.#.h.#.#.#.i.g.g.k.g.g.k.k.a.a.T.n.n.t.t.n.n.Z.u.u.t.u.Z.b.v.q.v.b",
".i.i.D.D.D.D.D.D.i.i.C.C.i.I.c.m.i.D.D.C.C.C.CQt.C.#.#.CQtQtQt.#.h.#.g.g.g.g.k.a.a.k.k.a.a.m.n.n.t.t.t.u.t.u.t.t.u.Z.b.b.b.b.b.Z",
".i.i.i.D.i.I.c.i.i.iQtQtQt.i.D.D.i.D.DQtQtQt.C.C.#.#.#Qt.#.#.#.h.h.#.g.g.g.g.a.a.l.a.a.a.m.n.n.n.t.t.n.u.Z.u.t.t.u.Z.b.b.b.b.Z.b",
".i.i.i.d.e.x.A.cQtQtQtQt.i.i.D.D.D.D.DQtQtQtQtQtQt.#.#.#.#.h.g.h.h.g.g.g.k.g.a.a.a.a.a.a.n.n.n.n.n.t.t.t.t.t.t.t.u.u.b.b.b.b.Z.b",
".g.g#X.y.f.f.s.e.kQt.i.i.i.i.i.D.D.D.DQtQt.#.#QtQtQt.#.#.h.g.g.h.g.g.g.g.k.k.a.a.d.d.d.d.n.n.n.n.n.t.t.t.t.t.J.t.t.u.Z.b.b.b.b.b",
".i.I.Ub1.G.P.P.s.d.i.i.i.i.i.i.i.i.i.i.#QtQt.i.#.#.#.#.g.g.g.g.g.g.g.g.g.k.a.k.a.a.d.d.T.n.n.n.n.n.b.A.b.t.t.t.t.u.u.u.b.Z.Z.b.b",
".d.Ubzbmb2.P.P.P.I.i.i.i.g.i.D.D.i.i.#.#.#.D.i.i.#.#.g.g.h.h.g.g.g.a.a.g.k.a.a.a.a.a.d.T.n.n.n.n.t.U#9.P.o.o.o.t.t.Z.u.Z.Z.Z.Z.Z",
".A.Ubmb2b2.Ub1.y.l.l.g.g.g.i.i.i.i.i.#.#.i.i.i.i.i.g.g.g.g.g.g.k.a.a.a.a.d.a.a.a.a.a.d.n.n.n.n.n.n.f#9#9.q.t.ob3.u.Z.Z.Z.Z.Z.Z.Z",
"bQb4.Ubmb1bmbz.p.e.P.p.l.g.b.t.g.i.i.i.i.i.g.i.i.i.g.g.g.k.a.k.T.a.T.a.b.e.o.a.a.a.n.m.I.n.n.n.I.n.tbmb5bm.Z.u.u.u.Z.Z.Z.Z.Z.t.t",
"b6b7b6bzbzb8.fb9.Ub4b4.b.k.n.k.g.g.g.g.i.i.i.i.g.g.g.g.g.g.k.T.a.k.T.n.Vb2.p.a.a.u.y.o.I.n.n.n.n.n.t.Pc.bm.u.t.u.u.Z.Z.Z.Z.t.t.b",
"c#cacbcabzb4.c.m.f.Ub4.r.a.a.k.k.k.g.g.g.i.g.g.g.g.g.g.k.T.j.T.T.T.a.T.s.U.r.m.xbm#9bm.b.I.n.n.n.t.u.B.e.b.t.t.u.u.Z.Z.t.Z.t.t.t",
".ycccabQcd.o.T.T.t.y.w.T.d.d.k.k.k.g.g.g.g.g.g.g.j.k.k.T.T.T.T.n.T.a.a.n.u.m.bcece#9b5.f.J.J.n.t.u.u.u.u.u.u.u.u.u.Z.Z.b.Z.t.c.u",
".Zcfcf.x.t.n.z.T.T.T.a.a.d.a.k.k.k.l.g.g.g.g.g.T.T.T.T.T.T.T.n.T.d.d.m.m.a.a.bce#9ceb5.U.J.J.J.t.t.t.u.u.u.u.Z.Z.Z.t.Z.b.b.Z.u.u",
".b.b.Z.n.t.o.n.n.T.T.d.d.a.a.a.a.a.a.a.q.a.a.T.n.T.T.n.J.z.n.T.m.m.m.m.m.I.m.b#9b5#9b5bm.Jcg.u.t.t.u.Z.Z.Z.Z.Z.Z.t.Z.t.b.b.b.b.b",
".A.r.b.Z.t.Z.t.t.t.T.T.T.T.d.d.a.a.a.T.e.n.n.n.n.n.n.J.J.n.n.T.n.n.m.m.m.I.I.nbmc.b5b5.P.c.c.u.u.u.u.Z.Z.Z.Z.Z.Z.Z.t.Z.b.q.e.q.b",
".s.e.r.Z.u.b.b.b.Z.n.T.T.n.d.d.d.a.a.d.d.a.n.n.n.t.t.u.J.J.J.n.J.I.I.I.I.I.I.J.u.P#9ce.x.u.u.u.u.u.Z.Z.Z.Z.Z.b.Z.Z.Z.b.b.ec.b2.p",
".f.s.e.p.b.p.b.b.b.t.t.I.m.d.d.m.m.m.m.m.n.o.n.J.b.u.b.u.t.t.t.J.I.I.I.I.Icg.J.t.J.b.b.u.u.u.u.u.Z.Z.Z.Z.Z.Z.b.b.b.b.b.b.w.P.A.r",
".P.s.e.qch.e.b.Z.Z.u.u.t.t.I.m.m.m.m.m.n.t.t.t.t.b.b.b.b.B.u.t.t.t.I.t.tcg.c.t.t.u.u.u.B.b.b.Z.b.q.r.b.b.Z.b.b.b.b.b.b.q.q.q.r.r",
"bzb1.fci.Aci.w.b.b.r.b.b.Z.u.t.u.n.J.n.t.t.t.t.b.q.q.q.r.q.r.u.t.tcg.t.c.c.t.t.u.b.B.B.r.q.r.r.q.q.q.p.q.b.r.r.r.b.b.b.b.b.r.r.r"};
