/* XPM */
static char *dummy[]={
"64 64 607 2",
"Qt c None",
"gi c None",
"bt c None",
".# c #89b1f2",
"hC c #91b7f3",
"#e c #acc6f3",
"gu c #83acf2",
"gR c #88b1f2",
".P c #8db4f3",
"ad c #8ab8f3",
"g# c #88b1f2",
"gf c #88b1f2",
"cx c #8eb5f3",
"hd c #89b2f2",
"bU c #8eb4f3",
".o c #8fb6f3",
"gB c #88b1f2",
"ae c #96baf3",
"#D c #8ab2f2",
"#Q c #8eb5f3",
"gX c #91b6f3",
"el c #91b7f3",
".6 c #88b1f2",
"hc c #8eb5f3",
".p c #88b0f2",
"hw c #8eb5f3",
"gM c #88b1f2",
"f4 c #88b1f2",
"hp c #87b2f2",
"gk c #89b2f2",
"#p c #9fc0f3",
"dG c #90b6f3",
"a6 c #8eb5f3",
"#R c #8bb3f2",
"gQ c #91b7f3",
"#f c #88b1f2",
".B c #89b1f2",
"ho c #8db5f2",
"g8 c #90b6f3",
"gY c #88b2f2",
"go c #89b2f2",
"f8 c #88b1f2",
".5 c #8fb5f3",
"cU c #8eb5f3",
"av c #8eb4f3",
"eZ c #92b8f3",
"gx c #88b1f2",
"g9 c #89b2f2",
"gL c #92b7f3",
"#3 c #96baf3",
"gd c #88b1f2",
"#q c #89b1f2",
"g3 c #91b6f3",
".Q c #88b1f2",
"hh c #8eb5f2",
".a c #89b2f2",
"hB c #91b6f3",
"#2 c #8db4f3",
"ch c #8db4f3",
".A c #8fb6f3",
"ew c #91b7f3",
"gH c #88b1f2",
"hi c #89b2f1",
"f1 c #88b1f1",
"gj c #88b1f2",
"af c #96baf3",
"#E c #8ab1f2",
"gG c #90b6f3",
"gW c #91b6f3",
".7 c #88b1f2",
".q c #88b1f2",
"hb c #8eb5f3",
"hv c #90b5f3",
"#C c #9abcf3",
"d3 c #8fb6f2",
"bs c #8eb5f3",
"hx c #91b7f2",
"gS c #89b2f2",
"gm c #88b1f1",
"f7 c #88b1f2",
"#S c #89b1f2",
"aN c #8db4f2",
"#g c #88b1f2",
"gP c #91b7f3",
".C c #8ab2f2",
"dh c #8eb5f3",
"g7 c #8fb5f3",
"hn c #8eb5f3",
"#d c #93b8f3",
"f. c #91b7f2",
"gv c #88b1f2",
"g4 c #88b1f1",
"ga c #88b0f1",
"cw c #8db3f2",
"ac c #8db5f4",
".O c #8eb5f2",
"eK c #91b7f2",
"#4 c #94b9f3",
"#r c #88b1f2",
"gK c #91b7f3",
".R c #88b1f2",
"hg c #8eb5f3",
"g2 c #90b5f3",
".b c #8ab2f2",
"hA c #91b7f3",
"he c #8bb3f4",
"fZ c #89b2f4",
"gg c #87b0f1",
"gC c #87b1f2",
"ek c #92baf6",
".n c #90b8f7",
"#P c #8fb5f3",
"bT c #8db3f2",
"ag c #96baf3",
"#F c #89b1f2",
"gl c #8cb6f7",
"gF c #91b7f3",
".8 c #88b1f2",
"a5 c #92baf9",
".r c #89b1f2",
"gN c #89b2f4",
"ha c #8eb5f2",
"hu c #91b7f3",
"fj c #97befa",
"hq c #8cb4f3",
"#o c #9fc1f8",
"f5 c #88b1f2",
"f9 c #8eb9fc",
"gZ c #8eb9fa",
"cT c #95befe",
".4 c #95bcfb",
"dF c #90b6f3",
"gy c #91bcff",
"aq c #000000",
"c0 c #000001",
"c1 c #000100",
"b5 c #010000",
"dm c #010001",
"b1 c #010101",
"by c #010102",
"cD c #010202",
"bF c #010203",
"cF c #020202",
"a2 c #020203",
"do c #020204",
"ey c #020303",
"cE c #020304",
"b4 c #030304",
"cG c #030404",
"bI c #030405",
"bK c #030505",
"dn c #030506",
"cZ c #040406",
"cH c #040506",
"b2 c #040507",
"bp c #050508",
"cM c #050606",
"dO c #050609",
"eN c #050708",
"cn c #050709",
"dK c #05070a",
"eP c #060709",
"bx c #06070b",
"dJ c #06090c",
"d5 c #07090c",
"cb c #07090d",
"fB c #070a0d",
"ft c #08090c",
"#9 c #08090d",
"cl c #080a0d",
"d9 c #080a0e",
"cC c #080b0e",
"fd c #090a0e",
"dc c #090b0e",
"eD c #090b0f",
"dv c #090c0f",
"c2 c #090c10",
"eC c #090c11",
"eM c #090d10",
"b9 c #0a0c11",
"c5 c #0a0d12",
"fc c #0a0e12",
"ds c #0b0d12",
"eo c #0b0d13",
"fl c #0b0e12",
"c4 c #0b0e13",
"dt c #0c1015",
"cI c #0c1016",
"fJ c #0c1017",
"du c #0d0f15",
"c7 c #0d1015",
"fu c #0d1116",
"fv c #0d1117",
"dl c #0d1218",
"e1 c #0e1116",
"b6 c #0e1118",
"ca c #0e1219",
"eO c #0e131a",
"d6 c #0f131b",
"bH c #0f141b",
"eB c #0f141c",
"dp c #0f151b",
"c3 c #10141b",
"ep c #10141d",
"dq c #10151c",
"c. c #10151e",
"c6 c #11151e",
"dP c #11161f",
"a3 c #12171f",
"bD c #13181e",
"eh c #131921",
"bG c #141922",
"b. c #141b25",
"b7 c #151a24",
"fb c #151c25",
"bC c #161c25",
"dQ c #161c26",
"cm c #171d27",
"dk c #171e28",
"bJ c #171e29",
"dN c #171f29",
"dX c #1a212b",
"dr c #1a212d",
"aQ c #1a2330",
"a. c #1b2330",
"b3 c #1b2331",
"d8 c #1d2632",
"ap c #1d2633",
"cJ c #1e2533",
"aJ c #1e2632",
"fa c #1e2634",
"dL c #202a37",
"bL c #202a38",
"bE c #212834",
"c8 c #222c3d",
"cN c #232a37",
"ei c #232d3c",
"dw c #232d3e",
"eA c #242f41",
"fk c #252f40",
"c# c #273244",
"eQ c #273447",
"e2 c #283448",
"aI c #283548",
"d7 c #29374b",
"co c #2a3442",
"fC c #2a3649",
"b# c #2a364b",
"fI c #2a374a",
"dj c #2a374b",
"b8 c #2b354a",
"fA c #2c394d",
"fs c #2d3a4e",
"dI c #2d3c51",
"cB c #2e3b51",
"e. c #2f3c52",
"dM c #2f3d55",
"db c #303b4c",
"aE c #313f57",
"cK c #334057",
"ez c #34425b",
"eV c #34435a",
"dR c #35435c",
"bM c #35455e",
"f# c #36455e",
"fM c #384963",
"b0 c #394a66",
"dd c #3a475c",
"dA c #3a475d",
"eL c #3b4b68",
"cY c #3b4c66",
"cL c #3c4b61",
"dY c #404f66",
"fm c #40516d",
"bz c #405372",
"aD c #415575",
"dB c #425168",
"ar c #425573",
"a1 c #445675",
"fD c #465b7c",
"bB c #465b7d",
"fN c #485d7f",
"d4 c #4a6182",
"ck c #4b6285",
"bP c #4d6184",
"fe c #4d6487",
"e7 c #4e668b",
"aP c #506990",
"bq c #526a8f",
"c9 c #536c93",
"eU c #536c95",
"e# c #556e96",
"eW c #56709a",
"es c #587099",
"fw c #5a739d",
"eg c #5a749c",
"fr c #5a749d",
"bi c #5b76a0",
"bf c #5d78a5",
"dx c #5d79a5",
"#Z c #5e77a3",
"bw c #617dac",
"en c #6381ae",
"eR c #6381b2",
"#8 c #6481af",
"bk c #6887b8",
"bA c #688abc",
"bh c #6988b9",
"bN c #6988bb",
"fG c #6a88b9",
"dS c #6b8bbe",
"eE c #6d8dc1",
"cA c #6e8dc2",
"e3 c #6e91c7",
"cp c #7088b0",
"a4 c #708fc2",
"aR c #7295cc",
"bO c #7393c8",
"bd c #7490bf",
"e0 c #7597cd",
"bg c #7597ce",
"e6 c #7698cb",
"cc c #7791bb",
"bc c #7793c0",
"fH c #789ad1",
"bo c #799bd3",
"e8 c #799ed8",
"dz c #7b98c6",
"er c #7b9fd8",
"dW c #7c9bcc",
"eS c #7c9fdc",
"ex c #7ca2dd",
"dZ c #7d9ed1",
"ea c #7da2dd",
"cX c #7da3df",
"be c #7ea1da",
"fR c #7ea2db",
"fS c #7ea2dd",
"bj c #7ea2df",
"aF c #7ea3df",
"d. c #7fa4e0",
"cO c #809cc9",
"#Y c #80a4df",
"fO c #80a5e0",
"eq c #81a7e5",
"eT c #81a9e7",
"aC c #81aae8",
"dH c #82a8e5",
"fn c #83aae7",
"a# c #84a9e5",
"a9 c #84acec",
"ao c #85ace9",
"aH c #86adea",
"fg c #86aff0",
"fE c #87aeec",
"ak c #87afef",
"bl c #87aff0",
"aB c #87b0f1",
"#V c #87b0f2",
"#u c #87b1f2",
"fX c #87b1f3",
"fh c #87b2f3",
"da c #88aade",
"fq c #88afed",
"bm c #88b0f0",
"al c #88b0f1",
"cV c #88b0f2",
"fK c #88b1f0",
"ge c #88b1f1",
"#k c #88b1f2",
"#6 c #88b1f3",
"bV c #88b2f2",
".M c #88b2f3",
"fo c #88b3f4",
"et c #89aeed",
"as c #89b0ed",
"ed c #89b0f2",
".g c #89b1f2",
"aV c #89b1f3",
".V c #89b2f2",
"bv c #89b2f3",
"gq c #89b2f4",
"gz c #89b3f2",
"fP c #89b3f4",
".F c #89b3f5",
"em c #89b4f4",
"aj c #89b4f6",
"e4 c #89b4f7",
"bQ c #8aafe8",
"aK c #8ab0ee",
".h c #8ab1f2",
".e c #8ab2f2",
"az c #8ab2f3",
"aY c #8ab2f4",
"di c #8ab2f5",
".i c #8ab3f2",
"fV c #8ab3f3",
"ee c #8ab3f4",
"#j c #8ab3f5",
"ba c #8ab3f6",
"e5 c #8ab4f7",
".G c #8bb2f2",
"am c #8bb2f3",
".u c #8bb3f2",
".f c #8bb3f3",
"aZ c #8bb3f4",
"#U c #8bb3f5",
"f3 c #8bb4f2",
"fU c #8bb4f3",
"eG c #8bb4f4",
"cW c #8bb4f5",
"aS c #8bb4f6",
"#h c #8bb4f7",
"aL c #8bb5f4",
"f0 c #8bb6f9",
".L c #8cb2f2",
".v c #8cb3f2",
".w c #8cb3f3",
"#K c #8cb3f4",
".j c #8cb4f2",
"#z c #8cb4f3",
"eH c #8cb4f4",
"#7 c #8cb4f5",
"fx c #8cb4f6",
"gn c #8cb5f3",
"a0 c #8cb5f4",
"an c #8cb5f5",
"ff c #8cb5f6",
"fL c #8cb5f7",
"aG c #8cb5f8",
"gp c #8cb6f8",
"eX c #8cb6fa",
"#H c #8cb7fa",
"aO c #8cb8fc",
"#J c #8db3f2",
"#l c #8db3f3",
"#M c #8db4f2",
".k c #8db4f3",
"fz c #8db4f6",
".K c #8db5f2",
".x c #8db5f3",
"#T c #8db5f7",
".D c #8db5f8",
"aa c #8db6f5",
"eF c #8db7f9",
"#. c #8db7fa",
"gh c #8db7fb",
"gD c #8db8fa",
"bZ c #8db8fc",
"dV c #8eb4f0",
".0 c #8eb4f2",
"#N c #8eb4f3",
".3 c #8eb5f2",
".l c #8eb5f3",
"at c #8eb5f4",
"br c #8eb5f8",
"#w c #8eb6f3",
"dU c #8eb6f5",
"#X c #8eb6f7",
"fT c #8eb6f8",
"fQ c #8eb7f8",
".t c #8eb7fa",
"ec c #8eb7fb",
"aW c #8eb8fb",
"fW c #8ebaff",
"f6 c #8fb4f3",
".2 c #8fb5f2",
".m c #8fb5f3",
"d1 c #8fb6f2",
".y c #8fb6f3",
"dD c #8fb6f5",
"d0 c #8fb7f7",
"bY c #8fb8f8",
"eI c #8fb8fb",
"aX c #8fb8fc",
"#0 c #8fb9fa",
"gw c #8fbafd",
"#t c #8fbafe",
"gb c #8fbbfd",
"fY c #90b5f3",
".J c #90b6f2",
".H c #90b6f3",
"bu c #90b7f2",
"eu c #90b7f3",
"g6 c #90b7f5",
"fF c #90b9fd",
".d c #90bafe",
"dT c #90baff",
"#s c #90bbff",
"gI c #90bdff",
"cj c #91b6f1",
"#A c #91b6f2",
".U c #91b6f3",
"#W c #91b7f2",
"ce c #91b7f3",
"ej c #91b7f4",
"hl c #91b7f6",
"g0 c #91b8f2",
"hf c #91b8f3",
"dE c #91b8f6",
"aU c #91b9f9",
"#L c #91b9fb",
"bS c #91bafa",
"bn c #91bafe",
"#5 c #91bbff",
"eb c #91bcff",
"g5 c #91bdfe",
"f2 c #91bdff",
"gT c #91beff",
"fi c #92b6f2",
".Z c #92b6f3",
"aA c #92b7f2",
".1 c #92b7f3",
"hz c #92b8f2",
"## c #92b8f3",
"gO c #92b8f6",
"cv c #92bbfa",
"#i c #92bdff",
".9 c #92beff",
"#I c #93b7f3",
"#a c #93b8f3",
"ay c #93b9f3",
"bb c #93b9f7",
"bR c #93b9f9",
"cz c #93baf8",
"h. c #93bbfb",
"d# c #93bcfd",
".c c #93bdff",
"#G c #93beff",
".s c #93bfff",
"hj c #94b8f2",
".I c #94b8f3",
"gr c #94b9f2",
".Y c #94b9f3",
"cy c #94baf6",
"#O c #94baf7",
"#n c #94baf8",
"ht c #94bbfa",
"gU c #94bbfb",
"au c #94bcfd",
"ab c #94bcfe",
"aT c #94bdfb",
".E c #94beff",
"#y c #95b8f3",
".T c #95b9f3",
"#x c #95baf3",
"df c #95baf5",
"gE c #95bcfb",
"ef c #95beff",
"#v c #96b9f3",
".W c #96baf3",
"bW c #96bbf3",
"fy c #96bdf9",
"g1 c #96beff",
".N c #96bffc",
"cg c #96bfff",
"dg c #96c0ff",
"dC c #97b9f1",
".X c #97baf3",
"a7 c #97bbf3",
"bX c #97bbf4",
"eJ c #97bffe",
"#m c #98baf3",
"a8 c #98bbf3",
"cs c #98bcf3",
"hs c #98bcf4",
"cd c #98bcf7",
"ax c #98bdf6",
"eY c #98bffb",
"aM c #98c0fe",
"#c c #98c0ff",
"#1 c #98c1ff",
".z c #98c2ff",
"h# c #98c3ff",
"#b c #99baf3",
"hk c #99bbf3",
"de c #99bbf4",
"ct c #99bcf3",
"ci c #99bcf4",
"gt c #99bdf3",
"aw c #99bef8",
".S c #99c0ff",
"e9 c #99c1fd",
"hm c #99c1ff",
"d2 c #99c2ff",
"cf c #9abcf3",
"cQ c #9abcf4",
"cR c #9abdf3",
"cr c #9abdf4",
"gJ c #9ac2ff",
"gA c #9ac3ff",
"cu c #9bbdf3",
"gs c #9bbef3",
"hr c #9bbef7",
"ai c #9bc0fb",
"ev c #9bc3ff",
"dy c #9bc4ff",
"cS c #9cbdf3",
"g. c #9cbef3",
"gc c #9cbff3",
"gV c #9cc3ff",
"fp c #9cc4ff",
"cP c #9ec1f9",
"cq c #9fc3fb",
"hy c #a1c7ff",
"ah c #a1c8ff",
"#B c #a2c8ff",
"QtQtQtQtQtQtQtQtQtQtQtQtQtQtQtQtQtQtQtQtQtQtQt.#.a.b.c.d.e.f.e.e.e.g.h.e.h.g.g.e.e.i.j.j.k.k.k.l.k.l.l.m.n.oQtQtQtQtQtQtQtQtQtQt",
"QtQtQtQtQtQtQtQtQtQtQtQtQtQtQtQtQtQtQtQtQt.p.q.r.s.t.g.g.e.e.g.e.i.h.h.e.h.g.g.e.e.i.u.v.k.w.k.k.x.l.m.y.z.AQtQtQtQtQtQtQtQtQtQt",
"QtQtQtQtQtQtQtQtQtQtQtQtQtQtQtQtQtQtQt.B.C.D.E.F.g.g.g.g.g.G.H.I.J.K.G.g.g.L.M.g.e.e.e.G.v.v.k.k.k.l.m.l.N.O.PQtQtQtQtQtQtQtQtQt",
"QtQtQtQtQtQtQtQtQtQtQtQtQtQtQtQtQt.Q.R.c.S.T.U.w.g.g.g.g.V.m.W.X.X.Y.Z.0.1.1.2.g.e.e.e.e.G.v.k.k.k.l.l.l.3.4.5QtQtQtQtQtQtQtQtQt",
"QtQtQtQtQtQtQtQtQtQtQtQtQtQt.6.7.8.9#.##.W.W.W#a.v.g.g.g.V.J.X.W.W.W.W.T.W#b.1.i.e.e.e.f.e.j.k.k.l.l.l.l.m#c#d#eQtQtQtQtQtQtQtQt",
"QtQtQtQtQtQtQtQtQtQtQtQt#f#g#h#i#j#k#l.Y.T.W.W.W.m#k.g.g.g.j.Y.W.W.W.W.W.X#m.y.V.e.e.f.f.w.j.w.k.l.l.l.m.m#n#o#pQtQtQtQtQtQtQtQt",
"QtQtQtQtQtQtQtQtQtQt#q#r#s#t#k#k#k#u.k.Y.T#v.W#v.v#k#k.g#k#k#w.Y.W.W.W#x#y#a.v.g.e.e.f.f.f.w.w#z.k.l.l.l.l#A#B#CQtQtQtQtQtQtQtQt",
"QtQtQtQtQtQtQt#D#E#F#G#H#k#k#k#k#k#k.V.H.Y#v.T.H.g#k#u#k#k.g.V.j#I#a.T.U#J.g.V.g.V.V.e.w#K.w#L#z.k#M.l.l#N.l#O#P#QQtQtQtQtQtQtQt",
"QtQtQtQtQt#R#S#T.c#U.g#k#k#k#k.g#k#k#V.V.l#W.y.V#V#k#u#k.g#k#k#k.h#z.v.g#k.g.g.V.V.V.e.w#X#Y#Z#0.j#M#M.l.k.x.0#1#2QtQtQtQtQtQtQt",
"QtQtQt#3#4.E#5.g.g.g.g#k#k#k#k#k#u#u#V#u#k.u.g#V#6#V#k#k.g#k#k#k.g.g#k.g.g.g.g.V.e.e.e#7#8#9a.a#aa.k.k.k.k.k.kabacadQtQtQtQtQtQt",
"aeafagahai.3.g#k.g.g#k#k#k#k#k#u.j.L.V#u#u#u#u.Majakal.V#k#V#k.g.g.g#k.g.g.h.V.e.eamanaoapaqaras.v.k.k.k.k.k.katauavQtQtQtQtQtQt",
"awahax.Yay.u.g.g.g.g#k#k#u#kazay.T#aaA#w.g#uaBaCaDaEaFaG#V#k#V.g.g.g.g.g.g.g.e.e.e#KaHaIaqaJaKaL.v.w.k.k#N.l#N.kaMaNQtQtQtQtQtQt",
".Y.1.K.j.j.g.g.g.g#k#k#k#k#u.U.W.T.W.T.W.v#uaOaPaqaQaRaS.eaTaU#U.daVaWaXaYaX.haZ.ea0a1a2a3a4an.u.w.k.k.k#N#N.k#N.la5a6QtQtQtQtQt",
".e.g.g.g.g.g.g#k#k#k#k#k#k.u.T.W.Wa7a7a8.H#ka9b.aqb#.Mbabbbcbdbebfbgbhbibjbkblbmbnbobpaqbqbr.u.L.v.w#z.k#z#N.k.k#N.zbsbtQtQtQtQt",
".g.g.g#k.g#k#k.g#k#k#k#k#u.l.W.Wa7a7.Xa7bubvbwbxbybzbAbBbCbDbEbFbGbHbIbJbKbLbMbNbObPaqbGbQbR.w.v.e.l#a.H.k.k#N.k.kbSbTbUQtQtQtQt",
".V.VbV#k#k#k.g.g#k#k#k#k#u.j.TbW.Xa7a8bXbYbZb0b1b2b3b4aqb5a2aqaqaqaqb6b7b8aqb9c.c#cab1cbcc.Wcdce.1a7cfa8ce#N.k.k.k#JcgchQtQtQtQt",
".VbVbV#u#u#u#k.g#k#k#k#k#k.V.U.Y.Xa7cicjbgckaQaqa2aqaqb1b1aqaqb5bIa2clcmcnaqaqaqaqaqa2aqcocpcqcrcsctcfcu.X.m#z.k.k.kcvcwcxQtQtQt",
"#k#k#k#k#k#u#V#k#k#k#k#k#k#k.h#N.3cyczcAcBcCaqbIcDaqaqaqaqaqaqaqbycEb1cFcGcHcIcJcKcLb4aqcMcNcOcPcQa8cRcSa8.l.k#z.k.k#McTcUQtQtQt",
"#k#k#k#k#k#k#k#u#k#k#k#k#k#k#ucVcWcXcYcZaqbIcHa2c0a2bIc1aqc0c2c3c4c5c6c7c2c8c9d.d#dadbdcaqaqdddedf.1a8cs.1.k.k.k.k.k.ldgdhQtQtQt",
"#k#k#k#k#k#k#k#k#k#k#k#k#k#kcVdicXdjcEdkdla2aqdmcHdnaqdodpdqdrdsdtdudvdwdxaB#5aS#zdydzdAaqaqdBdCdD#z#w.H.w.k.k.k.k.l.ldEdFdGQtQt",
"#k#k#k#k#k#k#k#k#k#k#k.g.g#kbvdHdIb1dJb2aqaqb1aqaqdKdLdMdNbIdOdPdQdRdSaWdTbv.g.g.gdUdVdWdXb1dYdZd0.f.wam.w.k.k.k.k.x.ld1d2d3QtQt",
"#k#k#k#k#k#k#k#k#k#k.g.g#k.gaWd4c0dOaqaqaqaqaqd5d6d7d8b2aqd9e.e#eaebec.g.g.g.g.g.gedeeefegeheibe.w.w.w.w#z.k.k.k.k.l#w.HejekelQt",
"#k#k#k#k#k#k#k#k#k#k#k#k#Vemenaqbyb1aqaqaqb1eoehaqaqaqaqa2epeq#iaS.g.g.V.g.g.g.g.g.h.h.eaoereset.v.w.G#z.w.k.k.k.kd1.2.HeuevewQt",
"#k#k#k.V.g#k#k#k#k.g.g#kalexapaqaqaqaqaqaqeyaqd9ezeAeBaqeCeDeEeF.g.g.g.g.g.g.g.g.h.h.h.eeGeHeI.f.G.w.v.w.k.k.k.l.m.H.y.HceeJeKQt",
"#k#k#k#k#k.g#k.e.V.e.V.g#seLaqaqcEeMaqeNeOePeQeReSeTeUeVcDaqeWeX#k#k.g.g.g.g.g.g.g.h.g.g.eaz.f.e.G.w.k.k.k.k.k.l.m.H.H.HeuceeYeZ",
"#k.g.g#k#k.V.g.e.e.e.eaze0bIaqaqe1eNbyeNaqe2e3aBe4e5.Ee6e7b#e8#k#k.g.g.g.g.g.g.g.g.g.g.h.e.e.e.e.G.w.k.k.k.k.l.l.m.H.Hcececee9f.",
"#k.g#k.V.g.V.e.e.e.V.V#7f#aqaqfafbfcc7fdfeba#H#ubVcV.effa9fgfh#V#k#V#k#k#k.g.g.g.g.g.g.e.V.V.e.e.u.v.k.k.k.k.x#N#w.H.Heucecefifj",
"#k#k#k#k.h.e.e.e.e.eazanfkaqcEflb2eDcFfmfn.g#k.V.v.e#V#kfo.M#u#V#V#V#V#V#u#k.g.g.g.g.g.e.e.V.e.e.f.k.k.k.k.k.k#N.l.m.Ueuce.1#afp",
"#k#k#k.V.e.e.e.e.e.eaZfqfrfsftfufvc4fw#0fx#k#kcV.i#k#V#V#V#u#u#V#V#V#V#V#V#k.g.g.g.g.g.e.e.e.e.e.u.w.k.k.k#N#N#N.l.y.H.Hcece.1fy",
"#u#k#k.g.u.e.e.e.e.e.f.GfzfAfBfCaqfDfE.e.V.g#kcVcV#V#V#k#k#V#u#u#V#V#V#V#u#k.g.g.g.g.g.h.e.e.e.u.w#z.k.k.k#N#N.l.l.m.y.ycece#aaA",
"#u#u#k.V.e.e.e.e.e.e.eamfFfGfHfIfJfKfL.V#kcV#kcVcV#V#k#V#k#u#u#k#V#V#V#u#u#k.g.g.g.e.e.h.e.e.u.v.w.w.k.k.k.k#N#N.m.m.m.y.Hce#a#a",
"#u#k#k.e.e.e.e.e.g.g.e.V.VeI.ufMfNfOfP.gcV#k#kcVcV#k#V#u#u#V#k#V#V#V#V#u#k.g.g#k.g.g.e.e.e.f.e.u.v.k.k.k.k.k#N.l.l.m.m.m.yce.1.1",
"#k#k#k.g.e.h.g.e.g.g.VbvbvazfQfRfS.e.V.g#k#k#kcV#k#V#V#u#u#k#V#V#V#V#V#k.g.g.g.g.g.g.g.e.e.f.e.v.G.k.k.k.k.x.l.l.l.m.m.m.yeucece",
"#k#k#k.g.e.e.e.g.g.h.eazazazeHanfT.e.e.g#k#k#k#kcVcV#k#k#u#V#V#V#V#V#V#V.g.g.g#k.g.h.g.h.V.e.e.u.u.w.k.k.k.l.m.y.m.y.m.m.meu.Heu",
"#V.g.g.e.g.h.e.g.e.g.eazazazazaz.fam.G.V#k#k#k#kcVcV#k#k#k#k#k#V#V#V#V#k.g.g.u.k.e.h.g.h.e.e.e.u.u.u.w.w.l.l.m.l.l.y.y.m.m.y.H.H",
"#V.g#k.g.h.h.g.g.g.V.eazamazazaz.faz.e.g#k#k#k#k#k#V#k#k#k#k#k#k#V#V#V#V#k.e#a.I#a#Naz.e.efU.l.m.u.u.w.k.k.l.l.k.l.m.m.l.y.H.H.H",
"#6cV.g.g.h.h.g.h.g.h.h.e.f.ffVazazaz.g.g.g#k#V#V#k#V#k#k#k#k#k#V#u#V#V#k#k.k.W.X.X.X.l.e.h.1ct.T.k.w.k.k.l.l.l.k.l.m.l.l.m.y.H.H",
"fWcV.g.e.g.h.h.e.h.h.eam.f.ffVazbvaz.e.g#ucV#V#V#V#k#k#V#k#k#u#u#u#V#k#k#k.l.W.Wa7.X#a.f.Gcea7.T#M.w.w.k.l.l.l.l.l.m.l.l.m.m.H.y",
"#sfX.g.g.g.e.eazaz.eazfVazfVfVazbv.V.e#MfY.j#k#V#V#V#V#V#u#u#u#u#u#u#k#u#u.j.T.X.W.X.T.v.e.v.k.l.u.v.w.k.k.l.l.m.y.m.l.l.l.l.m.m",
"fZf0.g.g.e.eazazfVfVazazazazazazaz.V.GaA.W.1.h#V#V#V#u#u#u#u#u#u#u#u#u#u#u.g.U#xbW.X#a.h.h.e.e.G.u.u.w.k.l.l.k.l.l.l.l.x.l.m.m.m",
"f1f2al.g.V.eazazfVfVazazazazaz.e.h.ged.H#a.2.g#k#V#k#k#k#k#u#u#u#k#k#u#u#k#u.G.3ay#x.l.e.e.G.G.G.uf3.k.k.k.k.l.l.l.l.l.l.l.l.y.y",
"f4f5aS#k.V.eazazazfVfVazazazaz.h.g#kcV.u.H.g#k#u#k#k#k#k#u#u#u.g#k#k#k#k.g.g.g.g#z.L.h.e.G.e.G.G.u.j.k.k.k.k.l.mce.m#N#N#Nf6.m.y",
"Qtf7eb#k#k.e.eazazfVfVazazaz.g.gcVcVcV.H#a.y.g#u#k#k#k#k#k#k#k#k#k#k#k#k.g.g.g.g.g.g.e.e.u.u.u.u.u#z.k.k.k.k#N#aa8.W.H#N#N.m.m.y",
"Qtf8f9#j#k.g.V.h.hazaz.e.e.V.g#k#V.V.e.1.W.Y#J#u#k#k#k#k#k#k#k#k.g#k.g.g.g.g.g.g.g.e.e.G.u.i.u.u.u.v.k.k.k.k.l.XcSg.bWay.l.l.m.m",
"Qtg#gagb#k.g#k.g.h.V.V.V.VbV#kcV.ece#A#I.I#x.U#k#k#k#u#k#k#k#u#u#k#k.g.g.g.h.g.e.e.e.e.u.u.u.v.v.v.w.k.k.k.k.kce#vcugccs.m.l.m.m",
"QtQtgdgbge#k.V#k.g.g#k.g#k#k#k#u.y#x.W.T.1#a.2#k#u#u#k#u#u#k#k#u#u#V#k#k#k.h.g.g.e.e.G.e.u.u.v.v.v.v.w.k.k.k.j.k.lbWcu.T.m.l.m.m",
"QtQtgfgggh.V.V#k#k.g#k.g#k#k#k.g##.W.W.W.W#a.k#u#u#u#k#u#u#k#k#u#k#u#k#k#k.h.h.e.e.e.G.G.u.G.u.u.u.v.k.k.k.k#M.k.k.H.1.H.m.m.y.y",
"QtQtgigj.9.V.V#k#k#k.g#u#k#k#u.e.I.W.W.W.W.W.I.G#u#u#u#k#u#V#u#k.g#u.g.g.g.h.h.e.e.e.e.G.u.u.u.u.u.v#M.k.k.k.k.k.l.m.m.m.m.m.y.y",
"QtQtQtgkglfL.V#k#k#k#k#u#k#u#u.e.T.W.W.W.W.W.W.3#u#u#u#k#V#V#u.g.g#k.g.g.e.e.h.e.e.e.e.G.u.u.u.u.v.m#l#M#M.k.k.l.m.l.m.m.y.y.y.y",
"QtQtQtQtgm.9#k#k#k#k#k#k#k#k#u.iay.X.W.W.W.W.W.m#u#u#k#u#u#k#k.g.g.g.g.h.e.e.e.e.u.u.u.u#M.w.u.u.l.W.Xce.3gn.k.x.l.l.m.y.y.y.y.H",
"QtQtQtQtgogpgq#k#k#k#k#k#k.g#k.V.J.X.W.W.W.Wgr.u#ubV#u#u#k#u#k#k#k.g.g.e.e.h.e.e.u.u.u.y.Y.U.j.j.Wcugsgt#a.x.x.l.l.l.m.y.y.y.y.y",
"QtQtQtQtgugvgw#k#k#k#k#k#k#k#k.g.u###v.Wa7bWd1.VbVbV#k#k#k#k#k#k#k.g.g.e.h.h.e.G.u.w.u##ct.W.lbucRcRcRgsa8.y.K.2.m.m.m.y.y.y.y.H",
"QtQtQtQtQtgxgybv#k#k#k#k#k#k#k#k#kfV#M#a#W.3gz.VbVbV#k#k#k.g.V.g.g.g.e.e.e.e.G.w.u.G.w.mbW#a.j.UctcucRgscR#a.K.3.m.m.y.y.y.HdEgA",
"QtQtQtQtQtgBgCgD#k#k#k#k#k#k#k.V#u#u#kbV.ibVbVbVbVbVbV#k#k#k.V.V.g.e.e.e.e.u.G.w.u.w.u.v.k.k.u#N.Tg.g.gsgs.T.m.m.m.meucegEfpgFgG",
"QtQtQtQtQtQtgHgIal#k#kbV#k#k#k.V.V#k#k#k.V.VbVbVbVbV.V.g.gbV.V.V.V.V.e.e.e.e.f.w.w.k.u.u.j.j.j.j.HctcRgscu#a.m.m.H.y.SgJgKgLQtQt",
"QtQtQtQtQtQtgMgNgp#k#k#kbV#kbV.V.V.V#k#k.V.V.V.V.V.V.V.g.g.V.V.V.V.V.e.e.e.w.f.w.k.w.v.v.j.j#M#M.k.H#a#a.H.mfYgOev#ngPgQQtQtQtQt",
"QtQtQtQtQtQtgRgSgTbV#kbVbV.i.K.ubV#k#k.V.V.V.V.VbV.V.V.g.g.V.e.V.e.e.e.e.G.w.w.w.k.j.j.j.j.j#M#M#M.x.l#N.mgUgVgFgWgXQtQtQtQtQtQt",
"QtQtQtQtQtQtQtgYgZeebVbV.V.J#ag0.k.g#k.V.V.e.VbV.V.V.V.V.V.V.V.e.e.e.f.G.w.w#z.k.w.j.k.k#M#M#M#M.K.l.lg1#1g2g3QtQtQtQtQtQtQtQtQt",
"QtQtQtQtQtQtQtQtg4g5.V.V.2.T.W#x#a.v.V.V.V.e.V.u#z.V.V.e.e.e.V.e.e.e.w.w.w.k.x.k.k.w.x#M#M#M#M.xg6.zaUg7g8QtQtQtQtQtQtQtQtQtQtQt",
"QtQtQtQtQtQtQtQtg9eb.V.v.Y.Wa7a7a7#W.e.V.e.e.u.H.v.e.e.e.e.e.e.e.e.G.k.w.w.x.x.x.x.k.l#M.l#Mh.h#hahbhcQtQtQtQtQtQtQtQtQtQtQtQtQt",
"QtQtQtQtQtQtQtQthdheeI.2csa7a8a7a8#af3hf.1.K.v.k.G.G.G.G.e.e.e.e.u.w.k.k.k.l.l.l.l.l.l.lefdghghhQtQtQtQtQtQtQtQtQtQtQtQtQtQtQtQt",
"QtQtQtQtQtQtQtQtQthi.9hjcfcthka8ct.I##cici.T#N.u.u.G.G.G.i.e.y.K#z.k.k.k.l.m.H.mfYhlhmaUhnhoQtQtQtQtQtQtQtQtQtQtQtQtQtQtQtQtQtQt",
"QtQtQtQtQtQtQtQtQthphqhrcthkhkcscf.YaAhshkbX.l.v.v.G.G.u.u.u.mce.v.k.k.x.H.m.HhtgVhuhvhwQtQtQtQtQtQtQtQtQtQtQtQtQtQtQtQtQtQtQtQt",
"QtQtQtQtQtQtQtQtQtQthxhycsa8ctcfcfhz.j#a.T##.v.v.u.u.u.u.u.u#M.v.v#N.k.l.y#cgJhAhBhCQtQtQtQtQtQtQtQtQtQtQtQtQtQtQtQtQtQtQtQtQtQt"};
