/* XPM */
static char *dummy[]={
"64 64 627 2",
"Qt c None",
"#8 c None",
".A c None",
"gM c None",
"gd c #89b2f2",
"ev c #8db4f3",
"b2 c #8db4f3",
"gp c #89b2f2",
"ab c #8fb6f3",
"hy c #90b6f3",
".U c #96baf3",
"gJ c #8fb5f2",
"eR c #8db4f3",
".# c #88b1f2",
"hW c #8eb5f3",
"#g c #90b6f3",
".T c #91b7f3",
"ga c #89b2f2",
"hN c #93b8f3",
"co c #8db4f3",
".B c #8ab1f2",
"hM c #91b7f3",
"gm c #89b2f2",
"ah c #8fb6f3",
"hx c #91b7f3",
".V c #96baf3",
"gF c #8ab2f2",
"f. c #8db4f3",
".a c #88b1f2",
"hV c #8eb5f2",
"#f c #95baf3",
"#h c #8fb5f2",
"hj c #90b6f3",
"g# c #89b2f2",
"hz c #8fb6f3",
"cI c #8db5f3",
".C c #89b1f2",
"hL c #91b6f3",
"gk c #88b1f2",
"ar c #8fb5f3",
"hw c #92b7f3",
".W c #96baf3",
"gD c #88b2f2",
"fn c #8eb5f3",
".b c #88b1f2",
"hU c #8eb5f2",
"#z c #a1c1f3",
"f9 c #89b2f2",
"#i c #8cb3f2",
"hi c #90b6f3",
"hk c #8fb6f3",
"cW c #8eb4f3",
".D c #89b1f2",
"hK c #90b5f3",
"gj c #88b1f2",
"aD c #96b9f3",
"hv c #91b7f3",
".X c #95b9f3",
"gA c #8ab2f2",
"fA c #8eb5f3",
".c c #88b1f2",
"hT c #8eb5f3",
"#M c #9fc0f3",
"f7 c #88b1f2",
"#j c #8bb3f2",
"hh c #90b6f3",
"g6 c #95baf3",
"df c #8eb5f3",
".E c #88b1f2",
"hJ c #90b5f3",
"gh c #87b1f2",
"aT c #9ebff3",
".Y c #8db4f2",
"hu c #91b7f3",
"gz c #89b2f2",
"fG c #90b6f3",
".d c #89b1f2",
"#U c #99bcf3",
"hS c #8db5f2",
"f4 c #88b1f2",
"#k c #94b9f3",
"hg c #91b6f3",
"gX c #9bbcf4",
"dC c #8eb5f3",
".F c #88b1f2",
"hI c #90b6f3",
"gg c #88b1f2",
"bh c #9bbef3",
".Z c #89b1f2",
"gw c #89b2f2",
"ht c #91b7f3",
"fN c #90b6f3",
".e c #8ab2f2",
"hR c #8eb5f3",
"f1 c #88b1f2",
"#2 c #8fb6f3",
"hf c #91b6f3",
"#l c #96baf3",
"gS c #9abdf4",
"d7 c #8eb5f3",
".G c #88b1f2",
"hH c #8fb5f3",
"gf c #88b1f2",
"bE c #8fb5f3",
".0 c #8ab2f2",
"hs c #91b6f3",
"gt c #89b2f2",
"fR c #90b7f3",
".f c #89b2f2",
"#7 c #8fb6f3",
"fZ c #88b1f2",
"hQ c #8eb5f3",
"#m c #96baf3",
"he c #91b6f3",
"gN c #98bbf4",
"eu c #8eb4f3",
"ge c #89b1f2",
".H c #88b1f2",
"hG c #8eb5f3",
".z c #91b7f3",
"#A c #8bb3f2",
"b1 c #8eb5f3",
"gq c #89b3f3",
".1 c #8ab2f2",
"hr c #91b6f3",
"fU c #92b8f4",
"fX c #8ab3f5",
"aw c #000000",
"bN c #000100",
"cw c #000101",
"eA c #000102",
"c# c #010001",
"cQ c #010100",
"bK c #010101",
"cs c #010102",
"ct c #010202",
"dY c #010203",
"bL c #020202",
"a0 c #020203",
"cb c #020204",
"dj c #020303",
"c. c #020304",
"cM c #020404",
"bM c #030303",
"dc c #030304",
"bo c #030305",
"ci c #030306",
"dG c #030404",
"cu c #030405",
"cv c #030506",
"cL c #040406",
"bP c #040506",
"a1 c #040608",
"b9 c #040609",
"cx c #050607",
"bO c #050608",
"dm c #050609",
"di c #050708",
"cd c #050709",
"dL c #05080a",
"ez c #060609",
"ca c #060709",
"bp c #06070a",
"cP c #06080a",
"bJ c #06080b",
"an c #06080c",
"d# c #07080b",
"dl c #07080c",
"bY c #07090c",
"cN c #07090d",
"d. c #070a0b",
"eb c #070a0d",
"eU c #070a0e",
"fr c #070b10",
"dZ c #080a0c",
"cR c #080a0e",
"ea c #080b0e",
"bA c #080b0f",
"bQ c #080c0f",
"dp c #090b0f",
"eB c #090b11",
"e6 c #090d10",
"cE c #0a0c11",
"da c #0a0d12",
"dI c #0a0e12",
"av c #0a0e13",
"eh c #0a0e15",
"db c #0b0d12",
"cO c #0b0e13",
"dq c #0b0f14",
"bq c #0c0f12",
"do c #0c0f14",
"c6 c #0c1116",
"dn c #0d0f16",
"dF c #0d1014",
"dH c #0d1016",
"c9 c #0d1116",
"c5 c #0e1117",
"b6 c #0e1319",
"dM c #0e131a",
"cA c #0f1319",
"c3 c #0f141b",
"c7 c #10131b",
"dk c #10141c",
"c8 c #11151d",
"b8 c #11161e",
"cS c #131721",
"cc c #131821",
"eo c #14181e",
"aH c #141923",
"dr c #161d27",
"aI c #161d29",
"c4 c #161e28",
"eC c #171d26",
"cy c #171d28",
"dJ c #181e2a",
"cF c #181f2a",
"cZ c #181f2b",
"b7 c #182029",
"e. c #19202b",
"eV c #1c2532",
"fc c #1d2633",
"cB c #1e2635",
"bd c #1e2734",
"bI c #1e2735",
"e# c #1f2735",
"dK c #1f2837",
"ce c #212c3b",
"cj c #222c3b",
"cr c #222d3b",
"br c #232c39",
"ey c #242e3e",
"fq c #242e3f",
"bs c #273143",
"bn c #273447",
"c0 c #283446",
"eK c #293447",
"ds c #293549",
"bX c #293649",
"eN c #2b3342",
"dy c #2b3442",
"dx c #2b3646",
"c2 c #2b394c",
"ei c #2c384d",
"c1 c #2e3c52",
"en c #2f3b4d",
"ec c #2f3e54",
"ao c #314057",
"aZ c #314058",
"cz c #323f55",
"b5 c #33425b",
"d9 c #34435a",
"bR c #35455d",
"dh c #394a64",
"bt c #3b4c68",
"dN c #3c4e6b",
"eW c #3d4d68",
"cY c #3d4d6a",
"a2 c #3d506e",
"be c #3e4e6b",
"dt c #3e506e",
"bm c #3f526f",
"ax c #3f5271",
"bz c #415472",
"d0 c #435068",
"fj c #445675",
"cC c #475c7e",
"eg c #475d80",
"e3 c #485e81",
"am c #4a6185",
"e2 c #4b6286",
"dO c #4d6488",
"bB c #4f6589",
"bc c #4f658a",
"eD c #4f678a",
"au c #50688f",
"fk c #516789",
"dE c #51688d",
"fb c #52688e",
"bH c #526c93",
"du c #536a91",
"dP c #536b93",
"fw c #59729a",
"dd c #5a6e8e",
"eJ c #5a749c",
"bS c #5c77a2",
"ck c #5d77a1",
"ed c #5d79a7",
"cK c #5e7ca7",
"bZ c #5f78a2",
"fC c #5f7aa7",
"fD c #607ba7",
"cf c #607caa",
"ex c #617ca9",
"bl c #617dab",
"dQ c #627ead",
"e7 c #637a9e",
"dw c #637ca6",
"dv c #637fad",
"fa c #6480af",
"dX c #657ea4",
"a6 c #667fa5",
"fd c #6684b4",
"cq c #6784b4",
"eX c #6887b6",
"a3 c #688bbc",
"a5 c #6985b2",
"a4 c #6a8bbe",
"eM c #6b83ac",
"cT c #6d89b4",
"bu c #6d8dc1",
"bT c #6e8ec2",
"b4 c #7091c5",
"ef c #7192ca",
"ch c #7291c5",
"eT c #7292c7",
"aG c #7292ca",
"dR c #7294ca",
"bW c #7393c8",
"aJ c #7396ce",
"a7 c #7795c3",
"fx c #7798cf",
"aY c #789ed8",
"eE c #799ed8",
"ee c #7a9dd8",
"by c #7a9ed6",
"dz c #7b96c2",
"cD c #7fa1db",
"bv c #7fa4e0",
"dS c #80a6e3",
"af c #80a8e5",
"bk c #81a5df",
"aX c #81a6e3",
"fg c #81a9e8",
"f# c #82a7e3",
"ag c #82a9e6",
"bG c #82a9e8",
"fs c #82aae7",
"eI c #83a9e8",
"ay c #83abe9",
"eY c #84abe9",
"fE c #85acea",
"b0 c #86ace9",
"ap c #86afee",
"eZ c #86b0f2",
"#V c #86b1f2",
"em c #87a7d9",
"fh c #87b0f1",
"#N c #87b0f2",
"ak c #87b1f1",
"#W c #87b1f2",
"a. c #87b1f3",
"bb c #88afed",
"cp c #88b0ef",
"fo c #88b0f2",
".7 c #88b1f2",
"#3 c #88b2f2",
"cJ c #88b2f3",
"fu c #88b2f4",
"e1 c #89afeb",
"ew c #89afee",
"fl c #89b0ec",
"fJ c #89b0ef",
".P c #89b1f2",
"b. c #89b1f3",
"#u c #89b2f2",
".6 c #89b2f3",
"fH c #89b2f6",
"gl c #89b3f2",
"eG c #89b4f6",
".o c #8ab1f2",
"as c #8ab2f1",
".m c #8ab2f2",
"bV c #8ab2f3",
".g c #8ab2f4",
"bi c #8ab2f5",
".p c #8ab3f2",
"#5 c #8ab3f3",
"b3 c #8ab3f4",
"e4 c #8ab3f6",
".5 c #8ab4f6",
"eF c #8ab4f7",
"cl c #8bb2f0",
"#b c #8bb2f2",
"b# c #8bb2f3",
".q c #8bb3f2",
".n c #8bb3f3",
"d8 c #8bb3f4",
".l c #8bb3f5",
"#w c #8bb4f2",
"cm c #8bb4f3",
"gu c #8bb4f5",
"fv c #8bb5f4",
"aK c #8bb5f7",
"ae c #8bb6fa",
"fK c #8cb2f2",
"fy c #8cb3f1",
"#a c #8cb3f2",
"#0 c #8cb3f3",
"az c #8cb3f4",
".r c #8cb4f2",
"aB c #8cb4f3",
"fI c #8cb4f4",
"bF c #8cb4f8",
"gL c #8cb5f2",
"aO c #8cb5f5",
"e0 c #8cb5f6",
"ek c #8cb5f7",
"bU c #8cb5f8",
".I c #8cb6f9",
"fO c #8cb6fa",
"eH c #8cb7fc",
"#S c #8db3f2",
"aR c #8db3f3",
".8 c #8db4f2",
".s c #8db4f3",
"aA c #8db4f4",
"#P c #8db5f2",
"#x c #8db5f3",
"eS c #8db5f6",
"aQ c #8db5f7",
"gb c #8db7f8",
"#r c #8db7fa",
".4 c #8db8fb",
"e5 c #8eb0ec",
"f2 c #8eb4f2",
".t c #8eb4f3",
"aU c #8eb5f2",
"#c c #8eb5f3",
"et c #8eb5f4",
"fp c #8eb5f6",
"#X c #8eb6f2",
"fL c #8eb6f3",
"fe c #8eb6f7",
"aL c #8eb6f8",
"bw c #8eb6f9",
"ba c #8eb7f8",
"fF c #8eb7f9",
"bx c #8eb7fa",
"ft c #8eb8fa",
".k c #8eb8fb",
"aF c #8eb9fc",
"a9 c #8eb9fd",
"f5 c #8ebafe",
"al c #8ebbff",
"eL c #8fb4ef",
"gc c #8fb4f2",
"gs c #8fb4f3",
"ac c #8fb5f2",
".Q c #8fb5f3",
"fP c #8fb6f2",
"#d c #8fb6f3",
"hn c #8fb6f4",
"hA c #8fb6f5",
"a8 c #8fb7f6",
"fB c #8fb8f9",
"dg c #8fb8fb",
"dD c #8fb9f9",
"ff c #8fb9fb",
"fi c #8fb9fc",
"cg c #8fb9fd",
"gn c #8fbafc",
"at c #8fbaff",
"fS c #8fbbfe",
"e8 c #90b4ee",
"aW c #90b5ef",
"gx c #90b5f2",
".u c #90b5f3",
"#v c #90b6f2",
".v c #90b6f3",
"hP c #90b6f5",
"fT c #90b7f3",
"aa c #90b7f4",
"#6 c #90b7f5",
"eQ c #90b7f7",
"e9 c #90b8f3",
"ho c #90b8f7",
"aP c #90b8fa",
".2 c #90b9fc",
"dT c #90b9fe",
"cG c #90bafc",
"ej c #90bafe",
"dU c #90baff",
"fW c #90bbfe",
".h c #90bbff",
"gi c #90bcff",
"#R c #91b5f3",
"gP c #91b6f2",
".R c #91b6f3",
"go c #91b7f2",
".w c #91b7f3",
"g2 c #91b7f4",
"bD c #91b7f6",
".y c #91b8f4",
"h# c #91b8f6",
"d6 c #91b8f9",
"hB c #91b9f9",
"bC c #91b9fb",
"bj c #91bbfe",
".j c #91bbff",
".J c #91bcff",
"f8 c #91bdff",
"cX c #91beff",
"#Q c #92b6f3",
"gC c #92b7f2",
".x c #92b7f3",
"#K c #92b8f2",
"#O c #92b8f3",
"fQ c #92b8f6",
"hd c #92b9f7",
"aN c #92bafa",
"hF c #92bbfb",
"dV c #92bbfe",
".L c #92bdff",
".K c #92beff",
"#9 c #93b7f3",
"#H c #93b8f3",
"eP c #93b8f4",
"de c #93b8f5",
"ai c #93b9f3",
"f6 c #93b9f4",
"el c #93baf9",
"#1 c #93bafa",
"cn c #93bbfd",
"bf c #93bcff",
".3 c #93bdff",
".i c #93beff",
"g. c #93bfff",
"#t c #94b8f3",
"hm c #94b8f4",
".9 c #94b9f3",
"ad c #94baf3",
"g3 c #94baf9",
"fM c #94bcfb",
"dB c #94bcfd",
"hC c #94bdfd",
"#E c #94bdfe",
"gB c #94beff",
"gE c #94c0ff",
"eO c #95b6ec",
"a# c #95b8f3",
"#. c #95b9f3",
"#s c #95baf3",
"h. c #95baf4",
"gK c #95bbf6",
"f3 c #95bcf7",
".S c #95bcfa",
"cU c #95bcfb",
"#B c #95bcfc",
"hp c #95bcfd",
"dW c #95bdf9",
".M c #95befe",
"gG c #95beff",
"#D c #95c0ff",
"#Z c #96b8f3",
"#I c #96b9f3",
"## c #96baf3",
"g1 c #96baf4",
"#Y c #96bbf3",
"#G c #96bbf4",
".O c #96bbf5",
"#F c #96bcf9",
".N c #96bdf8",
"cH c #96c1ff",
"#J c #97baf3",
"hl c #97baf4",
"aj c #97bbf3",
"g4 c #97befd",
"aM c #97bffd",
"#C c #97c0ff",
"hE c #97c1ff",
"#4 c #98baf3",
"aE c #98bbf3",
"gI c #98bcf3",
"aV c #98bcf4",
"#n c #98bdf7",
"hO c #98bffb",
"fV c #98c0fe",
"hq c #98c0ff",
"hD c #98c1ff",
"fz c #98c2ff",
"ep c #99bbf2",
"gH c #99bbf3",
"g9 c #99bbf4",
"d3 c #99bcf3",
"gQ c #99bcf4",
"gW c #99bdf3",
"gO c #99bdf6",
"f0 c #99bffc",
"ha c #99c0ff",
"cV c #99c1ff",
"hc c #99c2ff",
"fm c #99c3ff",
"d5 c #9abcf3",
"d2 c #9abcf4",
"eq c #9abcf5",
"es c #9abdf3",
"gU c #9abdf4",
"bg c #9abffc",
"#T c #9ac1fe",
"aq c #9ac2ff",
"d4 c #9bbcf3",
"gV c #9bbcf4",
"er c #9bbdf3",
"g8 c #9bbdf4",
"gr c #9bbef3",
"fY c #9bc3ff",
"g5 c #9bc4ff",
"gv c #9cbdf3",
"gR c #9cbef3",
"g0 c #9cbef4",
"gZ c #9cbff4",
"hb c #9cc4ff",
"aC c #9cc5ff",
"gy c #9dbef3",
"gT c #9dc1fa",
"#e c #9dc5ff",
"dA c #9fc2fc",
"#o c #9fc5ff",
"#q c #a0c7ff",
"aS c #a1c5ff",
"g7 c #a1c7ff",
"#p c #a1c8ff",
"gY c #a2c5ff",
"d1 c #a2c6ff",
"#L c #a4c9ff",
"#y c #a6ccff",
"QtQtQtQtQtQtQtQtQtQtQtQtQtQtQtQtQtQtQtQtQtQtQt.#.a.b.c.d.e.f.g.h.i.i.j.k.l.m.n.n.m.n.m.o.m.p.q.m.q.r.s.t.t.u.v.v.w.x.y.z.AQtQtQt",
"QtQtQtQtQtQtQtQtQtQtQtQtQtQtQtQt.B.C.D.E.F.G.H.I.J.K.L.M.N.O.v.P.P.P.P.P.o.m.m.m.m.o.P.o.o.m.q.q.q.q.r.s.s.t.Q.v.w.w.R.S.TQtQtQt",
"QtQtQtQtQtQtQtQt.U.V.W.X.Y.Z.0.1.2.3.i.h.4.5.6.7.7.7.8.9#.####.u.P.P.P.P.P.m.m#a#b.o.o.m.o.o.m.q#b.q#a.r.s.s#c#d.Q.v.R#e#fQtQtQt",
"Qt#g#h#i#j#k#l#m#n#o#p#q.M#r.l.P.P.P.P.7.7.7.7.7.7.7.x#.#.###s#t.m.P.P.P#u.Q.9#.#v.q.o.m.o.P.P.m.m.p#w.r.s.s.s#x#c.Q.R#y#zQtQtQt",
"#A#B#C#D.L#E#F#G###.#.#H.q.P.7.P.P.P.7.7.7.7.P.7.7.7.R#.#I####.9.m.P.P.P.p.9###J#J#K#a.P.P.o.P.m.m.p.q.r.s.s.s#c#c#c.v#L#MQtQtQt",
".P.P.P.P.7.7#b.q.p.m.Q#a.P.P.P.P.7.7.7.7.7.7.7.7.7#N.n#O#I#.#.#P.7.P.P.P.m#O#J#####J#Q#R.x#c#u.P.m.m#b#S.s.s.s.s.t#c#c#T#UQtQtQt",
".7.P.P.P.7.P.P.P.P.P.7.P.P.P.P.P.7.7.7.7.7#V#W#W#N#N#W.8.R.v.q.7.7.7.7.7.7#X#Y#######I#I#J#Z#S.P.m.m.m#b#a#0.s.s.s#c#c#1#2QtQtQt",
".7.7.7.7#3#u#u.P.7.P.P.P.7.7.7.7.7.7#W.7#u#d#H.u.p.7#W.7.m.P#N#N.7#W.7.P.P.q#O###########4.9#5.m.m.m.m#b#b.r.s.s#x#c.Q#6#7#8QtQt",
".7.7.7#3#3.7#u#3#3.7.7.7.P.P.7.7.7.7.7#u.R#s#.#.#9.8.7#W#W#Wa.#N#N.7.P.P.7.7.q#t#.##.9a#.9.r#u.m.m.m.n.m.r.s.s.s#c#c#c.QaaabQtQt",
"#W.7#W.7.7.7.7.7.7#W#W.7.P.P.7.7.7.7.7ac#########.ad.o#W#Waeafag.7.7.P.7.7.7.P#u.Q.u#a#a.m.m.P.m.m.n.n#0.r.s.s.s#c#c#c#d#CahQtQt",
"#W#W#W.7.7.7.7.7.7.7#W.7.7.7.7.7.7.7#uai#Iajajajaj#J#bakalamanaoap.7#N#N.7.P.P.P.7.7.P.P.P.P#u.m.m#0.n#0#0.s.s#c#c#c.Q.QaqarQtQt",
"#W#W#W.7.7.7.7.7.7.7.7#N#W.7.7.7.7.7#u#t###Jaj#Jaj#sasatauavawaxay.6.P#N.7.P.P.P.7.P.P.P.P#u#u#u.m#0azaA#0aB.s#c#c.Q.Q.QaCaDQtQt",
"#W.7.7.7.7.7.7.7.7.7.7.7#W.7.7.7.7.7#W.Q###4ajaEaEaaaFaGaHawaIaJaKaLaMaN.n.P.P.P.P.P.o#u#u.m#u.m.maOaPaQaRaBaB#c#c.Q#c.vaSaTQtQt",
"#N.7.7.7.7.7.7.7.7.7.7.7.7.7.7.7.7.7.7.PaU.x#YaVaWaXaYaZa0a1a2a3a4a5a6a7a8a9b.b..l.o.P.P.m.m.mb#babbbcbdbebf.8.8#c#c.t.QbgbhQtQt",
".7.7.7.7.7.7.7.7.7.7.7.7.7.7.7.7.7.7#W#WbibjaNbkblbmbnavawbobpawawawbqbrbsbtbubvbvbwbx.o.o.m.mb#bybzbAawbBbC.r.8.8.s.s#xbDbEQtQt",
"#W.7.7.7.7.7#u#u.7.7.7.7.7.7.P.P.P.7.6bFbGbHbIbJawawawa0a0bKawawbLbMbNawawbObPbQbRbSbTbUbV.maBbWbXawbYbZb0.q.s.s.s.s.s.s.tb1b2Qt",
".7.7.7.7.7.7.7.7.P.7.7.7.7.7.7.P.7.6b3b4b5b6avb7b8b9c.c.c#awawawawawawbKbKcacbcccdbOcecfcgb#chciawcjckclcm#a#0.s.s.s.s.s.tcncoQt",
".7.P.7.7.P.P.7.7.P.7.7.7.7.P.7.7#Ncpcqcrawcsa0ctawawawbKcua1cvcwawawawawawa0cxcyczcAawcBcCcDcEawcFbWcGaB#a#0.s.s.s.s#c.t.scHcIQt",
".7.7.7.7.P.P#u.7#u.P.m#u.P#u.P.PcJcKawawcLcsawawawcwawawawawawbKcMcNcOcEcPc.cQawawawawawcRcSc.awcTcUaz#b#a#0.s.s.s.t.s.s.tcVcWQt",
".7.7.7.7.7.7.P.m#u.m.m.m.m.m.mcXcYawawawawawawawawa0bYbAcZc0c1c2c3c4ccc5c6c7c8c9d.d#dadbawcQdcawdd#Jde.t.p#0.s.t.s.t.t.s.t#CdfQt",
".7.7.7.7.7.7.m.m.m.m.m#u.m.mdgdhc.awawdicuawawawdjcEc3cNdkb6dlbKawdmdndocEdpdqdrdsdtdudvdwdxawawdydzdA##.9#YaE#O#x.t.t.s.sdBdCQt",
"#W#W#W.7.7.m.q.m.m.m.m.m#udDdEa1awctdbdFdGcudHdIdGcRdJdKdLawawawdMdNdOdPdQdRdS.ldT.hdUdVdWdXdYawdZd0d1d2d3d3d4d5.x.s.s.s.sd6d7Qt",
".m.7#W.7.P.m.m.m.m.m.m.md8asd9awawe.e#eacNawawebecedeeefegehawa1ei.L.jej.kekb..P.P.P.P.oelemenawcveoepeqd3d3eres#t.saB.s.seteuev",
".P.7.7.7#3.m.m.m.m.m.m.md8ewexeyezeAdceBbpeCeDeEa.eFeGeHeIeJcbaweKej.P.P.P.P#u.P.P.P.P.Pb#eLeMawc.eNeOeP.vd3erd5.v.saB.s.s.seQeR",
".7.7.7.7.P.m.o.m.m.m.m.m.meSeTaweUeVbYaHeWeXeY.6.7#W.7eZe0e1e2awe3e4.P.7.P.P.P.P.P.P.P.o.P.qe5e6awe7e8.s.ne9###Q.s.s.s.s.s.s#Df.",
"#N#N.7.7.P.m.m.P.m.P.P.m.mb3f#fafbawfcfdfeff.g.7.7#u#a.7.7bVfgaJfh.7.7.P.P.P.P.P.P.P.P.o.o.mfifjcOfkflaB#0#0#0#0.s.s.s.s.s#cfmfn",
"#Nfo.P.P.m.m.o.m.P.P.P#u#u.6.lfpfqfrfsft#5.P.P.7fo#u#b#N#N#Wfuak#N#N.7.7.P.P.P.P.P.P.o.o.o.m.nfvfwfxfy#0#0#0#0.s.s.s.s#c#c#cfzfA",
".7fo.7.P.P.o.o.P.m.o.o.m.6.6.nfBfCfDfE#5#ufofo.7fofo#N#Nfo#N#W#W#N#N#N#W.7.7.P.P.P.P.P.P.P.m.m.nfFe0#a#0#baBaBaB.s.s.s.s#x#c#CfG",
"fHfo.P.P.o.o.P.P.P.P.mbVbVbV.nfIfJ.m.6.P.P.7.7fofofo#N#N.7fo#N#W#N#N#N#N#N#N#W.P.P.P.P.P.P.o.m.m.n.mfK#0#a#0#0.s.s.s.s#cfL#dfMfN",
"fOfo.o.P.o.o.P.o.P#u.mbVbVbVbVbVd8.q.m.P.7.7.7.7fofo.7#N.7#W#W#W#W#N#N#N#N#N.7.P.P.P.P.P.m.m#u.m.m.m#b#0.s.s.s.s.s.s.tfPac.vfQfR",
"fS.7.P.P.o.o.m.m.o.o.o#bb#bVbVbV.nb##b.m.P.7.7.7.7.7#N#N#W#N#N.7.7#N#N#N#W#W.7.P.P.P.P.P.m.m#u.m.m.m#a.s.s.s.s.s.s#c.v#d.v.vfTfU",
".K.7.P.P.m.mbVbVbV.m.mb#.n.n#5bVbVbV.m#u.7.7.7.7fofo#N#N#W.7#N#N#N#N#N#N#W#W.P.P.P.P.P.P.m.m.m.m.m.q#a.s.s.s.s#c#c#c.v.v.v.w.wfV",
".K.7.P#u.mbVbV#5#5bV#5#5.n.nbV.6bVbV.P.P.7.7.7.7fofo.7.7#W#N#N#N#N#N#N#W#W.7.P.P.P.P.P.P.m.m.m.m.m#0.s.s.s.s.s#x#c.Q.v.v.wfT.waC",
"fW.7.7#u.mbVbV#5#5bVbVbV#5#5bV.6bV.m.P.P.7#N#N.7#N#N.7.7.7.7#N#N#N#N#N.7.P.P.P.7.P.m.m.o.m.m.m.q.q#0.s.s.s.s.s.t#xfL.vfT.w.w.w#e",
"fX.7.7.P.mbVbV#5#5bVbVbVbVbVbVbV#u.m#b.m.7#N#N#N#N.7.7.7.7.7.7#N#N#N#N.7.P.P.P.P.P.P.m.m.n.n.q#a#0aB.s.s.s.t.t.t#c#c.v.RfT.w.wfY",
"fZ.g.7.P.mbVbV#5#5bVbVbVbVbV.o.P.P.8#H#H#a#N#N#N.7.7.7.7.7.7#N#N#N#N.7.P.P.P.P.P.o.P.m.m.p.n.m#a#a#0.s.s.s.s.t#c#c#c.v.R.w.w.xf0",
"f1.I.7.P#u.obVbVbVbVbVbVbV.m.o.7#N.s#.#.f2fo#N#N#N#N.7.7.7#W#W#W#N#N#Nfo.m.v.v.n.P.o.P.o.m.m#b#a#a.s.s.s.s.s.t.t#c.Q#d#d.w.w.xf3",
"f4f5.7.7.P#u.o.m.m.mbVbV.P.Pfofofo.m#d#c#bfo.7#N#N#W#W#W#W#W#W#W#N.7.7.7aU####ai.n.P.o#u.m.m.q.q#0.s.s.s#x.t.t#c.Q.Q.Q#d.R.w#Hf6",
"f7f8.7#u#3.7.7.P.7#u#u#u.P.7#N#N.P.R.R.P#W#W.7.7.7.7#W#W#W#W#W#W#W.7.7#u#H#####J#t.6.m.m.nbV.q.q#0.s.s.s#c#c#c#c.Q.Q.Q#d.w#O#H#O",
"f9g.#u#u.7.7.7.7.7.P.7.7.7fo#0aBfK#.##.v#W#W.7.7.7.7.7#W#W#W.7#W#W#W#W.m.9#Jaj#J##aB.P#a#H#HaR.q.q#0#0.s#c.Q#d.Q.Q.Q.Q#dfT.x.x#O",
"g#.L#u#u.7.7.P.P.7.7.7.7#W.r#tai#Q#t##.x.7.7.7.7.7.7#W#W#W.7.7.7#W#W#W.7#H#J###J#JaB.o.QaEd3.v#0#0.s.s#c#c#c#c.Q#d.Q.Q#dfT.w.w.x",
"gagb#u.7.7.7.7.7#W.7.7.7.o#H######.x#s#9.7.7.7.7.7.7.7.7.7.P.7.7.7.7.7#W.s.9###J#t#a#uaB#O.9gc#0.s.s.s#c#c.s.s#d#d.Q.Q.Q#dfT.w.w",
"gdge.6.7.7.7.7.7.7#W#W#Wf2#########I.wf2.P.7#W#W.7.7.7.7.7.P.7.7.7.P.P.P.PfL.9#..8.o.m.m.q#S#a#0.s.s#c#c#c.s#c#d.Q#c#c.Q.v.v.v.v",
"QtgfaK.7.7.7.7.7.7.7#W#N.w###########H#u#W#W.7#W#W.7.7#W.7.P.7.P.P.P.P.P.P.m.q#b.o.m#b#b.m#b.q.q#0.s.s#c#c.Q#c.Q#c#c.Q#d.v.v.v.v",
"Qtgg.k.7.7.7.7.7.7.P.7.m#O#J##########ac#W#W.7#W#W#W.7#W#W#Wfo.P.P.P.P.P.P.P#u.m.m#b.m.m#b.q.q.r.s.s#c#c.s.Q#d.Q#c#c.Q.Q.v.v.v.v",
"Qtghgi.7.7.7.7.7.7.7.7.m#K#J##########.v#N#W#W.7#W#W.7.7#W#W#W.7.7.P.o.P.P.m.m.m#b.q.q#b#b.q.r.s.s.s#c#c#c#c#c#c#c#c.Q.Q#d.v.v.v",
"Qtgj.K#W.7.7.7.7.7.7.7.P#P###########.#c#V#W.7.7#N#N#W.7.7.7.7.7.7.P.o.P.m.m.m.m.q.q.p.q.q.q.s.s.s.s.s#c#c#c#c#c#x#c#c.Q.Q.v#d#d",
"Qtgkf8.7.7.7.7.7.7.7.7.7gl.v#.#Jaj#JaU#u#W#W#W#W#W.7#W.P.P#W.P.P.P.o.o.P.m.m#b.m.q.q.q.q.q#a.s.s.s.s.s#c.w.v#c#c#c#c.Q.Q.Q#d#d#d",
"Qtgmgn#3.7.7#3.7.7.7#u#W#W.P.Qgogo#P#u#3#3#W#W.7#W#W.P.P.P.P.P.o.m.o.o.m.m.m#b#b.q.q#a#a#a#0.s.s.s.s.s.waE#J.v.t.t#c#c#d#d#d#d#d",
"Qtgpgq#3#3.7.7#3.7#3#u#u#W#W.7.pgl#3#u#3#3.7.7.7.7.7.7.P.P.P.o.m.m.o.m.m.m.m#b.q#b.q.q#a#a#0.s.s.s.s.saiergr#.#d.tgsgs#d#d#d#d#d",
"QtQtgtgu#3#3#3#u#wgl#u#u.7.7.7#u#3#3#3#3#3.7.7.P.P.7.7.7.P.P.m.m.m.m.m.m.m.p.m#b.q.q.q.q.q#a.s.s.s.saB#d#.gves###c.Q.Q.Q#d#d#d#d",
"QtQtgw.k#u#3.pgx#OfP.m.7.7.7#u#u#u#3#3#3#3.7.7.7#3#u.P.P.P.m.m.o.o.m.m.m.q.p.m.q.q.q.q.q.q.r.8.s.s.s.8.s#desgyaj#c#c.Q.Q#d#d#c#d",
"QtQtgz.J#u#b.x#.#s#H#c.P.7#u#u#u#u#u#u#u#u#u.P.P#3#u#u.P.P.m.m.m.m.m#b.q.q.q.Q.v.s.q.q#a.v#0.8.s.s.s.s.s.Q#9#..v#c#c.Q.Q#d#d.v#d",
"QtQtgAgB.qgCaj##aj#Y#O.m#u#u#u.m#u#3#3#u#u.P.P#u#u#u#u#u.m.m.m#b.q#b#0.q#0.8#s#4.w.q#a.xaE#t.Q.8.s.s.s#c.Q.Q.u.Q.Q.Q.Q.Q#c#d.v.v",
"QtQtgDgE#vd5aE#4ajaj#s#a#u#u#u.m#3#3#u#u#u.P.P#u.m#u#u#u.m.m.m.m#b#0.q#b#0.s#Yd3.R.r#.esergr#s#c#x.s#c.Q#c.Q.Q.Q.Q#d#d#d#d#c.v.v",
"QtQtgFgGd3d5d3gHaEgI.9.p#w.q.m.m#c#x.m#u#u#u#u#u#u#u.m.m.m.m.m.n.n#0#0#0.q.n.v.w.8.Qd3esergrd3#d#x#x#c#c#c#d#d#d#d#d#d#c#c#d.v.w",
"QtQtgJgKaEd3gHgHgId5.x#HaE#t.r.m#c#a.m.m.m.m#u#u.m.m.m.m.m.m#0#0#0#0.s#0.q.q.r#a.q#caEeresgrer.wgL#c#c#c.Q#d#d#d#d#d#d#d#c#d.v.w",
"QtQtgMgNgOaEd3d3d5gIgP#JaVgQ#O#a.q#b#b#b.m.m.m.m.m.m.m.n#b#b#0#0#0.s#0#a#a.r.r.r.r#x#JgRgvgrer#O#PaU.Q.Q.Q#d#d#d#d#d.v#d.v.v.vfT",
"QtQtQtgSgTgUd4d5gV#H.r#HaEaV.x.r#a#b#b#b.m.m.m.m.m.m.n#0#0#0aBaBaBaR#0.r.r.r.r.r.8.r.wd3gRgRgW.x.Q.Q.Q.Q.Q#d#d#d#d#d.v.v.v.v.v.w",
"QtQtQtgXgYgZg0d3g1.s#0.s.x#O.s#a#a.q#b#b.p.p.q.s.q.qaR.s#0#0#x#x.s.s#0.s.s.r.8.8.8.8#x.v#s###H.Q.Q.Q.Q.Q.v.v.v.v#dg2g3g4cVg5aq#B",
"QtQtQtg6g7g8g9h..QaBaB#0#0.n.q#a.q.q.q.q.q.qaU.w.s.s.s.s.s.s#c#x#x#x.s#x.8.8.8.8.8#P#x#c.s.Q.Q.u.v.vh#cUhafYhbhchdhehfhghhhihj#g",
"QtQtQthkaChlhm.v.s.t.s.s#0#0#a#a.n#a#a.q.q.q.sac#a.s.s.s#c#c.u#c#c#c#c#x.8.8#c#c#PaUhnhohphqaqfYfVhrhshthuhvhwhxhyQtQtQtQtQtQtQt",
"QtQtQthzaq.v#d.s#c.Q#c#c#c#0#0#0.s#a#a#a.q.q#a#aaB.t.s#x.v.Q.v.v.Q.Q#chAhBhChDfmhEhFhGhHhIhJhKhLhMQtQtQtQtQtQtQtQtQtQtQtQtQtQtQt",
"QtQtQthNhO.R.v#d#c.v.v.v#d.saB#0.r#a#a.r.r.r.raB#c#c#c#cfQcUhqfYhbhahPhQhRhShThUhVhWQtQtQtQtQtQtQtQtQtQtQtQtQtQtQtQtQtQtQtQtQtQt"};
