/* XPM */
static char *dummy[]={
"64 64 354 2",
"## c #000000",
"#t c #000001",
"#w c #000101",
".7 c #010101",
"#m c #010102",
"cn c #010103",
"#D c #010202",
"aw c #010203",
"#s c #020202",
"#S c #020203",
"aQ c #020204",
"a1 c #020303",
"#i c #020304",
"cr c #030303",
"bH c #030304",
"bV c #030305",
"cj c #030404",
"#h c #030405",
"#T c #030406",
"c1 c #030506",
"cB c #030507",
"aV c #030508",
"ca c #040407",
"#0 c #040506",
"#j c #040507",
"cJ c #040607",
"#1 c #050505",
"aL c #050507",
".2 c #050508",
"#A c #050608",
"c3 c #050609",
"b7 c #050708",
"ax c #050709",
"a2 c #05070a",
"c8 c #060609",
"#r c #06070a",
"al c #06080a",
"bO c #06080b",
"cC c #06090c",
"bZ c #07070a",
"#E c #07080b",
"b8 c #07090b",
"#v c #07090c",
"cc c #07090d",
"cP c #070a0d",
"cV c #080a0c",
"cN c #080a0d",
"#C c #080a0e",
"bE c #080b0e",
"a. c #080b0f",
"#. c #090b0f",
"#H c #090c11",
".1 c #0a0b0f",
"cI c #0a0c0f",
"aP c #0a0c11",
"dc c #0a0c12",
"de c #0a0d10",
"ba c #0a0d11",
"dj c #0a0d12",
"a3 c #0a0f14",
"bi c #0b0d12",
"cx c #0b0e13",
"be c #0b0f14",
"#u c #0b1013",
"bh c #0c0e13",
"by c #0c0e14",
"bl c #0c0f11",
"ah c #0c0f13",
"cq c #0c0f15",
"cO c #0c1016",
"aT c #0d1014",
"dk c #0d1116",
"cS c #0d1117",
"ay c #0e1118",
"c7 c #0e1218",
"ck c #0e1318",
"b3 c #0e1319",
"a0 c #0f121a",
"dd c #0f131a",
"bs c #101218",
".8 c #101419",
"bg c #11151b",
"b4 c #11151e",
"a5 c #11161e",
"aS c #11171e",
"a4 c #12161f",
"c# c #121721",
"cw c #13181f",
"#B c #131921",
"dl c #141821",
"cl c #141921",
".3 c #141922",
"#n c #141a23",
"bY c #141a25",
"bU c #141c25",
"#4 c #151b23",
"bu c #151b25",
"dn c #161b25",
"dm c #161c25",
"bq c #161d28",
"#k c #161e28",
"bz c #171c24",
"ak c #171d28",
"aK c #171e27",
"bf c #171e28",
"bt c #171e29",
"bI c #181d26",
"ag c #181e29",
"#Y c #181f2a",
"#9 c #191f2b",
"aR c #1a212e",
"bN c #1b232f",
"aU c #1b2330",
"#G c #1c2330",
"c4 c #1c2430",
"bF c #1d2531",
"cb c #1e2632",
"#2 c #1e2635",
"bv c #1f2834",
"#q c #1f2836",
"bx c #1f2838",
"#3 c #1f2937",
"#a c #202837",
"cM c #202938",
"bj c #202a38",
"#l c #212c3b",
"#F c #222c3b",
"db c #222c3c",
"a# c #232d3d",
"av c #242e3f",
"cK c #242f41",
"#5 c #243041",
"c6 c #263140",
".9 c #263141",
"cm c #263144",
"a6 c #273144",
"b6 c #273346",
"c2 c #283245",
"d. c #283345",
"aW c #283346",
"cA c #2a374b",
"b0 c #2c384b",
"bw c #2c394c",
"br c #2c3a4e",
"bG c #303d54",
"au c #314057",
"am c #334057",
"#6 c #34455e",
"cp c #35445f",
"c9 c #3a4863",
"#z c #3a4a65",
"b9 c #3e506d",
"cG c #3f516e",
"aa c #40516c",
"di c #40536f",
"cf c #415372",
"aM c #415471",
"aF c #415474",
"aE c #425575",
"ae c #435168",
"do c #455775",
".6 c #475976",
"aG c #485e7f",
"aD c #4b6185",
"#X c #4c6181",
"aJ c #4d6181",
"cF c #4d6589",
"cD c #4e668c",
"bW c #506585",
"bD c #516990",
"aH c #526a90",
"cT c #526c94",
"at c #53698e",
"co c #546b92",
"ab c #556b91",
"b# c #56698a",
".0 c #576c8d",
".4 c #57729c",
"aI c #597198",
"#Z c #59729b",
"#g c #59749f",
"az c #59759f",
"a7 c #5b749f",
"ce c #5c77a2",
"aC c #5f7ca9",
"#R c #5f7daa",
"cW c #607aa5",
"ad c #617ba3",
"#8 c #617ca7",
"as c #617daa",
"bk c #627ca2",
"ac c #637da8",
"c5 c #637fac",
"ai c #6382b1",
"dh c #6480af",
"#p c #6482b1",
"#x c #6483b4",
"#I c #6583b5",
"#f c #6683b6",
"aj c #6989b9",
"c0 c #6a88b7",
"cg c #6c8cbf",
"#O c #6d8ab8",
"a8 c #6d8dbf",
"#P c #6f8dbd",
"an c #6f8dbe",
"#U c #7092c7",
"#e c #7092c8",
"aO c #718fc5",
"cX c #7295cc",
"cv c #7395cc",
"ar c #7594c9",
"#o c #759bd3",
"cs c #7697cc",
"a9 c #7699cf",
"cY c #769bd3",
"#N c #7795c8",
"bX c #779ad4",
"aB c #799bd4",
"aq c #799cd5",
"#d c #7a9ed9",
"bd c #7b9fd8",
"cL c #7ba0dc",
"aZ c #7c9ed5",
"#W c #7c9ed6",
"aX c #7da1da",
"dg c #7da2dd",
"ci c #7da2de",
"cR c #7da5e1",
"#M c #7ea2d9",
"#b c #7ea5e2",
"cd c #80a3df",
"bT c #80a5e3",
"aN c #80a7e1",
"ch c #80aae7",
"bm c #81a0cd",
"b2 c #81a7e5",
"b. c #82a3d4",
"cH c #82aae7",
"#Q c #83a4d7",
"af c #83aae6",
"#c c #83aae8",
"c. c #83aae9",
"cy c #84a8e3",
"bM c #84acec",
"cQ c #85abe6",
"cE c #85aeed",
"cZ c #85afef",
"d# c #86a9e4",
"df c #86ace6",
".5 c #86aeee",
"cU c #86aff0",
"bP c #87a5d7",
"aA c #87afee",
".E c #87b0f2",
".C c #87b1f2",
"b5 c #88aeeb",
"ap c #88afee",
"#7 c #88b0ee",
"#y c #88b0f0",
"bc c #88b0f2",
"Qt c #88b1f2",
".D c #88b2f2",
"bA c #89a9dc",
"#L c #89afea",
"ao c #89afec",
".# c #89b1f2",
".i c #89b2f2",
"bo c #89b2f3",
"bb c #8aade5",
".h c #8ab1f2",
"#V c #8ab2f1",
".g c #8ab2f2",
"bp c #8ab2f3",
".l c #8ab3f2",
".K c #8ab3f3",
".k c #8bb2f2",
"#K c #8bb2f3",
".a c #8bb3f2",
".j c #8bb3f3",
".Q c #8bb4f3",
"dp c #8cb3f0",
".d c #8cb3f2",
".R c #8cb3f3",
".m c #8cb4f2",
".z c #8cb4f3",
".Y c #8db3f2",
".I c #8db4f2",
".n c #8db4f3",
"dD c #8db5f2",
".J c #8db5f3",
"b1 c #8eb2e8",
"#J c #8eb4f2",
".o c #8eb4f3",
".c c #8eb5f2",
".t c #8eb5f3",
"ct c #8eb6f3",
"dr c #8fb4f3",
"cu c #8fb5f2",
".u c #8fb5f3",
"cz c #8fb6f2",
".X c #8fb6f3",
".V c #90b3e7",
"da c #90b3eb",
".N c #90b5f2",
".B c #90b5f3",
"dv c #90b6f2",
".b c #90b6f3",
".v c #90b7f3",
"aY c #91b6f2",
".r c #91b6f3",
".q c #91b7f3",
"dE c #91b8f3",
".U c #92b4eb",
".p c #92b7f3",
".w c #92b8f3",
".H c #93b7f3",
".e c #93b8f3",
"dF c #93b9f3",
"bJ c #94b6ec",
".x c #94b8f3",
".A c #94b9f3",
".W c #95b9f1",
".y c #95b9f3",
".s c #95baf3",
".Z c #96b9f1",
".F c #96b9f3",
".f c #96baf3",
"dA c #96baf4",
".T c #96bbf3",
".G c #97baf3",
"dC c #97baf4",
".P c #97bbf3",
".M c #98baf3",
".S c #98bbf3",
"bS c #98bbf4",
"dq c #98bcf3",
"bQ c #98bcf4",
"bB c #99bbf3",
"bn c #99bcf3",
"bR c #99bcf4",
"bC c #9abcf3",
"bK c #9abcf4",
"dB c #9abdf3",
"dt c #9abdf4",
"du c #9bbcf3",
"dx c #9bbcf4",
"bL c #9bbdf3",
"dy c #9bbdf4",
"ds c #9bbef3",
"dw c #9cbef3",
"dz c #9dbff4",
".O c #9ebff3",
".L c #9fc0f3",
"QtQtQt.#.a.b.c.d.a.e.f.f.f.f.f.f.c.#.g.g.h.#.#QtQtQtQtQtQtQtQt.#.a.a.#.#.#.i.g.g.g.j.j.j.j.g.k.l.l.m.n.n.o.b.b.b.b.p.q.b.p.r.p.e",
"QtQtQt.#.#.#.#.#Qt.g.q.s.f.f.f.f.c.#.#.#.#.#.#QtQtQtQtQtQtQt.#.q.s.f.p.#.#.#.#.#.#.g.j.j.g.j.g.h.l.a.a.a.m.n.t.u.b.b.v.b.q.q.w.x",
"QtQtQtQtQt.#.#.#QtQt.#.g.l.a.q.c.#.#Qt.#.#.#QtQtQtQtQtQtQtQt.r.y.y.f.f.u.#.#.#.#.h.g.g.g.g.g.g.h.g.l.a.g.a.z.o.t.b.b.b.b.q.q.w.A",
"QtQtQtQtQtQtQtQtQt.#.#.#.#.#.#.#.#.#.#.#QtQtQtQtQtQt.#QtQt.#.e.y.y.f.s.x.g.#.#.#.#.g.g.g.g.h.#.h.h.g.a.a.a.m.n.o.o.B.b.b.b.r.w.w",
".CQtQtQtQtQtQt.D.D.i.i.#Qt.#.#.#.#.#.#.#QtQtQtQtQtQtQtQtQt.E.b.y.F.f.f.e.#.#.#.#.i.b.A.x.m.h.h.g.h.h.g.a.k.a.m.n.n.o.u.b.q.p.q.q",
"QtQtQt.CQt.CQtQtQt.i.D.DQtQtQtQtQtQtQtQtQtQt.CQtQt.C.C.C.E.E.g.e.y.y.x.aQt.#.#.#.m.f.f.G.s.m.h.g.h.#.#.g.g.a.d.m.n.n.t.b.b.q.r.q",
"Qt.C.C.C.C.CQtQtQtQtQtQt.C.CQt.#.#QtQtQtQtQtQtQt.b.A.H.d.C.C.C.I.b.I.iQtQtQt.#.#.m.f.f.f.f.y.g.h.#.h.#.g.g.l.m.m.n.n.n.J.t.r.r.s",
".C.C.C.C.C.CQtQtQtQtQtQtQt.CQtQt.#QtQtQtQtQt.g.H.f.y.y.x.I.C.CQtQt.E.EQt.CQtQtQt.i.s.f.f.f.f.H.e.p.K.#.g.g.l.d.m.n.n.n.t.t.u.e.L",
".E.C.C.CQtQtQtQtQtQtQtQtQtQt.EQtQtQtQtQtQtQt.q.G.f.f.f.y.s.g.C.C.C.C.E.EQtQt.#.#.#.v.f.f.f.f.f.f.M.N.#.g.g.g.d.n.n.n.n.t.t.t.e.O",
"QtQt.E.EQtQtQtQtQtQtQtQtQtQtQt.CQtQtQtQtQt.g.A.y.P.P.P.P.G.k.C.C.C.CQtQtQt.#.#QtQt.g.x.f.f.f.f.M.f.Q.g.g.g.g.k.d.R.n.n.n.t.t.u.S",
"QtQtQtQtQtQtQtQtQtQtQtQtQtQtQtQtQtQtQtQtQtQt.e.T.G.P.U.V.W.l.C.C.C.C.CQtQtQtQtQtQt.#.g.q.x.q.H.e.I.i.g.g.g.g.k.k.m.n.n.J.t.t.u.X",
"QtQtQt.CQtQtQtQtQtQtQtQtQtQtQtQtQtQtQtQtQtQt.Y.f.Z.0.1.2.3.4.5.E.C.CQtQtQt.E.EQt.#.#.#.#.#.#.#.#.g.#.g.g.j.j.g.m.n.n.n.t.t.u.X.X",
"Qt.#QtQtQtQtQtQtQt.iQtQtQtQtQtQtQtQtQtQtQt.CQt.d.6.7.8.9#.###a#b.C.C.CQt.#.m.EQt.#.#.#Qt.#.#.#.#.#.i.g.g.j.j.R.m.n.n.n.t.t.t.u.X",
"QtQtQt.#QtQt.#QtQtQt.#QtQtQtQtQt.#.#.##c#d#e#f#g#h#i#j.2#k#l#m#n#o.C.C.#.p.s.X.#.#.#.#.#.#.#.#.#.i.i.i.g.R.j.R.R.n.n.t.t.t.t.X.X",
"QtQtQtQtQtQt.#.#QtQt.#QtQtQtQtQtQt#p#q#r#s.7#t#t#######u#v.7#s#w#h#x.C.g.y.s.H.#.#.#.#.#.#.h.i.i.g.i.g.g.R.R.R.R.z.n.t.t.t.u.u.u",
"QtQtQtQtQtQtQtQt.iQt.i.#.g.i.##y#z#t#A#k#B#C#i#t###D.7###E#F#G#H##.7#IQt#J.p.I.i.#.#.#.h.#.#.g.g.g#K.g.g.k.j.R.d.m.n#L#M#N#O#P#Q",
"QtQtQtQtQtQtQtQt.#.g.i.g.g.g.g#R#t.7###########S#T##########.7#w#m###s#UQtQtQt.#.#.#.#.#.#.h.h.g.g#K.j.j.k.g#V#W#X#Y#r#S.7#t#t#s",
"#J.#.C.C.CQtQt.i.g.g.g.g.g.i.g#Z#####m#i#0#1#i###S#2#3####.7###4#5#0##.7#6#bQt.#.#.#.#.#.#.#.h.g.j.j.j.a#7#8#9#S##a.a#aaabacadae",
".x.I.#.C.CQt.#.g.a.g.g.g.g.g.iaf#Y.7###########m##ag#D#i###t####.7ah#######Cai.#.#.#.#.#.#.#.#.h.g.g.gajak.7alamanao.n.n.n.J.u.u",
".I.gQtQtQtQt.i.g.g.g.g.g.g.g.g.gapaqarasatau#0.2av####awax###t#####w##ay#m.7awazaAaBaCaDaEaFaGaHaIaJaK#maLaMaN.d.R.n.n.n.n.n.o.t",
"QtQtQtQtQt.#.g.g.g.g.g.g.g.g.g.g.g.g.k.j.j.kaOaPaQaR##.7##aSaT#####m###maU######aV#m##.7#D#D.7#t######aWaX.d.d.R.n.n.n.n.n.n.o.n",
".E.E.EQtQt.#.g.h.g.g.g.g.g.g.k#K#K.g.g.k.j#KaYaZa0a1a2##a3###Aa4##.7####al##a5#w###Sa6a7a8a9b.b#.7#tbabb.R.k.d.R.n.n.n.o.t.o.n.J",
".E.Ebc.#.#.g.g.g.#.g.#.#.g.g#K.j#K.g.h.k#K.j.q.abdbe#D#D##bfbg.7.7##.7bhbi#h##bjay##.7##aw#rbk#h##blbmbn.e.n.k.n.n.n.n.o.n.n.o.o",
".E.EbcQt.#.#.h.h.g.#.#.#.i.ibobpbp.k.h.h#K#K.a.#.#bq########a#br#mbs#Sbt#rbubv#wbwbx.7aUby.7#j##bzbAbBbCbn.G.fbn.y.n.n.o.n.o.t.t",
".E.Ebc.#.#.h.h.h.#.g.h.h.gbobobp.j#K.#.g.g.g.g.#QtbD#wa1######.7#######wbEa1bF##.7bG#i##bH#A##bIbJ.SbKbKbCbnbnbCbL.p.n.o.n.n.o.t",
"Qt.Ebc.g.#.h.h.#.#.#.#.gbpbpbp.j.j#K.g.i.i.iQt.#QtbMbN#t################bO###w#w###w.7#r##.7#SbP.SbQbKbRbS.SbnbLbL.y.n.n.n.n.n.t",
"Qt.C.#.#.#.h.h.h.h.#.i.gbpbpbp.j.j.j.g.i.#.#bcbcQtbcbTbU###w#S#h##############bV##aQ##.7####.7bWbRbRbKbS.X.tbnbLbL.q.n.z.n.n.n.o",
"QtQt.#.#.g.g.g.g.h.h.h.g#Kbpbpbpbp.j.g.g.#QtQtQtbcbcbXbYbZ###ma1######.7#####S######al#t####.7##b0b1.q.t.a.j.v.f.p.n.n.z.n.n.n.n",
"QtQt.#.i.gbpbpbpbp.g.g#K.j.jbpbp.j#K.k.g.#QtQtQtbcb2b3#m#######t##bl###s####b4#####t###i.7##.7#i#t#3b5.d.R.R.R.R.R.n.n.n.n.n.n.n",
"QtQtQt.i.gbpbp.K.Kbp.K.K.j.j.Kbpbpbp.g.iQtQtQtQtQtb6####.7########aw#######m#Db7#########w######b8.7b9.d.R.R.R.R.n.n.n.n.n.n.t.t",
"QtQtQt.#.gbpbp.K.Kbpbpbp.K.Kbpbobpbp.#.#QtQtQtQtc.#i#####mayc###caa1######.7aUcb##################cc#jcd.k.R.z.z.n.n.n.n.t.t.t.t",
"QtQtQt.#.gbpbp.K.Kbpbpbpbpbpbpbobp.g.#.#QtQtQtQtbccecfcgchcicj##ck####.7cl.7###mcm.7##.7##cn.7.7#####tco.d.R.R.n.n.n.n.n.J.t.X.b",
"QtQtQt.#.i.hbp.K.Kbpbpbpbpbpbpbp.i.g.gQtbc.E.EQt.E.EQtQtQtcp######.7.7#0#m#m.7#mcqcr##cj####.7.7##.7.7a5cs.n.n.n.n.n.n.tct.X.X.b",
"QtQtQtQt.#.g.hbpbpbpbpbpbp.g.h.#.#cu.x.bQt.E.E.E.EQtQtQtcvbVcr##alay##cw#.###m.7##bH#####w####.7#######icxcy.n.n.n.t.uczcu.b.b.v",
"QtQt.i.iQt.#.i.g.g.gbp.g.#.#.#Qtbc.q.f.x.g.E.E.EQtQtQtQtcA#D##cB#DcCcDcEcF.7cq#t.7#######h########.7####.7cG.n.t.t.t.b.X.b.b.v.q",
".i.i.iQtQtQt.#Qt.i.i.i.#QtbcbcbcQt.I.q#J.#.E.E.E.E.EQtcH#AcIcJ##cKcLQt.##ycM.7#t#########Scaaw####cNcO###scPcQ.J.t.u.b.b.b.q.q.q",
".i.i.iQtQt.#QtQt.#QtQtQtbc.EQt.E.u.e.gQtQtQt.E.E.C.C.CcR#i#mcScTcU.E.E.#.#bd#A##bV######.7cV############aQ#tcW.o.J.X.b.b.q.v.q.w",
".i.iQtQtQtQt.#QtQtQtQt.CQt.b.b.d.x.f.qQt.CQtQtQtQt.C.C.CcXcYcZ.EQtQtQt.#.q.xc0c1a.c2##aw.7############.7#0c3c4.o.t.u.b.v.q.q.q.w",
"QtQtQtQtQtQtQt.CQtQtQt.#.q.s.s.H.x.f.HQtQtQtQtQtQtQt.C.C.C.C.C.CQtQtQt.X.f.G.fc5#m.7#S###i#ic6c7c8####awc9d.#jd#.t.X.r.v.q.q.p.w",
"QtQtQtQtQtQtQtQt.C.C.C#J.f.f.f.f.p.s.HQtQtQtQtQtQt.C.C.C.CQt.C.C.C.C.i.A.f.f.Gdadb.7####.7###m.7##aQdccxcSdddedf.u.X.b.q.q.p.e.e",
"QtQtQtQtQtQtQtQtQt.CQt.A.f.f.f.f.y.b#JQtQtQtQtQtQtQtQtQt.#QtQt.C.C.C.#.A.G.P.G.f.zdgdhdid.dj#j#rdkdldmbfdndddo.u.u.u.X.q.q.p.w.w",
".CQtQtQtQtQtQtQt.#Qt.m.f.f.f.f.f.f.b.C.C.C.C.CQtQtQtQtQtQtQtQtQtQtQtQt.p.f.f.G.f.j.h.b.S.f.R.a.a.R.R.n.t.tdp.I.u.u.u.X.r.q.e.w.w",
"Qt.CQtQtQtQtQtQtQtQt.c.f.f.f.f.f.f.y.#.C.CQt.C.CQtQt.C.#.#QtQtQt.#.#.#.g.s.f.G.p.g.g.b.P.S.t.R.R.n.n.t.t.u.X.u.u.u.u.X.q.w.e.w.w",
"QtQtQtQtQtQtQtQtQt.#.a.f.f.f.f.f.f.A.#.C.C.C.C.CQtQt.CQtQt.#.#.#.#.#.#.#.X.A.p.g.h.g.g.b.q.d.R.n.n.n.t.t.t.t.u.X.u.u.X.v.p.p.w.w",
".i.DQtQt.DQtQtQtQtQt.i.q.f.f.f.f.f.b.C.C.CQt.C.CQtQt.C.C.E.#.#.#.#.#.#.#.#.h.h.g.g.k.g.k.a.d.R.n.n.t.t.t.n.t.X.X.u.u.X.q.q.q.p.q",
".D.D.DQtQt.DQtQt.i.C.C.i.e.f.T.fcu.i.C.CQtQt.E.E.CQtQtQt.CQtQt.#.h.#.#.#.i.g.g.k.g.g.k.k.a.a.R.n.n.t.t.n.n.X.u.u.t.u.X.b.v.q.v.b",
".i.i.D.D.D.D.D.D.i.i.C.C.i.I.c.m.i.D.D.C.C.C.CQt.C.#.#.CQtQtQt.#.h.#.g.g.g.g.k.a.a.k.k.a.a.m.n.n.t.t.t.u.t.u.t.t.u.X.b.b.b.b.b.X",
".i.i.i.D.i.I.c.i.i.iQtQtQt.i.D.D.i.D.DQtQtQt.C.C.#.#.#Qt.#.#.#.h.h.#.g.g.g.g.a.a.l.a.a.a.m.n.n.n.t.t.n.u.X.u.t.t.u.X.b.b.b.b.X.b",
".i.i.i.d.e.x.A.cQtQtQtQt.i.i.D.D.D.D.DQtQtQtQtQtQt.#.#.#.#.h.g.h.h.g.g.g.k.g.a.a.a.a.a.a.n.n.n.n.n.t.t.t.t.t.t.t.u.u.b.b.b.b.X.b",
".g.g#J.y.f.f.s.e.kQt.i.i.i.i.i.D.D.D.DQtQt.#.#QtQtQt.#.#.h.g.g.h.g.g.g.g.k.k.a.a.d.d.d.d.n.n.n.n.n.t.t.t.t.t.J.t.t.u.X.b.b.b.b.b",
".i.I.Sdq.G.P.P.s.d.i.i.i.i.i.i.i.i.i.i.#QtQt.i.#.#.#.#.g.g.g.g.g.g.g.g.g.k.a.k.a.a.d.d.R.n.n.n.n.n.b.A.b.t.t.t.t.u.u.u.b.X.X.b.b",
".d.SbCbnbB.P.P.P.I.i.i.i.g.i.D.D.i.i.#.#.#.D.i.i.#.#.g.g.h.h.g.g.g.a.a.g.k.a.a.a.a.a.d.R.n.n.n.n.t.SbL.P.o.o.o.t.t.X.u.X.X.X.X.X",
".A.SbnbBbB.Sdq.y.l.l.g.g.g.i.i.i.i.i.#.#.i.i.i.i.i.g.g.g.g.g.g.k.a.a.a.a.d.a.a.a.a.a.d.n.n.n.n.n.n.fbLbL.q.t.odr.u.X.X.X.X.X.X.X",
"bSbQ.SbndqbnbC.p.e.P.p.l.g.b.t.g.i.i.i.i.i.g.i.i.i.g.g.g.k.a.k.R.a.R.a.b.e.o.a.a.a.n.m.I.n.n.n.I.n.tbndsbn.X.u.u.u.X.X.X.X.X.t.t",
"dtbRdtbCbCdu.fdv.SbQbQ.b.k.n.k.g.g.g.g.i.i.i.i.g.g.g.g.g.g.k.R.a.k.R.n.TbB.p.a.a.u.y.o.I.n.n.n.n.n.t.Pdwbn.u.t.u.u.X.X.X.X.t.t.b",
"dxdydzdybCbQ.c.m.f.SbQ.r.a.a.k.k.k.g.g.g.i.g.g.g.g.g.g.k.R.j.R.R.R.a.R.s.S.r.m.xbnbLbn.b.I.n.n.n.t.u.B.e.b.t.t.u.u.X.X.t.X.t.t.t",
".ybKdybSdA.o.R.R.t.y.w.R.d.d.k.k.k.g.g.g.g.g.g.g.j.k.k.R.R.R.R.n.R.a.a.n.u.m.bdBdBbLds.f.J.J.n.t.u.u.u.u.u.u.u.u.u.X.X.b.X.t.c.u",
".XdCdC.x.t.n.z.R.R.R.a.a.d.a.k.k.k.l.g.g.g.g.g.R.R.R.R.R.R.R.n.R.d.d.m.m.a.a.bdBbLdBds.S.J.J.J.t.t.t.u.u.u.u.X.X.X.t.X.b.b.X.u.u",
".b.b.X.n.t.o.n.n.R.R.d.d.a.a.a.a.a.a.a.q.a.a.R.n.R.R.n.J.z.n.R.m.m.m.m.m.I.m.bbLdsbLdsbn.JdD.u.t.t.u.X.X.X.X.X.X.t.X.t.b.b.b.b.b",
".A.r.b.X.t.X.t.t.t.R.R.R.R.d.d.a.a.a.R.e.n.n.n.n.n.n.J.J.n.n.R.n.n.m.m.m.I.I.nbndwdsds.P.c.c.u.u.u.u.X.X.X.X.X.X.X.t.X.b.q.e.q.b",
".s.e.r.X.u.b.b.b.X.n.R.R.n.d.d.d.a.a.d.d.a.n.n.n.t.t.u.J.J.J.n.J.I.I.I.I.I.I.J.u.PbLdB.x.u.u.u.u.u.X.X.X.X.X.b.X.X.X.b.b.edwbB.p",
".f.s.e.p.b.p.b.b.b.t.t.I.m.d.d.m.m.m.m.m.n.o.n.J.b.u.b.u.t.t.t.J.I.I.I.I.IdD.J.t.J.b.b.u.u.u.u.u.X.X.X.X.X.X.b.b.b.b.b.b.w.P.A.r",
".P.s.e.qdE.e.b.X.X.u.u.t.t.I.m.m.m.m.m.n.t.t.t.t.b.b.b.b.B.u.t.t.t.I.t.tdD.c.t.t.u.u.u.B.b.b.X.b.q.r.b.b.X.b.b.b.b.b.b.q.q.q.r.r",
"bCdq.fdF.AdF.w.b.b.r.b.b.X.u.t.u.n.J.n.t.t.t.t.b.q.q.q.r.q.r.u.t.tdD.t.c.c.t.t.u.b.B.B.r.q.r.r.q.q.q.p.q.b.r.r.r.b.b.b.b.b.r.r.r"};
