/* XPM */
static char *dummy[]={
"64 64 623 2",
"Qt c None",
"gb c None",
".X c #89b1f2",
"hk c #91b7f3",
"gi c #90b7f3",
"#B c #8bb3f3",
"cx c #8cb5f2",
"g3 c #8fb6f3",
".D c #88b1f2",
"hS c #90b6f3",
"gI c #91b7f3",
"ag c #8ab3f2",
"gJ c #8db5f3",
"bM c #88b1f2",
"hb c #92b8f3",
"#X c #88b1f2",
"hI c #8fb6f3",
"ge c #8db4f3",
".Y c #87b0f2",
".o c #88b1f2",
"hJ c #8eb5f3",
"gu c #90b6f3",
".K c #8ab2f2",
"hr c #8eb5f3",
".j c #86b0f2",
"#o c #8ab2f2",
"g8 c #91b7f3",
"cg c #89b2f2",
"g2 c #92b8f3",
"#W c #8ab3f3",
"gQ c #8eb5f3",
"aI c #88b1f2",
"hw c #91b7f3",
"gv c #8fb5f3",
"#p c #87b0f2",
"g. c #8eb5f2",
".v c #96b9f3",
"gl c #8eb5f3",
"gP c #92b8f3",
".i c #88b1f2",
"hO c #8fb5f3",
"cS c #88b1f2",
"hN c #90b6f3",
"hj c #92b8f3",
".C c #87b0f2",
"hx c #8db5f2",
"bt c #88b1f2",
"#b c #89b1f2",
"hc c #91b6f3",
".L c #88b1f2",
"#I c #8bb3f3",
"gW c #8eb5f3",
".# c #88b1f2",
"aH c #8ab3f2",
"gD c #8eb4f3",
"gg c #8db4f3",
"g7 c #92b8f3",
"gC c #91b7f3",
"hD c #8fb5f2",
"dk c #88b1f1",
"b3 c #88b1f2",
"ah c #88b1f2",
"#c c #87b0f1",
".u c #88b1f2",
"hE c #8eb5f2",
".W c #88b1f2",
"hl c #90b5f3",
".p c #8ab1f1",
"#A c #8ab2f2",
"g4 c #91b7f3",
"ga c #8eb4f3",
"gp c #90b6f3",
"af c #8bb2f2",
"gK c #8db4f3",
"gV c #92b7f2",
"cy c #89b2f2",
"hq c #91b6f2",
"hR c #8fb5f2",
"a8 c #88b1f1",
"#C c #87b0f1",
".E c #8eb4f1",
"f7 c #8eb6f4",
".n c #88b1f2",
"hK c #8eb5f3",
"gh c #8eb5f3",
".J c #89b1f2",
"hs c #8eb5f3",
"gH c #91b6f2",
"d# c #88b1f2",
"#n c #89b2f2",
"ha c #91b7f2",
"g9 c #91b7f3",
"hH c #90b5f2",
"#V c #8bb3f3",
"bN c #87b0f1",
"gR c #8eb5f3",
"a7 c #8cb4f2",
"gw c #8fb5f3",
"#Y c #87b0f1",
".Z c #87aff1",
".k c #88b1f2",
"gd c #8db4f3",
"dv c #88b3f4",
"gt c #8fb6f2",
"hv c #91b7f4",
"g1 c #93b8f3",
".h c #88b1f2",
"hP c #90b6f3",
".B c #88b1f2",
"hy c #8eb5f3",
"ch c #88b1f1",
"#a c #89b1f2",
".w c #91b7f5",
"hd c #91b7f3",
"aJ c #88b1f1",
"#H c #8bb3f3",
"#q c #87b1f3",
"gX c #8fb6f3",
"hM c #95bdfa",
"hi c #95bcf7",
"aG c #8ab3f2",
"gE c #8db5f3",
"f9 c #8eb5f3",
"gO c #93baf5",
".a c #8eb9fc",
".M c #8fb8f9",
"gk c #90b6f3",
"hC c #97c0fe",
"g6 c #98c0fb",
"#J c #8ab4f6",
"#d c #8db9fd",
".q c #90bbfe",
"cT c #89b2f2",
"gB c #94bcf8",
"gU c #9ac2fe",
"bu c #89b2f3",
"hp c #9bc2ff",
"aN c #000000",
"bC c #000001",
"bc c #000101",
"dP c #010001",
"bf c #010101",
"aP c #010102",
"aQ c #010202",
"cN c #010203",
"bd c #020102",
"bV c #020202",
"bp c #020203",
"aS c #020204",
"ei c #020302",
"dr c #020303",
"be c #020304",
"bW c #020305",
"cO c #030302",
"eS c #030303",
"bT c #030304",
"dz c #030305",
"c6 c #030404",
"cb c #030405",
"cM c #030507",
"e. c #040405",
"dD c #040406",
"bS c #040506",
"bn c #040507",
"bG c #040508",
"bD c #040607",
"bU c #040608",
"by c #050608",
"dJ c #050609",
"dq c #05060a",
"bo c #050709",
"eT c #05070a",
"c# c #060709",
"es c #06070a",
"bg c #06080b",
"bA c #07080a",
"bi c #07090c",
"bH c #07090d",
"eV c #070a0c",
"cL c #070a0d",
"fy c #08080b",
"dC c #080a0e",
"d7 c #080b0e",
"ct c #090b0f",
"cr c #090b10",
"ca c #090c0f",
"aO c #090c10",
"dN c #090c11",
"bP c #090d11",
"cp c #0a0b10",
"fx c #0a0c10",
"c3 c #0a0d11",
"bE c #0a0d12",
"bR c #0a0e12",
"cs c #0b0d12",
"bF c #0b0f14",
"ds c #0b0f15",
"eh c #0c0e13",
"dA c #0c0f14",
"dX c #0c0f15",
"b9 c #0d1116",
"bB c #0e1217",
"dO c #0f141a",
"d8 c #10141b",
"dE c #10151c",
"bQ c #10151e",
"do c #11161e",
"cK c #11161f",
"cI c #12171f",
"aR c #121820",
"cl c #121822",
"eg c #121921",
"c. c #131720",
"eX c #131920",
"d9 c #141922",
"cJ c #141923",
"et c #141b25",
"dp c #151c25",
"dQ c #161c26",
"eJ c #161d28",
"er c #171d28",
"bh c #171e28",
"bm c #171e29",
"dB c #181f2b",
"dK c #181f2c",
"bx c #19212c",
"cP c #1a2028",
"bI c #1b2332",
"dY c #1c2330",
"cu c #1c2532",
"eI c #1d2432",
"cq c #1d2532",
"d6 c #1d2533",
"eK c #1d2633",
"fa c #1f2732",
"aq c #1f2735",
"c5 c #1f2835",
"eW c #212a39",
"df c #222c3b",
"fq c #242c38",
"eU c #242e3e",
"cH c #243042",
"eG c #252e40",
"as c #253042",
"bz c #263243",
"dZ c #273143",
"cG c #273347",
"ao c #283346",
"bb c #2a3648",
"eH c #2a3649",
"dM c #2a364a",
"bj c #2b384d",
"de c #2c3b51",
"dg c #2d3a4f",
"c4 c #2d3b4e",
"eY c #2e3a4f",
"fL c #2f3c50",
"eF c #303d54",
"bX c #303f57",
"fl c #313b4c",
"b8 c #324056",
"bJ c #33435b",
"dR c #34435b",
"fD c #354154",
"bw c #35455c",
"aT c #35455e",
"co c #36445e",
"e# c #36465f",
"fk c #374357",
"cn c #374660",
"c7 c #38455d",
"cm c #3b4e69",
"am c #3c4d68",
"eq c #3c4f6c",
"aM c #3d4e6a",
"au c #3d4f6d",
"bl c #3e4f6d",
"eR c #3f4f67",
"c2 c #3f506e",
"eL c #40516f",
"ck c #405270",
"dW c #405371",
"bk c #405474",
"dh c #415473",
"fr c #435168",
"ar c #445776",
"ap c #455978",
"b7 c #465b7c",
"bq c #465b7d",
"cc c #465d7e",
"dL c #485d7f",
"a1 c #485e80",
"e2 c #4b5d7a",
"fC c #4b6184",
"ef c #4b6185",
"dn c #4b6389",
"a0 c #4c6388",
"f# c #4e617d",
"an c #50678d",
"at c #506990",
"aZ c #536d95",
"dU c #5a75a0",
"bY c #5a76a2",
"d0 c #5b76a1",
"fM c #5c759a",
"cE c #5c77a0",
"c1 c #617eae",
"aU c #627fae",
"fw c #637ca7",
"dy c #6380ac",
"d1 c #6483b3",
"al c #6581b0",
"ey c #6582b1",
"bK c #6583b4",
"fE c #667ba0",
"d5 c #6683b4",
"cF c #6685b4",
"e1 c #6882a9",
"dt c #6887b8",
"fz c #6a81a7",
"fK c #6a88b8",
"dI c #6a89b8",
"eu c #6b89ba",
"c0 c #6b8cc1",
"bO c #6c89bc",
"ew c #6c8abc",
"eE c #6d8cc0",
"cA c #6d8dc1",
"aV c #6e8dbf",
"cz c #6e8dc1",
"ez c #6f8ec1",
"ex c #7091c5",
"fT c #7190c4",
"dF c #7192c7",
"av c #7193c7",
"dT c #7295cc",
"eA c #7798cf",
"e7 c #7799cf",
"e4 c #7799d0",
"e6 c #7899ce",
"e5 c #789ad0",
"ev c #789ad2",
"cD c #789bd2",
"cv c #7a9acb",
"e3 c #7a9cd2",
"aX c #7a9dd8",
"aY c #7a9ed9",
"ba c #7b9dd5",
"#4 c #7ba0d9",
"ep c #7ca0db",
"#2 c #7ca1dc",
"cQ c #7d9ccd",
"cj c #7da1db",
"e8 c #7ea1db",
"dV c #7ea3de",
"ak c #7fa4de",
"fp c #809fd3",
"#6 c #80a7e5",
"a2 c #80a8e6",
"cB c #81a6e2",
"dd c #81a6e5",
"ej c #82a8e6",
"cd c #82aae7",
"aC c #83aceb",
"#1 c #84aae9",
"d2 c #84abea",
"b0 c #84aceb",
"aL c #85aae7",
"ea c #86aeee",
"dc c #86b0f0",
".Q c #86b1f2",
"dm c #86b1f3",
"di c #87afef",
"aW c #87b0f0",
"a3 c #87b0f1",
".s c #87b0f2",
"aA c #87b1f1",
".d c #87b1f2",
"ab c #87b1f3",
"fU c #88adea",
"eM c #88aeec",
"cC c #88aeed",
"fS c #88afee",
"dw c #88b0f1",
"#s c #88b0f2",
"cW c #88b1f1",
".c c #88b1f2",
"#E c #88b1f3",
"#e c #88b1f4",
".O c #88b2f2",
"#M c #88b2f3",
"aa c #88b3f5",
"aj c #89b0ef",
"dx c #89b1f1",
".e c #89b1f2",
".y c #89b2f2",
".t c #89b2f3",
".z c #89b2f4",
"fJ c #89b3f2",
"bZ c #89b3f5",
"#K c #89b3f6",
"eZ c #8aafee",
"aK c #8ab1f1",
".6 c #8ab1f2",
"fo c #8ab2f1",
".1 c #8ab2f2",
"#G c #8ab2f3",
".f c #8ab2f4",
"#f c #8ab3f2",
".P c #8ab3f3",
"b5 c #8ab3f4",
"#L c #8ab3f5",
".r c #8ab3f6",
"b1 c #8ab4f6",
"ed c #8ab4f7",
"c8 c #8bb2f1",
"da c #8bb2f2",
"b. c #8bb2f3",
".R c #8bb3f2",
"ac c #8bb3f3",
".G c #8bb3f4",
"fI c #8bb4f2",
"cV c #8bb4f4",
"bL c #8bb4f7",
"cX c #8bb5f6",
"#N c #8bb5f7",
".b c #8bb5f8",
"fb c #8cace0",
"dS c #8cb2f2",
"gy c #8cb2f3",
"#F c #8cb3f2",
"a# c #8cb3f3",
"b2 c #8cb4f2",
"eN c #8cb4f3",
"aE c #8cb4f4",
"#0 c #8cb4f5",
"hB c #8cb5f3",
"ff c #8cb5f5",
".N c #8cb5f6",
"#O c #8cb6f8",
".H c #8cb6fa",
"db c #8cb8fc",
"fj c #8dafe7",
"#t c #8db3f2",
"f8 c #8db3f3",
".5 c #8db4f2",
"#Q c #8db4f3",
"eo c #8db4f4",
"fh c #8db4f5",
"eC c #8db5f2",
"cR c #8db5f3",
"fX c #8db5f4",
"eB c #8db5f6",
"bv c #8db5f7",
"dH c #8db6f5",
".V c #8db6f6",
"a5 c #8db6f7",
"#z c #8db6f8",
"#m c #8db6f9",
"b6 c #8db7f8",
"du c #8db7fa",
".m c #8db7fb",
"ai c #8db8fa",
"#r c #8db8fc",
"cZ c #8db9fe",
"fm c #8eb0e2",
"#l c #8eb3f2",
"d. c #8eb4f2",
"#x c #8eb4f3",
"fY c #8eb4f4",
"#R c #8eb5f2",
"dj c #8eb5f3",
"gm c #8eb6f3",
"hA c #8eb6f4",
"fi c #8eb6f6",
"el c #8eb6f8",
"eQ c #8eb7f7",
"fd c #8eb7f8",
"#T c #8eb7f9",
"d3 c #8eb7fa",
"cU c #8eb8fa",
".x c #8eb8fb",
"dl c #8eb8fc",
"ae c #8eb9fb",
"b4 c #8eb9fc",
"#5 c #8eb9fd",
"aD c #8eb9fe",
"#w c #8fb4f2",
"eb c #8fb5f2",
".S c #8fb5f3",
"#S c #8fb6f2",
"gc c #8fb6f3",
"he c #8fb6f4",
"hF c #8fb6f5",
"fV c #8fb6f6",
"gf c #8fb7f6",
"e9 c #8fb7f7",
"az c #8fb7f8",
"b# c #8fb7f9",
"gx c #8fb8f7",
"en c #8fb8f9",
"cY c #8fb8fb",
"fv c #8fb9fb",
"d4 c #8fb9fd",
"#3 c #8fbafd",
"ci c #8fbafe",
"#D c #8fbbff",
"dG c #8fbcff",
"aw c #90b5ed",
"gn c #90b5f2",
"f2 c #90b5f3",
"a4 c #90b6f2",
".2 c #90b6f3",
"hQ c #90b6f5",
"gz c #90b7f3",
"f6 c #90b7f7",
"hm c #90b8f7",
"g# c #90b8f9",
"fg c #90bafb",
"ek c #90bafc",
"ee c #90bafe",
"a9 c #90bbfd",
".l c #90bbff",
".0 c #90bcff",
"eP c #91b5f3",
"cf c #91b6f3",
"eO c #91b7f2",
".T c #91b7f3",
"gZ c #91b7f4",
"ec c #91b8f3",
"ay c #91b8f4",
"fe c #91bafc",
"ce c #91bbfc",
"em c #91bbfe",
"#y c #91bbff",
"ad c #91bcff",
"f5 c #92b6f3",
"gT c #92b7f2",
".7 c #92b7f3",
"br c #92b8f3",
"gA c #92b8f4",
"f3 c #92b9f9",
"gS c #92baf9",
"gL c #92bbfb",
"#Z c #92bbff",
"bs c #92bcfd",
".I c #92bdff",
".A c #92beff",
"aB c #92c0ff",
".3 c #93b7f3",
"hG c #93b8f2",
"#g c #93b8f3",
"fP c #93b8f4",
".4 c #93b9f3",
"fO c #93baf7",
"#7 c #93bafa",
"hu c #93bbfb",
".g c #93beff",
"fF c #94b6ed",
"f. c #94b8f1",
"#P c #94b8f3",
"eD c #94b9f3",
"f4 c #94b9f4",
"f1 c #94baf3",
"hh c #94baf5",
"h. c #94bafa",
"g5 c #94bbf9",
"gq c #94bcfc",
"gr c #94bdfe",
"aF c #94bfff",
"a6 c #94c0ff",
"#i c #95b8f3",
".8 c #95b9f3",
"#. c #95b9f4",
"#k c #95baf3",
"f0 c #95baf4",
"fu c #95bbf3",
"fn c #95bbf7",
"gN c #95bcf8",
"ax c #95bcfa",
"cw c #95bdf8",
"gj c #95bdfb",
"gM c #95beff",
"## c #95bfff",
"#U c #95c0ff",
"#u c #96b9f3",
"#j c #96baf3",
".9 c #96bbf3",
"fN c #96bbf7",
"fc c #96bcfc",
"go c #96bffc",
"hn c #96bfff",
"ht c #96c0ff",
"#h c #97baf3",
"#v c #97bbf3",
"hL c #97c0ff",
"gF c #97c1ff",
"c9 c #98baf3",
"fB c #98bbf3",
"hf c #98bcf3",
"#8 c #98bcf4",
"ft c #98bcf6",
"#9 c #98bdf5",
".U c #98c1ff",
"gs c #98c2ff",
"a. c #99bbf3",
"fH c #99bcf3",
"fZ c #99bdf4",
"e0 c #99c2ff",
"hz c #99c3ff",
"fs c #9abcf2",
"fR c #9abcf3",
"fQ c #9abdf3",
"g0 c #9ac2fd",
".F c #9ac2ff",
"gY c #9ac3ff",
"fW c #9bbdf3",
"ho c #9bbef3",
"gG c #9bc3ff",
"hg c #9cbef3",
"h# c #9cc5ff",
"fG c #9dc0f8",
"fA c #a0c4fc",
"QtQtQtQtQtQtQtQtQtQtQtQtQt.#.a.b.c.c.c.c.c.c.c.c.c.c.c.c.d.d.c.c.e.e.e.e.e.e.e.f.g.h.iQtQtQtQtQtQtQtQtQtQtQtQtQtQtQtQtQtQtQtQtQt",
"QtQtQtQtQtQtQtQtQtQtQtQt.j.k.l.c.c.e.c.c.c.c.c.c.c.c.c.c.d.c.c.e.c.c.e.e.e.c.e.c.c.m.l.n.oQtQtQtQtQtQtQtQtQtQtQtQtQtQtQtQtQtQtQt",
"QtQtQtQtQtQtQtQtQtQtQtQt.p.q.r.c.c.c.c.e.c.c.c.c.c.c.c.c.c.s.c.e.c.c.c.c.c.c.c.c.c.c.c.l.t.uQtQtQtQtQtQtQtQtQtQtQtQtQtQtQtQtQtQt",
"QtQtQtQtQtQtQtQtQtQtQt.v.w.x.c.c.c.c.c.e.c.c.y.c.c.c.c.c.c.d.c.c.c.c.c.c.c.c.c.c.c.c.c.c.z.A.B.CQtQtQtQtQtQtQtQtQtQtQtQtQtQtQtQt",
"QtQtQtQtQtQtQtQtQtQt.D.E.F.G.d.d.c.c.c.c.e.c.c.e.c.c.c.c.c.d.c.c.c.c.c.c.c.d.c.c.c.c.e.c.c.c.H.I.J.KQtQtQtQtQtQtQtQtQtQtQtQtQtQt",
"QtQtQtQtQtQtQtQtQtQt.L.M.N.e.d.d.c.c.c.c.y.c.e.e.c.c.c.c.c.c.c.c.c.c.c.c.e.O.P.y.Q.c.c.c.e.R.S.T.U.V.W.XQtQtQtQtQtQtQtQtQtQtQtQt",
"QtQtQtQtQtQtQtQtQt.Y.Z.0.c.c.c.d.c.c.y.c.1.c.y.c.c.c.c.c.c.c.c.c.c.c.c.R.2.3.T.4.5.d.s.c.6.7.8.8.9#.###a#bQtQtQtQtQtQtQtQtQtQtQt",
"QtQtQtQtQtQtQtQtQt#c#d#e.s.c.c.c.y.e#f.1.1.y.1.6.O.c.c.c.c.c.c.c.c.c.1#g.8#h#h.8#i#f.s.s.1#g.8.8#j#k#l#m.I#n#oQtQtQtQtQtQtQtQtQt",
"QtQtQtQtQtQtQtQt#p#q#r#s#s.c.c.e.1.1.R.1.1.1.1.1.y.e.c.c.e.e.c.c.c.c#t#k#u#v#j#j.8#w.d.d.1#g#u#j#j#k#x.e.e#y#z#A#BQtQtQtQtQtQtQt",
"QtQtQtQtQtQtQtQt#C#D#E#s.e.e.e.1.1.1.1.1.1.1.1.y.1.1.e.c.e.c.e.c.c.d#t#j#h#v#v#v.8.7.c.d#f.7.8#j#j#g#F.e.e.e#G.g#H#IQtQtQtQtQtQt",
"QtQtQtQtQtQtQt.L#J#K#s.e.c.e.1.1.6.1.1.1.1.1.1.1.1.1.t#L#M#N.e#O#s.r.1#P#h#v#h#v#v.2.c.d.c#Q#R.T#S#Q.e.e.e.e.6.e#T#U#V#WQtQtQtQt",
"QtQtQtQtQtQt#X#Y.0.c.e.1.e.6.6.6.e.1.1.1.1.1.1#G.P#Z#0#1#N#2#3#4#5#6.x#7#8#9a.#j.4a#.daaab.d.c.c.y.d.e.e.e.e.e.1.1acadaeafagQtQt",
"QtQtQtQtQtQtahai.z.e.e.1.6.6.6.6.1.1.e.1.1.1.1ajakalamanaoapaqarasatauav#RawaxayazaAaBaCaD.d.s.c.d.c.e.e.e.y#F.1.1.1.1aEaFaGaHQt",
"QtQtQtQtQtaIaJ#3.e.e.e.e.6.6.e.e.1.e.e.e.1.1aKaLaMaNaOaNaPaNaNaNaQaNaRaSaTaUaVaWaXaYaZa0a1a2a3.s.d.c.e.e.Ra4#g#g#F.1.1.1.1a5a6a7",
"QtQtQtQtQta8a9#E.c.y.1.1.1.6.6.e.e.6.6.y.yb.b#babbaNaNbcbdaNaNaNbebfbgbhaNbibjbkblbmbnbobpbq.c.c.c.e.c.c.5.8#h#hbr.1.6.e.6.1.Rbs",
"QtQtQtQtbtbu#z.c.e.1#G#G#G.1.6.e.y.e.6.1.y.tbvbwbxbybpbzbAbBbCaNaNaNaNbDbEbcaNbFaNbGbHbIbJbKbL.c.e.e.e.e#S#j#j#h#k.R.6.e.6.1#f.R",
"QtQtQtbMbN.l.c.c.6.1#G#G#G#G.6.6.y.1#G#G.t.t.1bObPbxbcbQbRbSbTaNaNaNaNaNaNaPbUaNbVbWbXbYbZb0b1.s.c.e.c.e.T#j#j#j#jb2.6.1.6.1.R.R",
"QtQtQtb3b4b5.c.e.1#G#G#G.P.P.1.1.6b.#G#G#G.Pb6b7b8bfb9aNc.aNc#caaNbfaNaNbfbfbCaPbfbCcbcccdce#f.s.s.c.c.ccf#j#j#j.8#R.e.1.e.6.1.R",
"QtQtcgchci.y.c.e.y.6#G.P.P#G#G.Pb.ac#G#GacaccjckclcmcncocpcqaNcrbDaNcsctaNaNbDaQaNaNaNaNcucvcw#f.c.c.e.e#R#j#j#j#j.3.S.e.6.e.1.R",
"Qtcxcyad.y.y.y.c.1.6.P.P.P#G#G.Pacacac#G#GacaKczcAaecBcCcDcEcFcGcHcIaNcJcKcLaNcMcNaNaNcOaNcPcQcR.e.e.e.e.1#g.8#j#h#j#ucR.6.e.1.1",
"QtcScTcU.y.y.c.c.e.6#G.P#G#G#G#G.Pac.P#Gac#GcVa5cWcXa5.GcY#m.PcZc0c1c2cNc3c4c5aQbCaNaNaNbpc6c7c8b5.e.e.e.c.1.S#g#jc9#id..e.1.1#f",
"#Xd##DcW.c.c.c.c.e.1.1#G#G#G#G#G#G.P.t#G#Gb.da.1#G.e.c.c.e.c.z.ddbdcdddeaNbedfdgctaNaNbcaNaNaNdhdi.e.e.e.c.e.cda.Ta4dj.R.e.1.1.R",
"dkdlb1.c.c.c.c.e.c.c.y.1#G#G#G#G#G#G.t#G#G#G.1.1.e.c#s#s.e#s.c.1.cdm#5dnbpaNaNaOdodpdqaNbfdraNdsdtdu.e.e.e.e.e.e.1.1.y.1.1.1.1#F",
"dv#Ddw.c.c.c.c.e.c.e.O.y#G.1#G.1#G#G.t#G#G.e.y.c.e.c.c.c.c#s.c.Rda.cdxdybgbgcNbcdzdAdBdCaNdrdDcbdEdF.6.e.6.e.e.e.e.e.1.1.1.1.1#F",
"dG#M.c.c.c.c.c.d.c.c.c.c.e.c.e.e.6.e.y.y.e.e.e.c.c.c.c#s#s#s#s.e#s.cdHdIdJbfdKdLdMcsdNdObodPbidQbDdR#0.e.e.y.y.y.y.y.1.1ac.1dadS",
"#r.c.c.c.c.c.c.c.c.c.c.d.c.s#s#s.c#sdadj.1.c.c.c.c.c.c#s#s#s.s.s.s.d.cdTdJbhdU#ydVdWdXdAdEbyaPdYdZbVd0#G.6.1.1.1.y.y.1acacac.Rda",
"cW.c.c.c.c.c.c.c.d.d.c.O.c.R.c.s#s.c.T.8.7.c#s.c.c.c#s.c.s.c.c.s.c.d.daCd1d0d2d3#zd4d5d6d7d8bSaNd9e.e#ea#G.1.1b..y.1aca#aca#.R#Q",
".c.c.c.c.c.c.c.c.d.c#feb.7ecdj.ea##F.T.8.T.y.s.s.c.c#s#s.s.s.d.c.s.s.d.ded#L.b.e.e.eeedwefegeheiaNbnasejd3a5ekelembveneoaca#b2#Q",
".c.c.O.c.c.c.c.c.O#F.4#j#j#j#g#S#P#g#Fd.#F.c.s.s.s.s.s.c.c.s.s.d.s.d.d.s#E.s.c.c.e.e.e.f.IepeqeresaNeteuevewexeycDezeAeBdSa##Q#Q",
".O.c.O.c.c.c.c.ceC#P#j#j#j#j.8#P#heD.1.c.e.s.s.s.s.c.s.c.c.d.s.s.d.d.d.s.s.s.e.e.e.e.y.e.e#zcieEeFbGaNeGeHeIaNeJaNeKcteLeMeNeN#Q",
".O.O.O.c.c.c.c.yeO#j#j#j#j#j.8#g#jeP.y.d.c.s.s.s.c.c.c.c.c.s.c.s.c.c.s.s.s.s.d.e.e.e.e.e.e.e.ed4eQeReSaNbfc3eTeUeVeWeXeYeZeN#Q#x",
"d..5#f.O.c.O.c.R#g#j#j#j#j#j.8.T#g.R.d.c.c.c.s.d.s.c.c.c.c.c.s.s.s.s.s.s.s.s.d.e.e.e.e.e.e.e.edae0e1cbbVaNe2e3e4e5e6e7e8e9b2d.dj",
".8#g#R.y.y.y.d.y#g#j#j#j#j#j#Pb2.R.e.c.c.c.c.c.d.d.d.c.c.c.c.s.s.s.s.s.s.s.s.s.c.e.e.e.e.e.e.eaEf.f#bfaNfafbfcfdfefffgfhfi.5.5dj",
"#j#ka4.y.y.c.d.c.7#h#j#j#j#h#g.y.d.d.c.c.c.c.c.d.d.d.d.c.c.c.s.s.s.s.s.s.d.s.d.d.e.e.e.e.6.6.eeBfjfkaNbfflfmfnacda#F.Ra##Q#Q.5dj",
"#v.9.2.e.c.c.c.c.R#g.9#j#h#P#R.c.d.d.d.c.c.c.d.c.d.d.d.d.d.s.s.s.s.s.c.d.d.d.c.e.e.e.e.e.6.6.efofpfqaNaNfrfsft#Q.1a#a##Q#Q#Q#Q#Q",
"#vfu.5.e.O.c.c.c.yb2#R.7#ReN.O.d.d.c.d.d.c.c.c.d.d.d.d.d.d.s.s.s.c.s.e.c.c.e.e.e.e.e.e.e.6.6.6fvfwbnfxfyfzfAfBeD.5a##Q#Q#Q#Q#Q#Q",
"#hec.R.y.y.y.y.y.O.O.y.O.y.d.d.d.c.d.d.d.c.c.c.c.c.d.d.d.d.c.s.s.c.e.e.e.e.e.e.e.e.e.e.e.e.e.1#GfCaNfDfEfFfGfHfBa.br#Q#Q#Q#x#Q#Q",
"#gfIfJ.y.y.y.y.y.O.O.O.O.O.O.d.c.c.d.d.c.c.c.c.c.e.c.c.d.d.c.c.c#s.c.e.e.e.c.e.e.e.e.e.1.6.1.1dxfKfLfMfNfOfPfBfQfRfB#x#Q#x#xdj#Q",
"#P#k#R.1.y.1.y.y.y.O.O.O.O.c.d.d.c.s.d.c.c.d.c.e.c.c.c.d.d.d.c.yda#x.1.e.e.c.e.1.e.e.1.1.y.1.1acfSfTfUfVeNcRfHfWfWfBdj#Q#x#Q#Q#Q",
"fB#8#kfI.1.y.y.O.y.y.O.O.O.c.c.c.d.c.d.c.c.d.c.c.c.c.c.d.d.d.y#SeD.8.T.e.e.e.e.1.6.e.1.1.y.1.1acacazfXeoa#cR#hfRfH#P#Q#Q#Q#QdjfY",
"fBfZf0.5.1dj.y.y.O.y.y.y.c.c.c.c.d.c.d.c.c.d.s.c.e.c.c.c.c.cdj#j#j#hf1.1.6.6.e.1.1.1.1.1.1.1.1.1daa#daa#a#a#f2#g.7djeN#Q#Q#Qdjf3",
"eDf4.7b2a#.S#Q.y.y.y.e.y.c.c.e.c.c.c.e.e.c.c.d.c.e.e.e.e.e.ef5#h#v#h#ha#.e.e.6.1ac.1.1.1.1.1.1.Rdaa#daa#a#a#a#a#a##QeN#Q#Q#Qf6f7",
"#F#xf8.R.Rda.1.y.y.y.e.e.e.c.y.e.c.c.e.e.c.d.c.c.c.e.e.e.e.e#g#j#v#h#j#Q.y.6.6.1acac.1.R.1da#F#Fa##Q#Fa#eNeN#Q#Q#Q#QeN#Q#Q#Qf9g.",
"#F.R#F#Fdadada.1.1.y.y.y.y.O.y.e.e.c.e.e.c.e.c.c.c.6.e.e.e.1br#j#h#hbr.P.y.1.1.1ac.1.R#F.Ra##Q#Q#Q#Q#Q#Q#Q#Q#Q#Q#Q#Q#Q#Q#Qg#gagb",
"a##F.R.Rdadada.1.1.1.y.y.1.y.y.e.e.e.e.e.e.6.e.6.e.6.e.e.e.egc#keD.7#Q.6.1b..1.1.1.R#Fa#a##Q#Q#Q#Q#Q#Q#Q#Q#Q#Q#Q#Q#Q#Q#Q#QgdgeQt",
"f8a#.R.Rdadada.1.1.1.y.y.1.y.y.y.e.1.1.1.6.1.1.6.6.e.e.1.e.y.6.5b2#F.ya#.T.3a#.R.R#F#Fa##Q#Q#Q#Q#Q#Q#Q#Q#Q#Q#Q#Q#QdjdjdjgfggQtQt",
"#Q#F#F#F.R.R#f.1.1.1.y.1.y.1.y.1.1.1.1.6.1.1.6.1.6.y.1.1.1.y.1.6.1.6.1eN#kfH.7.R.Ra##Q#Q#Q#Q#Q#Q#Q#QcRdjdjdjdjdjdjdj#RdjghgiQtQt",
"b2#F#F#F.R.R.ReN.1.1.1.1.1.1.1.1.1.1.1.6.6.1.1.1.1.1.1.1.1.1dada.1.1.1.R.7#jgc.R.Ra##Q#Q#Q#Q#Q#x#x#Q#xdj.Sgcgc#SgcgcgjgkglgbQtQt",
".5#F#Fb2.R.Ra#cf#R.1.1.1.1.1.1.1.1.1da.1.1.1.1.1.1.1.1da.1.R.R.R.R.1dada.5#R#Qa#a#a#a##QcR#Q#x#x#x#x#xgm.S.2gc.2.2gngogpQtQtQtQt",
"gqgrb2b2b2.R#F.2#Q#Fa#a#a#acda.1da.1da.Racda.R.R.R.1dada.R.R.R#f.Rda.Rda.R#Fa##Qa##Q#Q#QcR#x#x#xdjdjdj.S.2.2.2.T.2gsgtguQtQtQtQt",
"gvgw.Ugxb2b2b2.R#Q#Q#Q#Qa#a#gya#a#a#aca##F.Ra#.R.R.1da.R.R.R.R.R.R.R.R.R.Ra#a##Q#Q#Qdjdjdjdj#xdjdj.Sgmcf.2.T.TgzgAgBgCQtQtQtQtQt",
"QtQtgDgEgFfXcR#Q#x#Q#Q#Qa#a##Qa#a#a#aca#.Rdaa#b2.5.Rda.Rda.R#F#F.R.R.R#Qb2#Q#Q#Qdjdjdjdj.Sgcdj.S.S.Sgccfgz.T.Ta4gGgHgIQtQtQtQtQt",
"QtQtQtgJgKgLgMdj#xcRdjdj#xcRcReNa##Qa##Qa#.Ra#ec#gf2.R.R.R.R.R#F#F#F#Q#Q#Q#Q#Qdjdjdjdj#Qdjgc.S.S.S.Sgc.2.T.T.TgNgOgPQtQtQtQtQtQt",
"QtQtQtQtQtgQgRgsgSdjgc.S.SdjcR#Q#Qa#a##Fa#.R#x.9a..7#F.R.R.R.R#Fa##t#Q#Q#Q#Qdjdjdjdj#Q#Qdj.Sgc.S.S.S.2.T.T.7gTgUgVQtQtQtQtQtQtQt",
"QtQtQtQtQtQtQtgWgXgYgZ.2.2.ScRcRa#a#b2#F#F.ReNeD.8.2.R.R.R.R#F#Fa##Q#Q#Q#Q#Qdjdj#x.Sdjdj.Sgc.S.S.Sgc.Tcfbr.7g0g1g2QtQtQtQtQtQtQt",
"QtQtQtQtQtQtQtQtg3g4g5.U.2.SdjcR#Q#Q#Qb2b2b2b2#Q#R#R.2eb.T#xb2#Q#Q#Q#Q#Q#Q#Qdjdjdjgc.S.Sdj.Sdj.Sgcgc.Tbr#gbrg6g7QtQtQtQtQtQtQtQt",
"QtQtQtQtQtQtQtQtQtQtg8g9.Fh..SdjcRcR.5b2b2b2.5.R#QeD#vfRfBcf.5.5#Q#Q#Q#Qdj.S.2djdjdj.Sdjdj.Sdj.Sgc.T.T.7brh#hahbQtQtQtQtQtQtQtQt",
"QtQtQtQtQtQtQtQtQtQtQtQthchd.Fhedj.5.5.5.5b2.5.5.2hffWfWhg#jd.#Q#Q#Q#QeN.TfB#j.2djdjdjdjdj.Sgc.2gcgz.T.ThhhihjQtQtQtQtQtQtQtQtQt",
"QtQtQtQtQtQtQtQtQtQtQtQtQthkhlhmhn.5.5.5.5.5.5#Q.8hgfWfQho#v#R#Q#Q#Q.5#Q#gfQfQ.7djdjcRdj.S.Sgc.2.2.2.Ta4hphqQtQtQtQtQtQtQtQtQtQt",
"QtQtQtQtQtQtQtQtQtQtQtQtQtQtQthrhshthudj.5eC.5dj#vhgfWhofQ.8cRcR#Q#Q#Q#Q.TfWfQ.T#x#xdj.Sdj.S.2.2.2.2.2gjhvhwQtQtQtQtQtQtQtQtQtQt",
"QtQtQtQtQtQtQtQtQtQtQtQtQtQtQtQtQthxhyhzhA#RcRdjbrhghohofH.2hBcR#Q#xdj#x#khgfWecdj#xdj.S.S.Sgc.2.2.2ebhChDQtQtQtQtQtQtQtQtQtQtQt",
"QtQtQtQtQtQtQtQtQtQtQtQtQtQtQtQtQtQtQthEhFhtdjdjcR#jfWfBhGhB#Rdjdj.S.S.S.3fRfB.T.S#x.Sdjgc.S.2.2.2.2.UhHhIQtQtQtQtQtQtQtQtQtQtQt",
"QtQtQtQtQtQtQtQtQtQtQtQtQtQtQtQtQtQtQtQthJhKhLhu.S.S.7.7gceC.S.Sdjdjdj.Sf2cf.Tdjdj.S.Sgcgc.S.2gcgc.2hMhNQtQtQtQtQtQtQtQtQtQtQtQt",
"QtQtQtQtQtQtQtQtQtQtQtQtQtQtQtQtQtQtQtQtQtQthOhP.FhQ.S.S.S.S.S.S.S.Sgm.S.S.Sdjdjdj.S.Sgcgcgcgcgc#SgYhRhSQtQtQtQtQtQtQtQtQtQtQtQt"};
