/* XPM */
static char *dummy[]={
"64 64 328 2",
"#a c #000000",
"#u c #000001",
"#x c #000101",
".8 c #010101",
"#n c #010102",
"bX c #010103",
"#E c #010202",
"ab c #010203",
"#t c #020202",
"#M c #020203",
"au c #020204",
"aF c #020303",
"#j c #020304",
"b1 c #030303",
"b# c #030304",
"b6 c #030305",
"bT c #030404",
"#i c #030405",
"#N c #030406",
"cA c #030506",
"ca c #030507",
"az c #030508",
"bK c #040407",
"#R c #040506",
"#k c #040507",
"ci c #040607",
"#S c #050505",
"aq c #050507",
".2 c #050508",
"#B c #050608",
"cD c #050609",
"bF c #050708",
"ac c #050709",
"aG c #05070a",
"cI c #060609",
"#s c #06070a",
"aJ c #06080a",
"bn c #06080b",
"cb c #06090c",
"bx c #07070a",
"#F c #07080b",
"bG c #07090b",
"#w c #07090c",
"bM c #07090d",
"co c #070a0d",
"cu c #080a0c",
"cm c #080a0d",
"#D c #080a0e",
"bf c #080b0e",
"cB c #080b0f",
"## c #090b0f",
"#I c #090c11",
".1 c #0a0b0f",
"ch c #0a0c0f",
"at c #0a0c11",
"cO c #0a0c12",
"cQ c #0a0d10",
"aM c #0a0d11",
"cV c #0a0d12",
"aH c #0a0f14",
"aU c #0b0d12",
"b8 c #0b0e13",
"aQ c #0b0f14",
"#v c #0b1013",
"aT c #0c0e13",
"aX c #0c0f11",
"#1 c #0c0f13",
"b0 c #0c0f15",
"cn c #0c1016",
"ax c #0d1014",
"cW c #0d1116",
"cr c #0d1117",
"ad c #0e1118",
"cH c #0e1218",
"bU c #0e1318",
"bB c #0e1319",
"aE c #0f121a",
"cP c #0f131a",
"a5 c #101218",
".9 c #101419",
"aS c #11151b",
"bC c #11151e",
"aK c #11161e",
"aw c #11171e",
"aI c #12161f",
"bJ c #121721",
"b7 c #13181f",
"#C c #131921",
"cX c #141821",
"bV c #141921",
".3 c #141922",
"#o c #141a23",
"bw c #141a25",
"bt c #141c25",
"#V c #151b23",
"a7 c #151b25",
"cZ c #161b25",
"cY c #161c25",
"a2 c #161d28",
"#l c #161e28",
"ba c #171c24",
"ap c #171e27",
"aR c #171e28",
"a6 c #171e29",
"bh c #181d26",
"#0 c #181e29",
"#Z c #181f2a",
"b. c #19202e",
"av c #1a212e",
"bm c #1b232f",
"ay c #1b2330",
"#H c #1c2330",
"cE c #1c2430",
"bg c #1d2531",
"bL c #1e2632",
"#T c #1e2635",
"a8 c #1f2834",
"#r c #1f2836",
"#U c #1f2937",
"#b c #202837",
"cl c #202938",
"aV c #202a38",
"#m c #212c3b",
"#G c #222c3b",
"cN c #222c3c",
"a3 c #232d3d",
"aa c #242e3f",
"cj c #242f41",
"#W c #243041",
"cG c #263140",
"#. c #263141",
"bW c #263144",
"bE c #273346",
"cC c #283245",
"cK c #283345",
"aA c #283346",
"c# c #2a374b",
"by c #2c384b",
"a9 c #2c394c",
"a4 c #2c3a4e",
"a# c #314057",
"aW c #334053",
"#X c #34455e",
"bZ c #35445f",
"cJ c #3a4863",
"#A c #3a4a65",
"bH c #3e506d",
"cf c #3f516e",
"cU c #40536f",
"bP c #415372",
"ak c #415474",
"aj c #425575",
"c0 c #455775",
".7 c #475976",
"al c #475d7e",
"ai c #495f83",
"ao c #4d6181",
"ce c #4d6589",
"aL c #4e5f7e",
"cc c #4e668c",
"bu c #506585",
"be c #516990",
"am c #526a90",
"cs c #526c94",
"a. c #53698e",
"bY c #546b92",
".0 c #576c8d",
".4 c #57729c",
"an c #597198",
"#Q c #59729b",
"#h c #59749f",
"ae c #59759f",
"bO c #5c77a2",
"ah c #5e7ba7",
"#L c #5f7daa",
"cv c #607aa5",
"#9 c #617daa",
"cF c #637fac",
"#2 c #6382b1",
"cT c #6480af",
"#q c #6482b1",
"#y c #6483b4",
"#J c #6583b5",
"#g c #6683b6",
"cz c #6a88b7",
"bQ c #6c8cbf",
"#O c #7092c7",
"#f c #7092c8",
"as c #718fc5",
"ar c #7191c5",
"#4 c #7191c6",
"cw c #7295cc",
"b5 c #7395cc",
"#8 c #7594c9",
"#p c #759bd3",
"b2 c #7697cc",
"cx c #769bd3",
"#3 c #7798cf",
"bv c #779ad4",
"ag c #799bd4",
"#7 c #799cd5",
"#e c #7a9ed9",
"aP c #7b9fd8",
"ck c #7ba0dc",
"aD c #7c9ed5",
"aB c #7da1da",
"cS c #7da2dd",
"bS c #7da2de",
"cq c #7da5e1",
"#c c #7ea5e2",
"bN c #80a3df",
"bs c #80a5e3",
"bR c #80aae7",
"aY c #81a0cd",
"bA c #81a7e5",
"cg c #82aae7",
"#Y c #83aae6",
"#d c #83aae8",
"bI c #83aae9",
"b9 c #84a8e3",
"bl c #84acec",
"cp c #85abe6",
"cd c #85aeed",
"cy c #85afef",
"cL c #86a9e4",
"cR c #86ace6",
".5 c #86aeee",
"ct c #86aff0",
"bo c #87a5d7",
"af c #87afee",
".E c #87b0f2",
".C c #87b1f2",
"bD c #88aeeb",
"#6 c #88afee",
"#5 c #88afef",
"#z c #88b0f0",
"aO c #88b0f2",
"Qt c #88b1f2",
".D c #88b2f2",
"bb c #89a9dc",
"#P c #89b0f1",
".# c #89b1f2",
".i c #89b2f2",
"a0 c #89b2f3",
"aN c #8aade5",
".h c #8ab1f2",
".g c #8ab2f2",
"a1 c #8ab2f3",
".l c #8ab3f2",
".K c #8ab3f3",
".k c #8bb2f2",
".6 c #8bb2f3",
".a c #8bb3f2",
".j c #8bb3f3",
".Q c #8bb4f3",
"c1 c #8cb3f0",
".d c #8cb3f2",
".R c #8cb3f3",
".m c #8cb4f2",
".z c #8cb4f3",
".Y c #8db3f2",
".I c #8db4f2",
".n c #8db4f3",
"dd c #8db5f2",
".J c #8db5f3",
"bz c #8eb2e8",
"#K c #8eb4f2",
".o c #8eb4f3",
".c c #8eb5f2",
".t c #8eb5f3",
"b3 c #8eb6f3",
"c3 c #8fb4f3",
"b4 c #8fb5f2",
".u c #8fb5f3",
"c. c #8fb6f2",
".X c #8fb6f3",
".V c #90b3e7",
"cM c #90b3eb",
".N c #90b5f2",
".B c #90b5f3",
"c7 c #90b6f2",
".b c #90b6f3",
".v c #90b7f3",
"aC c #91b6f2",
".r c #91b6f3",
".q c #91b7f3",
"de c #91b8f3",
".U c #92b4eb",
".p c #92b7f3",
".w c #92b8f3",
".H c #93b7f3",
".e c #93b8f3",
"df c #93b9f3",
"bi c #94b6ec",
".x c #94b8f3",
".A c #94b9f3",
".W c #95b9f1",
".y c #95b9f3",
".s c #95baf3",
".Z c #96b9f1",
".F c #96b9f3",
".f c #96baf3",
"da c #96baf4",
".T c #96bbf3",
".G c #97baf3",
"dc c #97baf4",
".P c #97bbf3",
".M c #98baf3",
".S c #98bbf3",
"br c #98bbf4",
"c2 c #98bcf3",
"bp c #98bcf4",
"bc c #99bbf3",
"aZ c #99bcf3",
"bq c #99bcf4",
"bd c #9abcf3",
"bj c #9abcf4",
"db c #9abdf3",
"c5 c #9abdf4",
"c6 c #9bbcf3",
"c9 c #9bbcf4",
"bk c #9bbdf3",
"d. c #9bbdf4",
"c4 c #9bbef3",
"c8 c #9cbef3",
"d# c #9dbff4",
".O c #9ebff3",
".L c #9fc0f3",
"QtQtQt.#.a.b.c.d.a.e.f.f.f.f.f.f.c.#.g.g.h.#.#QtQtQtQtQtQtQtQt.#.a.a.#.#.#.i.g.g.g.j.j.j.j.g.k.l.l.m.n.n.o.b.b.b.b.p.q.b.p.r.p.e",
"QtQtQt.#.#.#.#.#Qt.g.q.s.f.f.f.f.c.#.#.#.#.#.#QtQtQtQtQtQtQt.#.q.s.f.p.#.#.#.#.#.#.g.j.j.g.j.g.h.l.a.a.a.m.n.t.u.b.b.v.b.q.q.w.x",
"QtQtQtQtQt.#.#.#QtQt.#.g.l.a.q.c.#.#Qt.#.#.#QtQtQtQtQtQtQtQt.r.y.y.f.f.u.#.#.#.#.h.g.g.g.g.g.g.h.g.l.a.g.a.z.o.t.b.b.b.b.q.q.w.A",
"QtQtQtQtQtQtQtQtQt.#.#.#.#.#.#.#.#.#.#.#QtQtQtQtQtQt.#QtQt.#.e.y.y.f.s.x.g.#.#.#.#.g.g.g.g.h.#.h.h.g.a.a.a.m.n.o.o.B.b.b.b.r.w.w",
".CQtQtQtQtQtQt.D.D.i.i.#Qt.#.#.#.#.#.#.#QtQtQtQtQtQtQtQtQt.E.b.y.F.f.f.e.#.#.#.#.i.b.A.x.m.h.h.g.h.h.g.a.k.a.m.n.n.o.u.b.q.p.q.q",
"QtQtQt.CQt.CQtQtQt.i.D.DQtQtQtQtQtQtQtQtQtQt.CQtQt.C.C.C.E.E.g.e.y.y.x.aQt.#.#.#.m.f.f.G.s.m.h.g.h.#.#.g.g.a.d.m.n.n.t.b.b.q.r.q",
"Qt.C.C.C.C.CQtQtQtQtQtQt.C.CQt.#.#QtQtQtQtQtQtQt.b.A.H.d.C.C.C.I.b.I.iQtQtQt.#.#.m.f.f.f.f.y.g.h.#.h.#.g.g.l.m.m.n.n.n.J.t.r.r.s",
".C.C.C.C.C.CQtQtQtQtQtQtQt.CQtQt.#QtQtQtQtQt.g.H.f.y.y.x.I.C.CQtQt.E.EQt.CQtQtQt.i.s.f.f.f.f.H.e.p.K.#.g.g.l.d.m.n.n.n.t.t.u.e.L",
".E.C.C.CQtQtQtQtQtQtQtQtQtQt.EQtQtQtQtQtQtQt.q.G.f.f.f.y.s.g.C.C.C.C.E.EQtQt.#.#.#.v.f.f.f.f.f.f.M.N.#.g.g.g.d.n.n.n.n.t.t.t.e.O",
"QtQt.E.EQtQtQtQtQtQtQtQtQtQtQt.CQtQtQtQtQt.g.A.y.P.P.P.P.G.k.C.C.C.CQtQtQt.#.#QtQt.g.x.f.f.f.f.M.f.Q.g.g.g.g.k.d.R.n.n.n.t.t.u.S",
"QtQtQtQtQtQtQtQtQtQtQtQtQtQtQtQtQtQtQtQtQtQt.e.T.G.P.U.V.W.l.C.C.C.C.CQtQtQtQtQtQt.#.g.q.x.q.H.e.I.i.g.g.g.g.k.k.m.n.n.n.n.t.u.X",
"QtQtQt.CQtQtQtQtQtQtQtQtQtQtQtQtQtQtQtQtQtQt.Y.f.Z.0.1.2.3.4.5.E.C.CQtQtQt.E.EQt.#.#.#.#.#.#.#.#.g.#.g.g.j.j.g.m.n.n.n.6.h.u.X.X",
"Qt.#QtQtQtQtQtQtQt.iQtQtQtQtQtQtQtQtQtQtQt.CQt.d.7.8.9#.###a#b#c.C.C.CQt.#.m.EQt.#.#.#Qt.#.#.#.#.#.i.g.g.j.j.R.m.n.n.n.6.h.t.u.X",
"QtQtQt.#QtQt.#QtQtQt.#QtQtQtQtQt.#.#.##d#e#f#g#h#i#j#k.2#l#m#n#o#p.C.C.#.p.s.X.#.#.#.#.#.#.#.#.#.i.i.i.g.R.j.R.R.n.n.t.6.h.h.6.X",
"QtQtQtQtQtQt.#.#QtQt.#QtQtQtQtQtQt#q#r#s#t.8#u#u#a#a#a#v#w.8#t#x#i#y.C.g.y.s.H.#.#.#.#.#.#.h.i.i.g.i.g.g.R.R.R.R.z.n.n.6.h.h.h.h",
"QtQtQtQtQtQtQtQt.iQt.i.#.g.i.##z#A#u#B#l#C#D#j#u#a#E.8#a#F#G#H#I#a.8#JQt#K.p.I.i.#.#.#.h.#.#.g.g.g.6.g.g.k.j.R.d.k.h.h.h.h.h.h.h",
"QtQtQtQtQtQtQtQt.#.g.i.g.g.g.g#L#u.8#a#a#a#a#a#M#N#a#a#a#a#a.8#x#n#a#t#OQtQtQt.#.#.#.#.#.#.h.h.g.g.6.j.6.h.h.h.h.h.h.h.h.h#P.h.h",
"#K.#.C.C.CQtQt.i.g.g.g.g.g.i.g#Q#a#a#n#j#R#S#j#a#M#T#U#a#a.8#a#V#W#R#a.8#X#cQt.#.#.#.#.#.#.#.h.g.j.j.j.h.h.h.h.h.h.h.h.h.h.h.h.h",
".x.I.#.C.CQt.#.g.a.g.g.g.g.g.i#Y#Z.8#a#a#a#a#a#n#a#0#E#j#a#u#a#a.8#1#a#a#a#D#2.#.#.#.#.#.#.#.#.h.g.g.g#3#4#5.h.h.h.h.R.h.h.h.k.R",
".I.gQtQtQtQt.i.g.g.g.g.g.g.g.g.g#6#7#8#9a.a##R.2aa#a#aabac#a#u#a#a#x#aad#n.8abaeafagahaiajakalamanaoap#naqar.h.h.6.n.n.n.h.R.o.t",
"QtQtQtQtQt.#.g.g.g.g.g.g.g.g.g.g.g.g.k.j.j.kasatauav#a.8#aawax#a#a#n#a#nay#a#a#aaz#n#a#a#a#a#a#u#a#a#aaAaB.h.h.R.n.n.n.n.n.n.o.n",
".E.E.EQtQt.#.g.h.g.g.g.g.g.g.k.6.6.g.g.k.j.6aCaDaEaFaG#aaH#a#BaI#a.8#a#aaJ#aaK#x#a#M#x#aaF#a.8aL.8#uaMaN.R.k.d.R.n.n.n.o.t.o.n.J",
".E.EaO.#.#.g.g.g.#.g.#.#.g.g.6.j.6.g.h.k.6.j.q.aaPaQ#E#E#aaRaS.8.8#a.8aTaU#i#aaVad#a.8#a#a#aaW#i#aaXaYaZ.e.n.k.n.n.n.n.o.n.n.o.o",
".E.EaOQt.#.#.h.h.g.#.#.#.i.ia0a1a1.k.h.h.6.6.a.#.#a2#a#a#a#aa3a4#na5#Ma6#sa7a8#xa9b.#a#ab#.8#k#ababbbcbdaZ.G.faZ.y.n.n.o.n.o.t.t",
".E.EaO.#.#.h.h.h.#.g.h.h.ga0a0a1.j.6.#.g.g.g.g.#Qtbe#xaF#a#a#a.8#a#a#a#xbfaFbg#a.8#E#a#ab##B#abhbi.SbjbjbdaZaZbdbk.p.n.o.n.n.o.t",
"Qt.EaO.g.#.h.h.#.#.#.#.ga1a1a1.j.j.6.g.i.i.iQt.#Qtblbm#u#a#a#a#a#a#a#a#abn#a#x#x#a#a.8#s#a.8#Mbo.Sbpbjbqbr.SaZbkbk.y.n.n.n.n.n.t",
"Qt.C.#.#.#.h.h.h.h.#.i.ga1a1a1.j.j.j.g.i.#.#aOaOQtaObsbt#a#x#M#i#a#a#a#a#a#a#a.8#aau#a.8#a#a.8bubqbqbjbr.X.taZbkbk.q.n.z.n.n.n.o",
"QtQt.#.#.g.g.g.g.h.h.h.g.6a1a1a1a1.j.g.g.#QtQtQtaOaObvbwbx#a#naF#a#a#a.8#a#a#M#a#a#aaJ#u#a#a.8#abybz.q.t.a.j.v.f.p.n.n.z.n.n.n.n",
"QtQt.#.i.ga1a1a1a1.g.g.6.j.ja1a1.j.6.k.g.#QtQtQtaObAbB#n#a#a#a#u#aaX#a#t#a#abC#a#a#u#a#j.8#a.8#j#u#UbD.d.R.R.R.R.R.n.n.n.n.n.n.n",
"QtQtQt.i.ga1a1.K.Ka1.K.K.j.j.Ka1a1a1.g.iQtQtQtQtQtbE#a#a.8#a#a#a#aab#a#a#a#n#EbF#a#a#a#a#x#a#a#abG.8bH.d.R.R.R.R.n.n.n.n.n.n.t.t",
"QtQtQt.#.ga1a1.K.Ka1a1a1.K.Ka1a0a1a1.#.#QtQtQtQtbI#j#a#a#nadbJ#abKaF#a#a#a.8aybL#a#a#a#a#a#a#a#a#abM#kbN.k.R.z.z.n.n.n.n.t.t.t.t",
"QtQtQt.#.ga1a1.K.Ka1a1a1a1a1a1a0a1.g.#.#QtQtQtQtaObObPbQbRbSbT#abU#a#a.8bV.8#a#nbW.8#a.8#abX.8.8#a#a#ubY.d.R.R.n.n.n.n.n.J.t.X.b",
"QtQtQt.#.i.ha1.K.Ka1a1a1a1a1a1a1.i.g.gQtaO.E.EQt.E.EQtQtQtbZ#a#a#a.8.8#R#n#n.8#nb0b1#abT#a#a.8.8#a.8.8aKb2.n.n.n.n.n.n.tb3.X.X.b",
"QtQtQtQt.#.g.ha1a1a1a1a1a1.g.h.#.#b4.x.bQt.E.E.E.EQtQtQtb5b6b1#aaJad#ab7###a#n.8#ab##a#a#x#a#a.8#a#a#a#jb8b9.n.n.n.t.uc.b4.b.b.v",
"QtQt.i.iQt.#.i.g.g.ga1.g.#.#.#QtaO.q.f.x.g.E.E.EQtQtQtQtc##E#aca#Ecbcccdce.8b0#u.8#a#a#a#i#a#a#a#a.8#a#a.8cf.n.t.t.t.b.X.b.b.v.q",
".i.i.iQtQtQt.#Qt.i.i.i.#QtaOaOaOQt.I.q#K.#.E.E.E.E.EQtcg#Bchci#acjckQt.##zcl.8#u#a#a#a#a#MbKab#a#acmcn#a#tcocp.J.t.u.b.b.b.q.q.q",
".i.i.iQtQt.#QtQt.#QtQtQtaO.EQt.E.u.e.gQtQtQt.E.E.C.C.Ccq#j#ncrcsct.E.E.#.#aP#B#ab6#a#a#a.8cu#a#a#a#a#a#aau#ucv.o.J.X.b.b.q.v.q.w",
".i.iQtQtQtQt.#QtQtQtQt.CQt.b.b.d.x.f.qQt.CQtQtQtQt.C.C.Ccwcxcy.EQtQtQt.#.q.xczcAcBcC#aab.8#a#a#a#a#a#a.8#RcDcE.o.t.u.b.v.q.q.q.w",
"QtQtQtQtQtQtQt.CQtQtQt.#.q.s.s.H.x.f.HQtQtQtQtQtQtQt.C.C.C.C.C.CQtQtQt.X.f.G.fcF#n.8#M#a#j#jcGcHcI#a#aabcJcK#kcL.t.X.r.v.q.q.p.w",
"QtQtQtQtQtQtQtQt.C.C.C#K.f.f.f.f.p.s.HQtQtQtQtQtQt.C.C.C.CQt.C.C.C.C.i.A.f.f.GcMcN.8#a#a.8#a#n.8#aaucOb8crcPcQcR.u.X.b.q.q.p.e.e",
"QtQtQtQtQtQtQtQtQt.CQt.A.f.f.f.f.y.b#KQtQtQtQtQtQtQtQtQt.#QtQt.C.C.C.#.A.G.P.G.f.zcScTcUcKcV#k#scWcXcYaRcZcPc0.u.u.u.X.q.q.p.w.w",
".CQtQtQtQtQtQtQt.#Qt.m.f.f.f.f.f.f.b.C.C.C.C.CQtQtQtQtQtQtQtQtQtQtQtQt.p.f.f.G.f.j.h.b.S.f.R.a.a.R.R.n.t.tc1.I.u.u.u.X.r.q.e.w.w",
"Qt.CQtQtQtQtQtQtQtQt.c.f.f.f.f.f.f.y.#.C.CQt.C.CQtQt.C.#.#QtQtQt.#.#.#.g.s.f.G.p.g.g.b.P.S.t.R.R.n.n.t.t.u.X.u.u.u.u.X.q.w.e.w.w",
"QtQtQtQtQtQtQtQtQt.#.a.f.f.f.f.f.f.A.#.C.C.C.C.CQtQt.CQtQt.#.#.#.#.#.#.#.X.A.p.g.h.g.g.b.q.d.R.n.n.n.t.t.t.t.u.X.u.u.X.v.p.p.w.w",
".i.DQtQt.DQtQtQtQtQt.i.q.f.f.f.f.f.b.C.C.CQt.C.CQtQt.C.C.E.#.#.#.#.#.#.#.#.h.h.g.g.k.g.k.a.d.R.n.n.t.t.t.n.t.X.X.u.u.X.q.q.q.p.q",
".D.D.DQtQt.DQtQt.i.C.C.i.e.f.T.fb4.i.C.CQtQt.E.E.CQtQtQt.CQtQt.#.h.#.#.#.i.g.g.k.g.g.k.k.a.a.R.n.n.t.t.n.n.X.u.u.t.u.X.b.v.q.v.b",
".i.i.D.D.D.D.D.D.i.i.C.C.i.I.c.m.i.D.D.C.C.C.CQt.C.#.#.CQtQtQt.#.h.#.g.g.g.g.k.a.a.k.k.a.a.m.n.n.t.t.t.u.t.u.t.t.u.X.b.b.b.b.b.X",
".i.i.i.D.i.I.c.i.i.iQtQtQt.i.D.D.i.D.DQtQtQt.C.C.#.#.#Qt.#.#.#.h.h.#.g.g.g.g.a.a.l.a.a.a.m.n.n.n.t.t.n.u.X.u.t.t.u.X.b.b.b.b.X.b",
".i.i.i.d.e.x.A.cQtQtQtQt.i.i.D.D.D.D.DQtQtQtQtQtQt.#.#.#.#.h.g.h.h.g.g.g.k.g.a.a.a.a.a.a.n.n.n.n.n.t.t.t.t.t.t.t.u.u.b.b.b.b.X.b",
".g.g#K.y.f.f.s.e.kQt.i.i.i.i.i.D.D.D.DQtQt.#.#QtQtQt.#.#.h.g.g.h.g.g.g.g.k.k.a.a.d.d.d.d.n.n.n.n.n.t.t.t.t.t.J.t.t.u.X.b.b.b.b.b",
".i.I.Sc2.G.P.P.s.d.i.i.i.i.i.i.i.i.i.i.#QtQt.i.#.#.#.#.g.g.g.g.g.g.g.g.g.k.a.k.a.a.d.d.R.n.n.n.n.n.b.A.b.t.t.t.t.u.u.u.b.X.X.b.b",
".d.SbdaZbc.P.P.P.I.i.i.i.g.i.D.D.i.i.#.#.#.D.i.i.#.#.g.g.h.h.g.g.g.a.a.g.k.a.a.a.a.a.d.R.n.n.n.n.t.Sbk.P.o.o.o.t.t.X.u.X.X.X.X.X",
".A.SaZbcbc.Sc2.y.l.l.g.g.g.i.i.i.i.i.#.#.i.i.i.i.i.g.g.g.g.g.g.k.a.a.a.a.d.a.a.a.a.a.d.n.n.n.n.n.n.fbkbk.q.t.oc3.u.X.X.X.X.X.X.X",
"brbp.SaZc2aZbd.p.e.P.p.l.g.b.t.g.i.i.i.i.i.g.i.i.i.g.g.g.k.a.k.R.a.R.a.b.e.o.a.a.a.n.m.I.n.n.n.I.n.taZc4aZ.X.u.u.u.X.X.X.X.X.t.t",
"c5bqc5bdbdc6.fc7.Sbpbp.b.k.n.k.g.g.g.g.i.i.i.i.g.g.g.g.g.g.k.R.a.k.R.n.Tbc.p.a.a.u.y.o.I.n.n.n.n.n.t.Pc8aZ.u.t.u.u.X.X.X.X.t.t.b",
"c9d.d#d.bdbp.c.m.f.Sbp.r.a.a.k.k.k.g.g.g.i.g.g.g.g.g.g.k.R.j.R.R.R.a.R.s.S.r.m.xaZbkaZ.b.I.n.n.n.t.u.B.e.b.t.t.u.u.X.X.t.X.t.t.t",
".ybjd.brda.o.R.R.t.y.w.R.d.d.k.k.k.g.g.g.g.g.g.g.j.k.k.R.R.R.R.n.R.a.a.n.u.m.bdbdbbkc4.f.J.J.n.t.u.u.u.u.u.u.u.u.u.X.X.b.X.t.c.u",
".Xdcdc.x.t.n.z.R.R.R.a.a.d.a.k.k.k.l.g.g.g.g.g.R.R.R.R.R.R.R.n.R.d.d.m.m.a.a.bdbbkdbc4.S.J.J.J.t.t.t.u.u.u.u.X.X.X.t.X.b.b.X.u.u",
".b.b.X.n.t.o.n.n.R.R.d.d.a.a.a.a.a.a.a.q.a.a.R.n.R.R.n.J.z.n.R.m.m.m.m.m.I.m.bbkc4bkc4aZ.Jdd.u.t.t.u.X.X.X.X.X.X.t.X.t.b.b.b.b.b",
".A.r.b.X.t.X.t.t.t.R.R.R.R.d.d.a.a.a.R.e.n.n.n.n.n.n.J.J.n.n.R.n.n.m.m.m.I.I.naZc8c4c4.P.c.c.u.u.u.u.X.X.X.X.X.X.X.t.X.b.q.e.q.b",
".s.e.r.X.u.b.b.b.X.n.R.R.n.d.d.d.a.a.d.d.a.n.n.n.t.t.u.J.J.J.n.J.I.I.I.I.I.I.J.u.Pbkdb.x.u.u.u.u.u.X.X.X.X.X.b.X.X.X.b.b.ec8bc.p",
".f.s.e.p.b.p.b.b.b.t.t.I.m.d.d.m.m.m.m.m.n.o.n.J.b.u.b.u.t.t.t.J.I.I.I.I.Idd.J.t.J.b.b.u.u.u.u.u.X.X.X.X.X.X.b.b.b.b.b.b.w.P.A.r",
".P.s.e.qde.e.b.X.X.u.u.t.t.I.m.m.m.m.m.n.t.t.t.t.b.b.b.b.B.u.t.t.t.I.t.tdd.c.t.t.u.u.u.B.b.b.X.b.q.r.b.b.X.b.b.b.b.b.b.q.q.q.r.r",
"bdc2.fdf.Adf.w.b.b.r.b.b.X.u.t.u.n.J.n.t.t.t.t.b.q.q.q.r.q.r.u.t.tdd.t.c.c.t.t.u.b.B.B.r.q.r.r.q.q.q.p.q.b.r.r.r.b.b.b.b.b.r.r.r"};
