/* XPM */
static char *dummy[]={
"64 64 85 2",
".8 c #86b0f2",
".E c #87b0f2",
".C c #87b1f2",
".X c #88b0f2",
"Qt c #88b1f2",
".D c #88b2f2",
".# c #89b1f2",
".i c #89b2f2",
".7 c #89b2f3",
".h c #8ab1f2",
".g c #8ab2f2",
".1 c #8ab2f3",
".l c #8ab3f2",
".K c #8ab3f3",
".k c #8bb2f2",
".0 c #8bb2f3",
".a c #8bb3f2",
".j c #8bb3f3",
".Q c #8bb4f3",
".d c #8cb3f2",
".R c #8cb3f3",
".m c #8cb4f2",
".z c #8cb4f3",
".V c #8db3f2",
".I c #8db4f2",
".n c #8db4f3",
"#q c #8db5f2",
".J c #8db5f3",
".Z c #8eb4f2",
".o c #8eb4f3",
".c c #8eb5f2",
".t c #8eb5f3",
"#c c #8eb6f3",
"#e c #8fb4f3",
".Y c #8fb5f2",
".u c #8fb5f3",
".W c #8fb6f2",
".U c #8fb6f3",
".N c #90b5f2",
".B c #90b5f3",
"#i c #90b6f2",
".b c #90b6f3",
".v c #90b7f3",
".4 c #91b6f2",
".r c #91b6f3",
".q c #91b7f3",
"#r c #91b8f3",
".p c #92b7f3",
".w c #92b8f3",
".H c #93b7f3",
".e c #93b8f3",
"#s c #93b9f3",
".x c #94b8f3",
".A c #94b9f3",
".y c #95b9f3",
".s c #95baf3",
".F c #96b9f3",
".f c #96baf3",
"#n c #96baf4",
".T c #96bbf3",
".G c #97baf3",
"#p c #97baf4",
".P c #97bbf3",
".M c #98baf3",
".S c #98bbf3",
"#b c #98bbf4",
"#d c #98bcf3",
"## c #98bcf4",
".5 c #99bbf3",
".6 c #99bcf3",
"#a c #99bcf4",
".9 c #9abcf3",
"#. c #9abcf4",
"#o c #9abdf3",
"#g c #9abdf4",
"#h c #9bbcf3",
"#k c #9bbcf4",
".3 c #9bbdf3",
"#l c #9bbdf4",
"#f c #9bbef3",
"#j c #9cbef3",
".2 c #9dbef3",
"#m c #9dbff4",
".O c #9ebff3",
".L c #9fc0f3",
"QtQtQt.#.a.b.c.d.a.e.f.f.f.f.f.f.c.#.g.g.h.#.#QtQtQtQtQtQtQtQt.#.a.a.#.#.#.i.g.g.g.j.j.j.j.g.k.l.l.m.n.n.o.b.b.b.b.p.q.b.p.r.p.e",
"QtQtQt.#.#.#.#.#Qt.g.q.s.f.f.f.f.c.#.#.#.#.#.#QtQtQtQtQtQtQt.#.q.s.f.p.#.#.#.#.#.#.g.j.j.g.j.g.h.l.a.a.a.m.n.t.u.b.b.v.b.q.q.w.x",
"QtQtQtQtQt.#.#.#QtQt.#.g.l.a.q.c.#.#Qt.#.#.#QtQtQtQtQtQtQtQt.r.y.y.f.f.u.#.#.#.#.h.g.g.g.g.g.g.h.g.l.a.g.a.z.o.t.b.b.b.b.q.q.w.A",
"QtQtQtQtQtQtQtQtQt.#.#.#.#.#.#.#.#.#.#.#QtQtQtQtQtQt.#QtQt.#.e.y.y.f.s.x.g.#.#.#.#.g.g.g.g.h.#.h.h.g.a.a.a.m.n.o.o.B.b.b.b.r.w.w",
".CQtQtQtQtQtQt.D.D.i.i.#Qt.#.#.#.#.#.#.#QtQtQtQtQtQtQtQtQt.E.b.y.F.f.f.e.#.#.#.#.i.b.A.x.m.h.h.g.h.h.g.a.k.a.m.n.n.o.u.b.q.p.q.q",
"QtQtQt.CQt.CQtQtQt.i.D.DQtQtQtQtQtQtQtQtQtQt.CQtQt.C.C.C.E.E.g.e.y.y.x.aQt.#.#.#.m.f.f.G.s.m.h.g.h.#.#.g.g.a.d.m.n.n.t.b.b.q.r.q",
"Qt.C.C.C.C.CQtQtQtQtQtQt.C.CQt.#.#QtQtQtQtQtQtQt.b.A.H.d.C.C.C.I.b.I.iQtQtQt.#.#.m.f.f.f.f.y.g.h.#.h.#.g.g.l.m.m.n.n.n.J.t.r.r.s",
".C.C.C.C.C.CQtQtQtQtQtQtQt.CQtQt.#QtQtQtQtQt.g.H.f.y.y.x.I.C.CQtQt.E.EQt.CQtQtQt.i.s.f.f.f.f.H.e.p.K.#.g.g.l.d.m.n.n.n.t.t.u.e.L",
".E.C.C.CQtQtQtQtQtQtQtQtQtQt.EQtQtQtQtQtQtQt.q.G.f.f.f.y.s.g.C.C.C.C.E.EQtQt.#.#.#.v.f.f.f.f.f.f.M.N.#.g.g.g.d.n.n.n.n.t.t.t.e.O",
"QtQt.E.EQtQtQtQtQtQtQtQtQtQtQt.CQtQtQtQtQt.g.A.y.P.P.P.P.G.k.C.C.C.CQtQtQt.#.#QtQt.g.x.f.f.f.f.M.f.Q.g.g.g.g.k.d.R.n.n.n.t.t.u.S",
"QtQtQtQtQtQtQtQtQtQtQtQtQtQtQtQtQtQtQtQtQtQt.e.T.G.P.G.P.f.l.C.C.C.C.CQtQtQtQtQtQt.#.g.q.x.q.H.e.I.i.g.g.g.g.k.k.m.n.n.J.t.t.u.U",
"QtQtQt.CQtQtQtQtQtQtQtQtQtQtQtQtQtQtQtQtQtQt.V.f.G.P.S.P.WQt.X.E.C.CQtQtQt.E.EQt.#.#.#.#.#.#.#.#.g.#.g.g.j.j.g.m.n.n.n.t.t.u.U.U",
"Qt.#QtQtQtQtQtQtQt.iQtQtQtQtQtQtQtQtQtQtQt.CQt.d.e.T.f.YQtQt.X.E.C.C.CQt.#.m.EQt.#.#.#Qt.#.#.#.#.#.i.g.g.j.j.R.m.n.n.n.t.t.t.u.U",
"QtQtQt.#QtQt.#QtQtQt.#QtQtQtQtQt.#.#.#QtQt.X.X.#.#.m.g.#.#.X.X.C.C.C.C.#.p.s.U.#.#.#.#.#.#.#.#.#.i.i.i.g.R.j.R.R.n.n.t.t.t.t.U.U",
"QtQtQtQtQtQt.#.#QtQt.#QtQtQtQtQtQt.#Qt.#.i.#.#QtQt.#.#.#Qt.X.C.C.C.C.C.g.y.s.H.#.#.#.#.#.#.h.i.i.g.i.g.g.R.R.R.R.z.n.t.t.t.u.u.u",
"QtQtQtQtQtQtQtQt.iQt.i.#.g.i.#.#QtQt.E.i.#.g.#.#.X.XQt.#.X.C.C.C.C.CQtQt.Z.p.I.i.#.#.#.h.#.#.g.g.g.0.g.g.k.j.R.d.m.n.t.t.u.u.U.A",
"QtQtQtQtQtQtQtQt.#.g.i.g.g.g.g.i.#.#Qt.#.g.1.g.#.#Qt.CQt.EQtQt.C.C.C.CQtQtQtQt.#.#.#.#.#.#.h.h.g.g.0.j.j.k.g.j.R.m.I.t.t.t.t.x.2",
".Z.#.C.C.CQtQt.i.g.g.g.g.g.i.g.g.g.i.#.g.1.1.1.#Qt.EQt.C.C.#.#Qt.C.C.CQtQtQtQt.#.#.#.#.#.#.#.h.g.j.j.j.a.a.a.R.R.m.I.I.t.o.u.q.3",
".x.I.#.C.CQt.#.g.a.g.g.g.g.g.i.g.g.g.g.1.1.1.1.#Qt.E.E.C.C.m.m.Z.g.C.#QtQtQtQt.#.#.#.#.#.#.#.#.h.g.g.g.l.a.a.a.a.n.n.n.n.n.J.u.u",
".I.gQtQtQtQt.i.g.g.g.g.g.g.g.g.g.g.#.k.j.j.1.g.#Qt.X.E.E.C.#.#.a.#QtQt.#.#.#Qt.#.#.#.#.#.#Qt.#.g.n.n.g.a.R.a.l.d.R.n.n.n.n.n.o.t",
"QtQtQtQtQt.#.g.g.g.g.g.g.g.g.g.g.g.g.k.j.j.k.0.g.#.X.E.E.X.C.C.C.CQtQtQt.#.#.#.#.#.#.#.#.#.#.j.H.f.f.p.R.a.d.d.R.n.n.n.n.n.n.o.n",
".E.E.EQtQt.#.g.h.g.g.g.g.g.g.k.0.0.g.g.k.j.0.4.d.X.E.E.E.X.E.C.CQtQtQt.#.#.#.#.#Qt.#.#.#.#.g.s.G.M.S.5.H.R.k.d.R.n.n.n.o.t.o.n.J",
".E.E.X.#.#.g.g.g.#.g.#.#.g.g.0.j.0.g.h.k.0.j.q.a.#.E.E.C.E.E.C.C.CQt.#.#.#.#.#.#.#.#Qt.#.#.n.f.f.S.5.6.6.e.n.k.n.n.n.n.o.n.n.o.o",
".E.E.XQt.#.#.h.h.g.#.#.#.i.i.7.1.1.k.h.h.0.0.a.#.#Qt.C.C.8.#.m.CQtQt.#.#.#.#.#.#.#.#.#.#.#.U.f.S.S.S.5.9.6.G.f.6.y.n.n.o.n.o.t.t",
".E.E.X.#.#.h.h.h.#.g.h.h.g.7.7.1.j.0.#.g.g.g.g.#QtQt.i.dQt.g.m.CQtQtQt.#.#.#.#.i.#.#.#.#.#.n.f.S.S.S#.#..9.6.6.9.3.p.n.o.n.n.o.t",
"Qt.E.X.g.#.h.h.#.#.#.#.g.1.1.1.j.j.0.g.i.i.iQt.#Qt.X.i.d.E.CQt.C.C.CQtQtQt.#.#.#.#.#.#.#.#.#.b.S.S###.#a#b.S.6.3.3.y.n.n.n.n.n.t",
"Qt.C.#.#.#.h.h.h.h.#.i.g.1.1.1.j.j.j.g.i.#.#.X.XQt.X.X.E.E.E.C.C.C.E.EQt.#.#.#.#.#.#.#.#.h.#.g.p#a#a#.#b.U.t.6.3.3.q.n.z.n.n.n.o",
"QtQt.#.#.g.g.g.g.h.h.h.g.0.1.1.1.1.j.g.g.#QtQtQt.X.X.X.E.EQt.E.C.C.E.E.E.C.#.#.#.#.#.#.h.h.h.g.g.b.A.q.t.a.j.v.f.p.n.n.z.n.n.n.n",
"QtQt.#.i.g.1.1.1.1.g.g.0.j.j.1.1.j.0.k.g.#QtQtQt.X.XQtQt.EQt.E.C.C.E.E.E.E.CQt.#.#.#.#.#.h.h.g.g.k.a.d.d.R.R.R.R.R.n.n.n.n.n.n.n",
"QtQtQt.i.g.1.1.K.K.1.K.K.j.j.K.1.1.1.g.iQtQtQtQtQtQt.E.E.C.C.C.C.C.E.E.E.E.E.CQt.#.#.#.#.#.#.g.g.j.g.k.d.R.R.R.R.n.n.n.n.n.n.t.t",
"QtQtQt.#.g.1.1.K.K.1.1.1.K.K.1.7.1.1.#.#QtQtQtQt.X.X.E.E.C.E.EQtQt.E.E.E.E.E.C.#.#.#.#.#.#.h.g.g.j.g.k.R.k.R.z.z.n.n.n.n.t.t.t.t",
"QtQtQt.#.g.1.1.K.K.1.1.1.1.1.1.7.1.g.#.#QtQtQtQt.X.XQtQt.CQt.E.E.E.E.E.E.C.CQt.#.#.#.#.#.g.g.i.g.g.g.k.R.d.R.R.n.n.n.n.n.J.t.U.b",
"QtQtQt.#.i.h.1.K.K.1.1.1.1.1.1.1.i.g.gQt.X.E.EQt.E.EQtQtQt.E.E.E.E.E.E.C.C.C.#.#.#.#.#.#.g.g.i.g.g.g.d.R.n.n.n.n.n.n.n.t#c.U.U.b",
"QtQtQtQt.#.g.h.1.1.1.1.1.1.g.h.#.#.Y.x.bQt.E.E.E.EQtQtQtQtQt.E.E.E.E.EQtQt.#.#.#.#.#.#.#.g.g.g.g.g.a.d.n.n.n.n.n.n.t.u.W.Y.b.b.v",
"QtQt.i.iQt.#.i.g.g.g.1.g.#.#.#Qt.X.q.f.x.g.E.E.EQtQtQtQtQtQtQt.E.E.E.EQt.#.#.#Qt.#.g.g.h.g.g.g.g.g.R.n.n.n.n.n.t.t.t.b.U.b.b.v.q",
".i.i.iQtQtQt.#Qt.i.i.i.#Qt.X.X.XQt.I.q.Z.#.E.E.E.E.EQtQtQtQt.E.E.E.EQt.#.#.#.#.#.#.#.g.g.g.g.g.a.a.R.n.n.n.n.n.J.t.u.b.b.b.q.q.q",
".i.i.iQtQt.#QtQt.#QtQtQt.X.EQt.E.u.e.gQtQtQt.E.E.C.C.C.C.C.C.C.E.E.E.E.#.#.g.#.#.h.#.g.g.j.j.a.d.R.z.n.n.n.n.n.o.J.U.b.b.q.v.q.w",
".i.iQtQtQtQt.#QtQtQtQt.CQt.b.b.d.x.f.qQt.CQtQtQtQt.C.C.C.C.C.C.EQtQtQt.#.q.x.n.#.h.#.h.g.j.g.a.d.R.n.n.n.n.o.o.o.t.u.b.v.q.q.q.w",
"QtQtQtQtQtQtQt.CQtQtQt.#.q.s.s.H.x.f.HQtQtQtQtQtQtQt.C.C.C.C.C.CQtQtQt.U.f.G.f.n.#.h.i.g.g.g.d.k.n.n.n.n.n.o.t.t.t.U.r.v.q.q.p.w",
"QtQtQtQtQtQtQtQt.C.C.C.Z.f.f.f.f.p.s.HQtQtQtQtQtQt.C.C.C.CQt.C.C.C.C.i.A.f.f.G.y.1.g.g.g.g.a.a.R.n.n.n.n.n.o.o.t.u.U.b.q.q.p.e.e",
"QtQtQtQtQtQtQtQtQt.CQt.A.f.f.f.f.y.b.ZQtQtQtQtQtQtQtQtQt.#QtQt.C.C.C.#.A.G.P.G.f.z.#.g.n.j.a.a.R.n.n.n.J.o.o.t.u.u.u.U.q.q.p.w.w",
".CQtQtQtQtQtQtQt.#Qt.m.f.f.f.f.f.f.b.C.C.C.C.CQtQtQtQtQtQtQtQtQtQtQtQt.p.f.f.G.f.j.h.b.S.f.R.a.a.R.R.n.t.t.t.t.u.u.u.U.r.q.e.w.w",
"Qt.CQtQtQtQtQtQtQtQt.c.f.f.f.f.f.f.y.#.C.CQt.C.CQtQt.C.#.#QtQtQt.#.#.#.g.s.f.G.p.g.g.b.P.S.t.R.R.n.n.t.t.u.U.u.u.u.u.U.q.w.e.w.w",
"QtQtQtQtQtQtQtQtQt.#.a.f.f.f.f.f.f.A.#.C.C.C.C.CQtQt.CQtQt.#.#.#.#.#.#.#.U.A.p.g.h.g.g.b.q.d.R.n.n.n.t.t.t.t.u.U.u.u.U.v.p.p.w.w",
".i.DQtQt.DQtQtQtQtQt.i.q.f.f.f.f.f.b.C.C.CQt.C.CQtQt.C.C.E.#.#.#.#.#.#.#.#.h.h.g.g.k.g.k.a.d.R.n.n.t.t.t.n.t.U.U.u.u.U.q.q.q.p.q",
".D.D.DQtQt.DQtQt.i.C.C.i.e.f.T.f.Y.i.C.CQtQt.E.E.CQtQtQt.CQtQt.#.h.#.#.#.i.g.g.k.g.g.k.k.a.a.R.n.n.t.t.n.n.U.u.u.t.u.U.b.v.q.v.b",
".i.i.D.D.D.D.D.D.i.i.C.C.i.I.c.m.i.D.D.C.C.C.CQt.C.#.#.CQtQtQt.#.h.#.g.g.g.g.k.a.a.k.k.a.a.m.n.n.t.t.t.u.t.u.t.t.u.U.b.b.b.b.b.U",
".i.i.i.D.i.I.c.i.i.iQtQtQt.i.D.D.i.D.DQtQtQt.C.C.#.#.#Qt.#.#.#.h.h.#.g.g.g.g.a.a.l.a.a.a.m.n.n.n.t.t.n.u.U.u.t.t.u.U.b.b.b.b.U.b",
".i.i.i.d.e.x.A.cQtQtQtQt.i.i.D.D.D.D.DQtQtQtQtQtQt.#.#.#.#.h.g.h.h.g.g.g.k.g.a.a.a.a.a.a.n.n.n.n.n.t.t.t.t.t.t.t.u.u.b.b.b.b.U.b",
".g.g.Z.y.f.f.s.e.kQt.i.i.i.i.i.D.D.D.DQtQt.#.#QtQtQt.#.#.h.g.g.h.g.g.g.g.k.k.a.a.d.d.d.d.n.n.n.n.n.t.t.t.t.t.J.t.t.u.U.b.b.b.b.b",
".i.I.S#d.G.P.P.s.d.i.i.i.i.i.i.i.i.i.i.#QtQt.i.#.#.#.#.g.g.g.g.g.g.g.g.g.k.a.k.a.a.d.d.R.n.n.n.n.n.b.A.b.t.t.t.t.u.u.u.b.U.U.b.b",
".d.S.9.6.5.P.P.P.I.i.i.i.g.i.D.D.i.i.#.#.#.D.i.i.#.#.g.g.h.h.g.g.g.a.a.g.k.a.a.a.a.a.d.R.n.n.n.n.t.S.3.P.o.o.o.t.t.U.u.U.U.U.U.U",
".A.S.6.5.5.S#d.y.l.l.g.g.g.i.i.i.i.i.#.#.i.i.i.i.i.g.g.g.g.g.g.k.a.a.a.a.d.a.a.a.a.a.d.n.n.n.n.n.n.f.3.3.q.t.o#e.u.U.U.U.U.U.U.U",
"#b##.S.6#d.6.9.p.e.P.p.l.g.b.t.g.i.i.i.i.i.g.i.i.i.g.g.g.k.a.k.R.a.R.a.b.e.o.a.a.a.n.m.I.n.n.n.I.n.t.6#f.6.U.u.u.u.U.U.U.U.U.t.t",
"#g#a#g.9.9#h.f#i.S####.b.k.n.k.g.g.g.g.i.i.i.i.g.g.g.g.g.g.k.R.a.k.R.n.T.5.p.a.a.u.y.o.I.n.n.n.n.n.t.P#j.6.u.t.u.u.U.U.U.U.t.t.b",
"#k#l#m#l.9##.c.m.f.S##.r.a.a.k.k.k.g.g.g.i.g.g.g.g.g.g.k.R.j.R.R.R.a.R.s.S.r.m.x.6.3.6.b.I.n.n.n.t.u.B.e.b.t.t.u.u.U.U.t.U.t.t.t",
".y#.#l#b#n.o.R.R.t.y.w.R.d.d.k.k.k.g.g.g.g.g.g.g.j.k.k.R.R.R.R.n.R.a.a.n.u.m.b#o#o.3#f.f.J.J.n.t.u.u.u.u.u.u.u.u.u.U.U.b.U.t.c.u",
".U#p#p.x.t.n.z.R.R.R.a.a.d.a.k.k.k.l.g.g.g.g.g.R.R.R.R.R.R.R.n.R.d.d.m.m.a.a.b#o.3#o#f.S.J.J.J.t.t.t.u.u.u.u.U.U.U.t.U.b.b.U.u.u",
".b.b.U.n.t.o.n.n.R.R.d.d.a.a.a.a.a.a.a.q.a.a.R.n.R.R.n.J.z.n.R.m.m.m.m.m.I.m.b.3#f.3#f.6.J#q.u.t.t.u.U.U.U.U.U.U.t.U.t.b.b.b.b.b",
".A.r.b.U.t.U.t.t.t.R.R.R.R.d.d.a.a.a.R.e.n.n.n.n.n.n.J.J.n.n.R.n.n.m.m.m.I.I.n.6#j#f#f.P.c.c.u.u.u.u.U.U.U.U.U.U.U.t.U.b.q.e.q.b",
".s.e.r.U.u.b.b.b.U.n.R.R.n.d.d.d.a.a.d.d.a.n.n.n.t.t.u.J.J.J.n.J.I.I.I.I.I.I.J.u.P.3#o.x.u.u.u.u.u.U.U.U.U.U.b.U.U.U.b.b.e#j.5.p",
".f.s.e.p.b.p.b.b.b.t.t.I.m.d.d.m.m.m.m.m.n.o.n.J.b.u.b.u.t.t.t.J.I.I.I.I.I#q.J.t.J.b.b.u.u.u.u.u.U.U.U.U.U.U.b.b.b.b.b.b.w.P.A.r",
".P.s.e.q#r.e.b.U.U.u.u.t.t.I.m.m.m.m.m.n.t.t.t.t.b.b.b.b.B.u.t.t.t.I.t.t#q.c.t.t.u.u.u.B.b.b.U.b.q.r.b.b.U.b.b.b.b.b.b.q.q.q.r.r",
".9#d.f#s.A#s.w.b.b.r.b.b.U.u.t.u.n.J.n.t.t.t.t.b.q.q.q.r.q.r.u.t.t#q.t.c.c.t.t.u.b.B.B.r.q.r.r.q.q.q.p.q.b.r.r.r.b.b.b.b.b.r.r.r"};
