/* XPM */
static char *result[] = {
/* columns rows colors chars-per-pixel */
"128 128 87 1 ",
"  c #D54D00",
". c #D84E00",
"X c #D75300",
"o c #DD5500",
"O c #DE5B00",
"+ c #E15600",
"@ c #E95700",
"# c #E45C01",
"$ c #E95E04",
"% c #E75F08",
"& c #EA5F08",
"* c #F15E04",
"= c #F65F09",
"- c #DF6300",
"; c #E56401",
": c #EA6404",
"> c #E66903",
", c #EA6A05",
"< c #E66409",
"1 c #EC650A",
"2 c #E66B0A",
"3 c #ED6C0B",
"4 c #F16606",
"5 c #F16C07",
"6 c #F1660C",
"7 c #F26B0D",
"8 c #F96F0F",
"9 c #EB7206",
"0 c #EE720D",
"q c #EF7A0E",
"w c #F2730E",
"e c #F8730E",
"r c #F4790E",
"t c #F9790F",
"y c #EF6610",
"u c #EE6D11",
"i c #F06710",
"p c #F46D12",
"a c #F96E13",
"s c #F66F18",
"d c #F96F18",
"f c #E57415",
"g c #EE7412",
"h c #EE7A14",
"j c #ED7B19",
"k c #F47412",
"l c #F97415",
"z c #F57A14",
"x c #F97C15",
"c c #F67519",
"v c #FA761A",
"b c #F57C1A",
"n c #FA7C1B",
"m c #FE7722",
"M c #F67D21",
"N c #FC7D22",
"B c #EF8016",
"V c #EF811C",
"C c #F68116",
"Z c #FA8117",
"A c #F5831C",
"S c #FB821C",
"D c #F5891E",
"F c #FC891F",
"G c #F68422",
"H c #FC8422",
"J c #F68A23",
"K c #FD8B24",
"L c #F78529",
"P c #FD852A",
"I c #F6892A",
"U c #FD8C2A",
"Y c #F79026",
"T c #FC9126",
"R c #F6942B",
"E c #FD932C",
"W c #FD992E",
"Q c #FE8F30",
"! c #FE9432",
"~ c #FE9B34",
"^ c #FF9E39",
"/ c #FDA137",
"( c #FFA23B",
") c #FFA93F",
"_ c #FFA542",
"` c #FFAA43",
"' c #FFAE49",
/* pixels */
"#$#$<&1$$O####$%11pplla6&$$$$$%1kzzbAnxr,;;;>>;13piapiii&@#++++#;>,20332<>>;>>,,0gkckaai1$$#$$$1hzZbSZzz,;O;>>:,uippiip6&@#++#OO",
"##$$<1<%$####;$$11ppalli&$:#$$&,rzzCZbnk:;#;>>:137iiiap71$#@+###;>,,232,,;;>>:,29ggkllli1$$#$$$1kzzzbnxz:#;;;>,,1ppiaipi$$+@#+++",
"$$#$1<<1$+###$$&11upall71##$$$11kzzzzCnz;-;-;>,,3ippppi6:##+#+##;>223g02><;;;1,30gkkllas1$#@#$$1kkzzzxnz;;#--;>1uiiappa1$####O##",
"$$:$111y1$#+#$$&11167aak6:$##+:1w0zrzzz9;;;#;,:,13766761$##++##;;,,333000>;:,,,93gskaas6$#$$#$$13kzhrzrw;;;;;><,31yy7i1$####O###",
"1&&6<iipkugfu311$$$1$::1wvzp<##:;:33,,;#;:;2w5,:;<##$$#$#$$$##$$:113ugrkzhjfhghg33u31$#:17ii1$$:,3009,:;#;;$131:#+++#####$$;<::<",
"6666ipplNI!^~ELk1#$####:rHKKSg,<;;;>>;O#:3zSEKz,OOOOO+#$17s3<%%&<167wwtzJE^~~~EA31:$+##1lnmnvi11;:>;;;;#:$6cNmk1ooXo++##1pik7g33",
"ipip868lU!^^^^~Uu$@@@@+1ZTKKFSbz3;-OOO;;9vSU!~TZ>OXXo+#1svvcay111yi68etSE/^(^^!M6:#@+++1nNNNlks71>;--#;#6dvmPPHl#o..o#:6lnvlkgk0",
"aappp8pkMGIIEU!EGu1&@+#$kAFKKFSZzw>>>;,0zZSSHUETC9-OoO13kvldaapipiaaelZKE^~!UGml6&@$#+$1pvNvlllap3;;;;,1ddvmmNnn1#oXoO13klllkkkk",
"slaaccMMcuyuzbCAITKKbkp31<,kkvztzzwkzznZZzzzrzCKTWTKh<<upppsdapppalcnMLGGji1y1iiphkccki7y1yipspip7k7gckclllp61pcnKKLf22uupppckkz",
"llcvmPNMu&$1:3rCTWEETKASbg<:<3wrzxZFHKJHCzzrwrrCKW~~~TGkppiippaalllmNPKNs:$$1&6iNPP!PNmvpy$$1168palvmNNnk761167lHUQ!~!Uzu768kkkz",
"lllvnmnl6:##$:wzKREWEKKSSZzw:;,3zZSKKKKAzhrhrkzZJYEW^^~UlddapppallvMMmnp$$$$&&1kU!!UPNnlcap&#@$6allnmNmkp1ui8pklnMGE!^~Ullppzzvz",
"lzvvvvk71$:1,,,kCDTTKKKSSSZZk9;>,rvZSKHCzzzzzzxZSACJUEEEKvadsppallvvvl6$@$$$$1ukMGHSnNvvllcs1$##:6aabmckpsklsllvnbbMUQEUnlllzzzC",
"zllcw,,,57zxnSzhk330znxnxZxxAbzw,;;:rzZzSJHHSAHHHCzzhkzFT!UPvkaaklla1@#@$$48aNGLbg22wzlllaadvci1$@#16psscbnvcvnnNnbzk0zzKEIUSZnC",
"rkk3,;,3kZHKKUKbg2;<,55wwzzZSKKb9,;;;,kZSKKKUKKKHSzr,:5rE(`_Qmllaa8&#@$1=aaNPUUHk,<>3395paalnmNv1++#$1iknmNmmnNnnbzk,:,rE)`_EHSH",
"0033,,9wZSFKUKKSk333,<;:,5wxKUKS0>;;#;1zSFKUUUKZz5,;;::3A/)(Pnclp$#$::56plnHUUKz03933,:;$$$6vPHn3$+++#:kcbNNNNnxzk2:;:,kK/)/EKKH",
"w0w0333rzzZZHKHSzzzkr0,:;::,nKKCkw9,>:,9rzZSSZl9,;:,::,90CDhk764:1$&1166klnSHKAkkzcrww3,;#+@svvci1:####1pkcznvk3,;;,>,wzzDzh99wr",
"zkkrk0923w9rzxZnZnSbvzzk,:#+O#<3bHSnkww93933,;;;;2knbSCvr,>-#O;,5klk71,3kkgkg0kznnnnzkzw,;#OoO;;plllsp2<<2,:;;;;;2znnHHC0,>>;;;>",
"zzzzkk3,,,:3wkzxZHSHZZZZ5$++X.o;kZKHHZlz01,;-O;>kHHUUKKZk,>#OO>3znSSzg22,>,>1wwzZSHSZZxxr,;#oo+#1lvnSKSv><:;;;;,0HKUETKx3,;;;;;;",
"zZzzzzw,;;;,,7klxnSSSHSz:o  ooo#:wxKHSSxr,,;;#;2SLUKHSZv5,>;O->>zZSSZzk9>;;>wkkzCCZZSHSx>-OOOOo+#17xSKKZz3;;O;>3xKKUSxzw,::;;;>;",
"ztzzrgre7,::;,3irrklnnk$X..+++###:#1lzxze3::;,,rzxxxewww,:;;;OOO,wrkzrre,:;:;3r0kzzzZZz9OOO#+##O##$4wzzZxr9;;>,5wxxzww55,,,,>,;;",
";;>>;,,llnl771731::#OoX.+$18ii61++oo+##;,33www0k3,>;,53,,;:;>:OOO#;>;;>,lzlnk20033,,:-OO,5wp311:###O;;>>wlwr02,93,>;:,53,;,:,,33",
";O;;O;;5lZnvcap61##+  .+1plvvlai1$++ooo#:5wczzj1:;#;,33,;,;,,2<;OOO#O#;5SKKKHz0w,,,;OOO>wxZSZckw1,;;O#O;;9rkkk02;;#;,33,,,>,3395",
";;;OO;#;1pvvll81:$#+ooo1lvmmcpi111<:+ooO;3gkkk,;;>-;932>>>>30kzc3;OOO-;,0ZSKHSz3,,;;OO;,xSKHSzzzr2,;;##;;23wkkk,;;;>,293>;,,30w3",
",,:;#OOO##188p1:$####;1knnnk31361311:##O<,,31,<;>>220000>>9wzzCHFz,>OOO;>:5zxlk5,>;>;,39xZZZnzzzrz00,>;<,,,17uu3,>,>90r2,>,29330",
"KSbkgu<O+o+@#&::::,7wwlzll3253ppppaskhcMu11::;>,hAKTJACbzwwrkzbSKKUKHg<;O++#&11,,39erwwrzg03kzzzzAZCGDVCk1:$$11kbUTKChq0005ww030",
"!E!UEUKz:#o+++$:,rvZZZvk3,>0krklkllnLQ^!H8::::9zK~^/^~EKZzwrrlxSGUI!!!Ux1#+++#:15czzzzzk0330wwzznHHKW^/~Hw1&##1kE^(_/EDzzklkkkwg",
"!!!^~^~Ex5#oo++:wZZxxl0>,20grrzzlaln!^!Ickp6,3wST~^/(/~ESZer53rzKI!!~^!Ux8$+.o+:wvvzvzhgg3703wwzzxHT^)/Rle66&$:wH^(```~TZxzzzzkz",
"jjGGPQ!!TSl,++O;7kzw3,223gzCzzvllkllbbbvlllckkzzAJJEEWWEFZxlew5kbbbGPUUUZx7:Ooo#3www31113g0gkkkzkezxSUKnllla6611hzJE!^/^EFSZzzbz",
"1uuuugbNUIEUPc2<:#;#;<,gzAHHKNnlk11;$%yalvnmmbbzZZzCZZCSJILHNnncki:113pkbGIUPbu-;#+###::uhGHHnlvp,:$#:ypvmHNNNkkkpplavnK~WEKKKKH",
"&$&&%&1gMU!!!!!b:oO+;:9kAKKUKHll1#+#+$%1alnnNNHnzzzkrrzzvHLLLPHma6$$##:7bI!!!~!H<++o+#$6bUUEPHva1+++#$&<lvmPPPPNks88aialHW~WETUU",
"$#@#+@#6xUQ!~~~H:@+#:,rvHKKKSll6@+++#$:<77avnnnbzzkrrwwlllvlvll81$@##@$7KU!!!^!L3##@#@1wHUEUHapi$+###$$%1iplnmNNls1i1166enKKJSSH",
"111:@@+@1knHUUKn31::15wlSHnnpi6&#####1<1111677krkkwrkkwelaa866::#######6lcnKPUHnw111168lnHSva861$##@$11<:1114677aki61116351,,,:,",
"vnkp7i6$+oo$13pkbnnmclllk31$<1y&$#$$13u11<::;;:,3w0wukk71####O+##$16pls6#o+#163kcmnvlllvl6&<1uy&$$@:17pu111$#+#$166666166&#+#+O#",
"ZSnznvli@...o+#unNNNNnlp$@#$$<<&$@$&,0uk3,:;;;;:20kgku6#oO++#+##:almNNvp#...+#&ivNNNHnvp$##$%111$#$$:3hzw2:#+++#16161y161$+oOooO",
"ZZnnllap1##+++@&kcvvvl6$@###$<1&$$$:1ggh002>;#;:wzzzp:++OO##+##1anNNvla66#o+o+@1kvvnll7$###$$$1$$$$:<3hkq2>#+O+#17sp11:$+##OO+#O",
"tzxzzlaap1<$$1$&116861@#+##$$%1:$#$1,0jCCjzg;;>,wkl81@#$#:$:O-#<clll8886771:#@$113786&#+####$%&%#$;:>0gjhhh2;##;:6pppu21OO<<<<13",
",,35rkkkkp7688i6$##oooO+:136ii11;;;:3wxHITERKSg,,11&6887pujMLPPb1:#@16ippip7pp66##+Oooo+@$111y11$;;:,wkzJJTRKHkp1::6llvnNLGGHHKH",
";:<,35kkappsslcp:++oooO$11iiasu1;::,5wxST!^^/^En,@@&6llnL!!~~~!G1+++$<6ppppsalla$+oooo+#:1ypppa1:;;:2wzAK!~~^^!Jk3::6lvHIQ~^!!U!",
"313:,,1up78plvvp#OoooO##:11psps7:,,,rwzSKW^)(~THp6&168lnU!^~!!Ub1$##$$167i8plvnp:oooO+#$1<yialkp,::3rlxSK!///^/WCrr3448vKQ!!!E!!",
"kkkkk0k33116alp1#OOO##:;:11gpkpp339rczzlZFJJLGcksppi617llHPUPPbu7766u3111667pls1;;#+##1113pppasp,3wzzxnHJTRRRRRTFCrl6117pkcbjjff",
"nnvbbnnnp:@#$##:ubMc1111wkkksp76pcMbnnnnncipiippskkspppp11$:yppkllmvnmcp71#$#$#1kMGMp1yuppppppppkzNNnHnnSCAASFCZMbclpp11$##$13ii",
"NNmNNNNn3+##+#$3H!!QNcpcvxzlpi6pcMNNNmnvi111767pplalak76@++$1aalnNNNNPNn1###@#:kKQ!!Pmpsappp77pknNNLNHnlkw00rzzzlapalap1####11ii",
"cvnmNHHc#++#$$7nU~!!PNnmZSZz77pamNNNnvl6&$$$11ppspppp76$$#+##1islnNNPPKs;+o+#48lP!!QPHnvaaaippalNNNmllp84,335wwppp868i66$##$11p7",
"133uppp7##++$116cbAGPLNSZZzvkkklnbnlp841$$$$68pp61&:1&$&$$@###$1173avlw1##+@#$66kcbMNnmvadaapallbcc3666144::57776&&*&11:$$$&66pp",
"$$#####@16ii1$$<:,,3znxzzzzSSSnnck7,:$$@#$#$6ai1#+oo++#:6a86861&##@##@$$upapy<<1:$11ucppppadvvlcs11$1$$$$$$$47p1#++++#+#&66ppaaa",
"#$##+##1isllasuu1:;;>395kbSKSKHx2,;#####@$@1ias1#+ooo+o+:8alvla6@@####$1isdccsp31$##$167paalmml71###$$$$$@#$6ls1#ooo++##4pppaaaa",
"@##@#$:1pslcvlllkw3,;#:3xHPKFZr3>;;####$$#$1lcs1#+ooO+oooO4llnl7$##+##:1upskddll71$+Oo#6alvvvl8:$#####@$$@$ylcs1#++oO+OO#$3ipsps",
"+##:#$##:118kellzz00>>,kSFSvw,,>;>;##$<%#:1ulkkp1;#####OOOo+6kw1:$++####$::17p7lp7,<##+:cnl861;##+#O##::;;1gkkks1;++#OO;#+O#1,11",
"7631$##O#O;;;:,5kzxSKTUSz,>-;;;;;>,2wkks313ukkkzxAGGVhjg3;#Oo##;1,######OOO;;;;,wkknHKHh3<;+##OO##<,1ickp33kwwwwzbGJVjjz31:;+Ooo",
"kk32,1;OOOOO##;:rxSE/)(T9OO;#;;:,znSSHHnckkwewzCKE^^^~ETFr4$OOO;,333,:;OO-#OO;;:wCKE~((T9;O#OO>>,kbSSHHHckkweezzSE~///WESxw5:#OO",
">>20gzz9>>O--#;;rSEW//Eh-;OO#;;,rxSSHKSztrzketCFE~/^^^/WFSz,;;;>,0rzzzr3;;;;;;;:rFE~^)~B>-;O;>>,kxZSKSSCzzrrezZFR~/^^^^~KCz0:;;;",
",00qkbCZr9>>>->>9nKKKC9>>,>;OO#;;3rzZSCzzzzxzZCJYYRRE~~WEKFZ09,,93rrZZCCw9,,;;>90ZFTTF0>>,>;O;;>,0zzZSZxzrtzzZJYR~RR~ERTDFSCqqqq",
"zwkzzzbCJKTKJAjh02,>;>>0zkzk2<#O-O;:3wzzzzZCSJIKDzzzzxZHT!ETIChr09w3rzzZCAJJJDJAz02>;O;9rzzr,<#OO-;>3rczzzxZHKRIAhkhzzvZHUTTTTKT",
"zzzzzkzSKEW~^//Eh;#;#;30zkzkkk,;OO#;,3wzzxZKEETFz2,197ezSK!~W~TAzkw55wrzAKT~~^/^D>;O-;3zzzvzkk<;OO#;:3wkzzSKE!THz995w7wkSUE~~~~^",
"zzzzzkzzHRE^/(/E0-+#:wrkwk0kkzze;O;;,7kkzznZKKSzr3,,,,5wzzKW^/^!HCzrklzCKE~~^^^E>OOO:wkkrwkkkgz0>##;,3kkvzzSSKZzww33,19wznDKE^^/",
"ZZxxzzzxZJKEE!Jz,,;;,3w000r0kzxxw>;:3wwwwwrzxxzw33w92,,3795vK~~~TJSSZZFKTEE!!Eh<#;;:39k99w0gzzzz3,:,3krkrwrkzzzr3333,3gkrzzzhhBj",
"KHHAHHHKHSCzk02gzZZZkw,7rwkkzxxxZSCjzckw3,,333539rkkzzzk,,>,,rnKE~ETTEEETKNk1##:rznSv9,,90wzztxxZZzjkzkw3,,33,3533wzzbSnz02022,;",
"KUPUUPUUSnr,,5kZKTUKZk29krkzxttxKT~~TSzk3,,;,,9wkzzzZZnxz2,;;;;5J~~~/W~!Hp@@+#6nUTUUnr,2wrkzxxxZKT~~UHnk3,,;,,33rzzZHHSSz21,,,;;",
"UPUPULNnk3,:13kSKKKKZzzwkzzzzxZSE(/^EKSzr2,;;>,wkzCZZZZzxz0,;#;,ZE~WWWUl:@@@*4lnKTUUSzzzkzzvxtZZT^(^WKSzw,,,,>2wkzzzxnzk3,,,>,,,",
"kkgki3:13pu,;:#1lnZHZZxZzCZZZzCJRREETFZZkw9,>,,200rktzr0322,,,,5rSFHnl6@@$@$$&:1lxnSZnxZZbSZZxCY~~RRFFzrw933,93w0krrwww93,,3,200",
"Ooo+##$3kMmbp<#@++#1xSSFKKKKJKRRJBkkgrwwrkzzzzxz,>;;,,,3rkzCSKHSe,%+oo+#6cvms1#+++#:alzvHKLHKTRRRArww05wwwrzznZz0,;;,,,,7kclbSHS",
"oO+++#:1vNHNnp1$#ooo;wvZKUTE~//Ez0,,335wzzZSKKKZw;;;;>,3kzHKTEEU5ooo.o@imPPPmc6%@ooo+45lHUTE~//WC9,,355rrzZSKTUF9;;>;,,3cnnNHKKK",
"++####$&pmNNvlp71#+OoO;wnKT!~^ECq1,:;,,9kvZSKKKz9,>>;,,5xHKKTUKkOooo#13pvnHnlap61&+oo.@1nKE!~~EAr,::,,9wvZZZFTFr,:;;,,,3wlnnSKKU",
";$#::#$$$<pspllla861##O#:5lSSKCckr9,,>;,5rrtxSzr,,,,95wkZHSHnl$oO#+$<1111777laala861#+o#:5cSSHzw51,,,,39wzwzZxr5,,,136777pkllczc",
"551:&$#++#++#$8aaadapi1#+#@&111pzzzvkkw9,;;;;,,33rrzzxZZZl1:+oOO###:$%#Oo+##:16aalpapp&@+#$$$$$17zzzzvzr,,>;:,,,57wppaap71::####",
"66,;$$<$##+++++$8aalllki#####$$7xSSHHHnr,#OO;:,3wzzZZSHn1+o+oo#$+##$%$$##+++#@#$7llllllp:+###$$7vSHKKLSz3#O#;;,,67papal81$$#####",
"->><:<11:$+++++O@$plvmma6++O@#:1kxZSHHZl;#OO#;:0kzvzxz3;+++++######$11131$+++++++:plvmvc1#++$$67zzZnZxZe;;OO;;,35676681:##@+#+#+",
">>21,33pw1::;;#;;++1avllv7@++#@@1,5exZxz,>;#;;:,5331:$+####+#$####$13ippp3::;#;##++1lvval61###:1,30werw3;;#;,,,3,:11::::$####+#;",
"23wkrwkzZKIIJAju1$$oo+1knmma&++++##;;>39rxvzlkp:#oooOO+@14661$$$111ipp8ikbHLbcku1+#+o#16lnnv7:;;-;;;:;;;,35wwww3;#OO-;::3iyy11$$",
"kgkkwzknKE^/^/~Uh1&#+++:vNNmma1#+++OO;;,rZSHPNv7OXXX++;16alk71$%<1i66887bLI!!!PLc6&#+oO1vnNNNnw,;;;;;#;;wwxSKKZw;OOO;;:5pppu11<<",
"kgkkklzSKW^//(/Eg:@@###:lnNNmva81#+#+O;;3wnHHNn7#+oo+#;1kckap11167i6668kPII!!!!Uk:#@@##1klnnSSnx2;;>O;;;,kxHUETz;--O->>2ppppi1y<",
"kkkkzbZSJJIEE!Ub1:$:$@##15eznnllp1:;#;;;:1,knNnl4:#OOO:1upklk766iip87pkNUPIUUULb6:$$$##$17lnnnxxzr9,>>>0rzxSKKKF0>>>>->2gukpp37i",
"ccbvMMNGbuppsupikbHNva6:##;,wlllapa67p7731$11iplnNHMbgf233ppspsapsscbNHPNh77uuy2gGKKHl5<##;1wzkzzzzzzxZSSZzzzzCZFKKJDhhhgpkkkwwp",
"vvvmPPPMk111%&1cLUIPPPNmnp:>;3wkllllvnnnlp76678lKUE~^^EDzw77ipaaalvNPPPNp1:1&$1pKE~/!TKHb3;;:3wkzzZSKKKKSCzzwwrCTWW^^^TAzkwwlwrk",
"claclvvs4@#@@#1kKIQUGnNHKKSk>>>,7llnNPHvklpda88kcAU~^)/~FZze71pallmmNNlp$$$$@$1kK^^^ETKKKKZw;;>3zZSKKUKCzhr0wtzZFIE~^/^ECxvzzzzz",
"spaaapp6$$$&$11yknHNbclnnHKKZk>;:15lnNmnvllkpkkczjzAUE^^/WFxl77kllcmca1:##$$167kAJDAFCZSSFFFv0,>,wzxSHAjzzzzzZCSSDGKTW~WEJSZzZZZ",
"ippi6&$$$68acmcp11$1cSnxzzxHKSz3:;;:6islnvnncbHHAzkw0zZT(`_^Slleallp1#;#:1wlZKKUAg23kzkzxzZZSKnw,;;,2wkzzCHHHSKSHACzr0zJR^~TKSSH",
"6i61$#+$7avvNPNk1$#+;1wwrtvZSJHz,:;##:1pvmNNKKUTSxk9,,5zT)``(TSZl76###;3wSKEEEUKc,<;,5wekkrxHUKZ9:;;;,7zSKKUKUUKJxz0,:,r!_'`WKSK",
"6i6&$&11klnmNPmcu11:;>:,:3wZKUKZ9,;;#;11kvmKUPKSzr3:;:,4rT()/EFl6#@+1wtZSFKKKUHbg33,,<,,3wwxKTUAw,;;;:9zHKKUUUKZw5,::::wH^)~KFSS",
"i6661113plvnmnckpkku,,>;;;;,xHKJzk0,:<113kknnSvr32,3,:,,>,qZZZr:@$13kztxZCzbbbzkkzzzg3,:;;:3zSZzr033,37kzbSSSZr5,,::,,55rzh0>55w",
"apii616ipk37kkgcxnHnnww,;;#O#>2zJHSzk73312,13>>>2zznnnze,:;--O;:wknv03309333kkkzzASZnzkw>;##O>>9xSSnnzzkg00,>>>;:17kvvvw3,>>>>;;",
"aapdiiu11,,,,3wzZSSSSnZz,;-O-O-;0SKHSSnk32;;>;;,zSKUKKHSw,;OOO>3ZSHSz0223,,33kkczSSSZZZl,;;OOO-;rxSHHKSZg,;;;;;>5vvmmnnl3:,;;;;;",
"kllsp71,:;;>30kzzzxxSHSz,OOOO#O>;3zHKHHZr3;;#;;,zHKKSSSxr,;;O;>,zZSZZzk3>;,,3kwrzvZZSSSZ>#;+#O;>,9zxSSZnk3:;;-;1llvvla77,,,:>;>;",
"77771::;>>,99rkkztzznZZt>>>#-##;;::,zxZZzw,,;;>,9kkwzwrw,,,;;OOO:3w9w9w3,:,330gkzzzzZZz3-#-##;;>;:;,ww5w5,::;;:7ks866611:,,,;;,;",
";;;;;;;:5zvxzkzzzw53<;;>,rzc0::;;;O#O>>,rkk0>>23,;;;,352::;;;;OOOOO;#;;wllxxk0zkrww,,-OO,rwk3,;,:;;;;;;;:::1131u1++#:$$::,,,3335",
";#;;##;,xSKKSbzk5,,;OXO;zZZSnxk0:;>#OOO;;3zkzg03:;>;,33,:>>,,3>##OOOO#;9ZKUKAzzz9,,>OoO;zZZZncr5,,;#O##;::16iiy%#+O#$$$:<,,33379",
";;;;##>;zSHSZx0,>;;OOO#,zSSSZnxzr3,;;#;;;,3gkck,<;;:,32,>>>,0zAz9:OOO#;,0ZSFSZw,>;##OO;3ZSHSZzzk5,,:>##;;$11iu%$OOO+#1<2<>>,3393",
"39,>;#->,9rvxl9,>;;;O;,9exnSZxzxkkk0>;;;<:133313>,,29900,,,0rzSHHZ0>;O;;;;wkll5:::###::5wxnSZxzzkw20,,;#:$11<&$#+O#<:,<1,,,20030",
"KHbhgg32>;::,,,93,33wrrkw92wzzzzlbncbbjb014&$$:1zGJKJACzzrwrrzzSJUKUHb2<#++:$::::1147677132kczzzzcckzbjg311&$@##<kMLGbjh335w03g3",
"!QQQ!EKb3,;;;:,59kwxnzvk3332wwelclvmLI!!Mk61$$:6S~^^~~EFzxwwwkzzAUE!!!US5$+++#@:1pippap6,3,09wlllvnHGI!Insi1$##1bU!^^~TFbzzkkkgk",
"!Q!~!!!EZw,;#;;,kvzxvz99w9r0wwwckaknU^!Ina66&&4wI~////^TCZtew5wcSJI!!!!Ux6$ooO#:67aap76,0gkgwwwkkllnE!!Pzpi61:1kbU!^^_~TSzxzzzzk",
"hjMUPIU!KCr9;-;,9zzww,333kczkkcli88pbNNbleea67ubDJEW~~~EFZxxekwcbnbLKUUPZz7:#O+#,16866,30zzzzkzk778pnLUGnllkppknnLTE!!~WTSSZxZnZ",
"%%yuupkNUEEPGjg22,,>>,30kkbnnnnl71:$$:1islvvSKLJSCCZZFSKKILHNnnnnp11133uhMUPPc12;:;::,,30zSHKSZn7:#;#$1svmnmnMnMSHZCZZHTE!TKFKHK",
"$&$$#$&uMQ!!!!!G2;;;;,30cnmNNNvl1##+#$&1pvnHUETFZzzCzzxxnLGPPPNnp1$$#::7b!!~!QPh>>;>;>3wzSUTTTKn,$##@#&1svnNmNNnnzzzrvvZKE!EKKKK",
"&$$@@+#1zU!!^!!G0>;;,,7cvnNNnvc7;##+#$$167lnKUJSnzzkrwkllvlllnl81$###@@cKU!!!!EK0->>,,wzHKTTKKZk:+O++$$167slnnnbvkrww0rkvCSJFSSS",
"i7p11$$#17nNKUSc3,,393klvnlclli1#+##$1166667730w5w7353777688661:######$7kkbKUTKKz02>,9knHKKSZzk7;###$:%1111357wkrkk953373rw99333",
"lslklli1#o+#11pkbnNblvvlk6::111&#$$&iiaii1$@###;:1163u11#;###+++#::77pp1#O+:kZCSKKHSnnSSzw,,33p0:::,113311:::;:,3w0k70333,:;#;+#",
"klpslvvs$+oo+@$ivNNNmnl71##$:11&$$%iiiip61$##+##:16131<#OO++O+O#:knKUPni#oOo#,9rKKUUKKSr,;>,30333,370uuu3,<:#;;,300wgr73,>;##+OO",
"apaplaas1#+o++#1svnvvl6$+@###1<&$$1$$$<<%&$+++++67pp11:#+##++oO:xKUUHl86&#O++;,,rSKKHZ3,;>>,,233,39000ghg2,;;#;:rzzz093,;,;;;+++",
"6678pp7771:$#@$$117p6&#####@$&11$$#####<$<<<%##$:6pp7711<:$$;<3bKKHa646773<#;;;:>3kkw5;>;;>,303321,30gkjhhzg>;;;1kzzzkk3,2292>;<",
"$$$$$16i77666p1$++oooo+#$=6ii11&####<:6wbMJPMc31$@$6paappikMUUEEHu+@:7rkkkk7ww63;;O#-O;>,,wwkkg0,,::3rzbJJTTKS093,5kxnZHHHLUHLHH",
"#$$$$16iipsalll6#OXo.o+#1pisaii1;;;:,erxUEW~^!Hk1&@&pallnU!^^(^P:o+#3wwkczzxnSxw,#OOOO;;3w7rzzz0,,:,3wzAUE~^//WC3,,3zZSKKUUIIEUU",
"$#$%1117ppallmv7$OoooO###<1usads,,,3rtZKT^^/^~WHp11$48lnI^^^~!Gu@$$$3239kzznSKKC,;OOO;;,390kzbz0,,:,5txSKW^/()(Er2w33wZHUURUIEQU",
"uy113u31:17elvlc1<###;<<><,upkkkw5wzZZKTT!WETETFbkpp77lZKUGbhuy644:67g037w5zZSSz0,>-;>,390gkzzzk,,90zvxZJKRRRREEFzkw9wkzbbGAAVjj",
"HNnnnHb0,;;:,7wkCUUKk13kkkzkwkwrzzAKKUKKFxzkkzzzSSbvzbzb2;+#&ipp7aknmnnc0,;,3r0gCJKHz29kzrkkhkkrrzAAnNnnnnzCzZCSKKZvk3092,>90gkg",
"KUKUKUUn,;;#;,9ZE^^^EHbxxvvzkwtzCGUETUKSkw23wrzzxZZZZSC3++##66palnmNHHHHr:;;;>0zT^/^EHnzxxzzrkwzSKTTKHnvkw0rrkzvbZFSnzk,>>;,0ggw",
"SSKUE!EK9>;;;:3CE^/~ETTHSZzzzzxZHKUKHxxw3,,,3wkkzzzzzz5$###@11ppcnnNKPHc,;;;;:5CE^/~WTKHSZvzkzxSKKUKvap86,,,5wkkwwlzbnk3;;:,3rkk",
"rrwkzZSSr,>;;:,,hCJKTKKKSZzCzZZHKHZzr353,,,,5rkk33,,,:::@#$113777pkkll51:;;;;:,5hDKTTKKKSxzvzbSKKHnp6411:1::5675,,,33rk1:::,wkkk",
"99,,,,,0kzzk2>>>;,,wzSzxzxZSHSHSz9,,,:,::,:,wkr9>>;O##;:655kpkkg1$###@#$1ui322>,,;,3zZzZzzxSKKKSl61$$$$@$$$$653,:#O;#;;8llpkkzxn",
",,:,>,,3hzSSbkk3>;;;,9kwznHKKKSz,>;:;>,,,,,,knz3;#;O#;;,ezzZnZnk:##@@#$$ivmnnbz03,;;,3wrwZSKKKFk:#$##$$$$$@&8pp1:#OoOoo+1llzxxxx",
":;;;;,,3wzSSHKnnz9;;O#,wxSKHSzr,;;;>,,,,,,,5bSz0,;#O;-;->>0ZSFZk:@@+#$:16ilnNHZxrw3,>#;5zSKKSZk1##+##+:#@@$1pkkp1:-Ooo...o:3xbZn",
";;;#;;;;:,3zxZSSnxz0>;#,wnvk3>,,>>>>,,33320kbCCz3>>;>>->>>-2tzw5:$####$:::15kvZzzz02>;;,vZxl,::##++##$:$$::6psskr33,<#++oo o;3,0",
"1,,::;;#O;#>;,3zZSKKKKH7###O>;>;,29rrzbbk0gkzzzzCAJGVVDj00;;O;##:,::::;##;O#;>>rzCZHKKHk1<+OOO+###$&7pdapi6ppispkMGGMbgup1$@.   ",
"kk33,,<;;OOOOO;;wSKUE!!K1oo##>;,wznnZSHGbgrkwtzZKR^^/~ETAz5:#OO>,3931,:;;#;OOOO>rZKKE!~Q1oooo+##:6scvlacapipi8pkbIIQRIUKSxe5#@+.",
">200rkw9;;O#;#;;wSFKU!Pz;+ooO>;,9czbZZSzkrwktzzSE~////^EFzw3>;>;20wrz0q,;>;###;;wSKUUQPk#+ooo+#:icllldda66p6p8alGQ~~!!!IKSCk:#+@",
"39230rzzw,>>>>>>9xxnnn1+;:#+oOO#;13kzvkkwwzlzzSHJYIRR!EKKFSz9>>>239whzzq,,>>>>00zZSNnl:O;1#++oO+$166aapi66668pknGLLLUUIUASZC9231",
"krwwwrzlzzCCbGbb3<$++O#17ii1%#oooo++#&8kkvxnSKKJCzkzczxSTETUKCz0937wrgrzCCJJDDJHz31#Ooo17ap6$+ooo++#$$11i8iacmNLMu17pppkMNHHKLHH",
"zzzkezzzCLJU!!!!k+o+o+$677ppii%OXooo+#1kzZKKTETSz033907zSTE~~EEAzkwwwwtzJTEE~!!Es#o.o+$67ppai&++oo+++$17plpnPPPNa<141666dNNKUU!I",
"xzzzzzzbHKP!!!!G;+++$1337ipiippy#+++@177ezZZLHZzw3,2,135rxK~^^~!JZzeklxFKE~!!EKsooo+#176767issi1#o.@$6ppplslnnca6&6&$&16sdbLU!!!",
"ZCZzZxZHHUUPPNu$#:::7ki767pipppp1$$:pk77w7ewzzzkwk0rk9w,,,3zKW^~!KFZxZSKEEEUSc1++$:3psp366377pks1#+$pllaapppa66&&16&11111ip0zzjz",
"WWEEEE!RUPvp1:11cvnNnck7ii86ippalNGGNcla71$<,33kzzbSnbzr3,;:,9xT^^~~ETEETUn3$+#ykvmnvvkkkwk78paacLPLNmvlp11#$$$&668llnxc71:;###;",
")))/(/!Ha4&@+$1pnNNNnbk77pp7apaaLI^!USla1+$$:,1gzzSSSSZzk2:;;$;5T^^^///Tn6@@+$1cnNNLnckklkkkpaaaHQ~!IHla&####@$16palnJSGzg>;;#;#",
"WEEUHvd=*$$$11isvnnnlzkkkpp78aavU!!UNva1$#::1,,ugkzzzbnzzg02;##;wE~~^WKa&@@$1iusvnnbkkkzzzZnpallH!~!Sl74#$$:$<1167pcxZCzg222,>>2",
"45561**$&1163yu6ikkw3wwcckvvllnHLGbcp711&111ugw5,1:3wrzzzzzk3,,:;eZSzp4&*66ipii37kkk00gkzZSSnlvzbLGc6111$<,1111u31,13w0gzzbzbhbz",
"#####@$1plccpp7332,,23wwznHHHKTTMu311:1116ppklcc1:##;>3rzzSAASSz:#;+++#1sccckp71122>333kzZJKYTKKbu11&$113kkkcbnbk,;;;>,kbbSAAAHA",
"##++##$1cvvmlpi11><,,337kZJTEEEJp11&$:$167pclvlk:###>;,0zCSHHHHH1+oo++:ikvvcapi1,,>,,22kzZKTEWEKk1$:$$::pzbSSHHSk<;;>;,gnASAASSH",
"+#####$1kcmns8p1,;>,,23ukATERWTDp1&%$$&16illvnls:###;;,3zxSSHKSS3ooo@#$ikccmkpp1,<>>,23wzbUTERTGp1$$$$$13zSGHJSC2>;;;>:wzZSHHAGH",
"#####+<1kvvvki71:,;>2390kbIWETTDi6$$%$:117lvvncp:###:>>3zCHHKSHn0Ooo##1ilcvvlp71:>>,,32gkbKEWWTA71$$$$$:7zSSHHSZ3;;;;;,0bZHSASHA"
};
